if (_typeface_js && _typeface_js.loadFace) _typeface_js.loadFace({"glyphs":{"S":{"x_min":-33.859375,"x_max":586.578125,"ha":519,"o":"m 416 982 q 480 971 444 982 q 538 937 516 961 q 534 929 554 923 q 495 938 515 932 q 451 944 475 944 q 326 895 365 945 q 281 766 287 844 q 284 659 277 712 q 298 552 290 605 q 313 447 306 500 q 313 340 319 394 q 310 322 312 325 q 306 323 308 319 q 302 335 304 327 q 298 348 300 343 q 277 460 290 404 q 254 573 265 516 q 236 687 243 630 q 236 802 230 744 q 254 872 240 840 q 290 929 268 905 q 345 968 313 954 q 416 982 377 982 m 169 798 q 188 874 173 836 q 229 943 204 912 q 292 993 255 975 q 375 1012 329 1012 q 382 1011 376 1012 q 393 1009 388 1011 q 397 1007 398 1008 q 387 1004 397 1005 q 318 979 350 997 q 262 934 286 961 q 224 875 238 908 q 206 808 209 843 q 212 674 201 741 q 238 540 223 607 q 263 406 252 473 q 268 272 273 338 q 255 216 265 245 q 229 162 245 187 q 190 120 213 137 q 137 98 166 102 q 118 100 115 95 q 134 112 122 105 q 203 177 184 140 q 227 270 222 215 q 222 401 233 334 q 198 534 212 468 q 174 667 184 601 q 169 798 163 733 m 131 29 q 230 50 190 29 q 297 107 270 72 q 337 189 323 143 q 355 286 351 236 q 352 411 361 348 q 334 535 344 473 q 315 659 323 597 q 312 786 306 722 q 352 887 318 850 q 454 925 386 925 q 514 916 477 925 q 575 893 551 908 q 570 883 600 876 q 527 893 554 887 q 487 898 501 898 q 394 875 433 898 q 350 791 355 851 q 352 664 343 727 q 375 537 362 601 q 396 409 387 473 q 400 281 405 345 q 379 179 395 229 q 331 88 362 129 q 256 24 301 48 q 150 0 211 0 q 106 5 133 0 q 54 20 80 11 q 4 42 27 29 q -29 70 -18 55 q -20 77 -41 84 q 36 47 2 65 q 131 29 70 29 m 123 77 q 187 88 158 77 q 247 118 216 100 l 247 113 q 234 89 247 101 q 201 68 220 77 q 157 52 181 58 q 108 47 133 47 q 81 50 98 47 q 47 60 65 54 q 15 75 30 66 q -5 94 0 83 q -15 113 -20 111 q 0 108 -9 115 q 50 89 22 101 q 123 77 79 77 "},"/":{"x_min":30.84375,"x_max":396.09375,"ha":397,"o":"m 327 597 q 259 434 298 518 q 179 279 220 351 q 170 265 176 276 q 159 255 163 255 q 159 270 158 258 q 163 287 161 283 q 176 331 168 305 q 193 384 184 356 q 211 436 202 411 q 227 479 220 461 q 240 515 230 487 q 262 581 250 543 q 288 663 275 619 q 311 747 301 707 q 328 822 322 788 q 333 875 334 857 l 333 884 q 334 888 333 887 q 340 884 337 888 q 343 879 343 880 q 358 816 355 852 q 357 739 361 779 q 345 662 354 700 q 327 597 337 625 m 272 270 q 243 198 259 234 q 211 127 227 162 q 178 59 194 91 q 148 1 162 27 q 140 0 144 0 q 134 0 137 0 q 132 0 130 0 q 134 6 134 1 q 202 227 162 119 q 288 443 243 334 q 343 584 318 512 q 384 738 369 655 q 387 745 384 745 q 391 734 388 745 q 389 631 401 694 q 356 500 377 568 q 310 371 334 433 q 272 270 286 309 m 77 -118 q 79 -126 77 -122 q 77 -127 80 -130 q 72 -123 72 -127 q 36 -17 44 -73 q 32 97 27 38 q 52 216 37 156 q 88 333 68 276 q 151 491 118 413 q 215 642 184 568 q 268 786 245 716 q 300 922 291 855 q 300 927 300 925 q 304 930 301 930 q 306 927 306 932 q 309 920 306 922 q 301 771 318 847 q 254 617 284 695 q 188 459 225 538 q 123 300 152 380 q 90 195 105 250 q 68 86 76 141 q 62 -20 61 31 q 77 -118 63 -73 m 109 -19 q 111 -72 108 -47 q 119 -126 115 -98 q 119 -133 119 -127 q 116 -136 119 -138 q 108 -130 109 -133 q 106 -126 106 -129 q 85 -82 91 -104 q 80 -15 79 -61 q 84 18 80 -4 q 93 61 88 40 q 104 98 98 83 q 116 112 111 113 q 118 104 118 112 q 118 87 119 97 q 117 68 118 77 q 116 55 116 59 q 111 13 113 30 q 109 -19 109 -4 "},"y":{"x_min":11.109375,"x_max":550.046875,"ha":542,"o":"m 508 481 q 489 336 508 412 q 440 187 470 261 q 370 47 409 113 q 288 -65 330 -18 q 270 -80 273 -81 q 273 -59 268 -79 q 295 -9 281 -37 q 321 45 308 18 q 347 97 334 72 q 369 138 361 122 q 391 193 379 159 q 416 269 404 227 q 438 356 427 311 q 458 445 450 402 q 471 522 466 487 q 475 580 476 558 q 475 613 473 605 q 480 618 477 620 q 486 609 483 616 q 493 597 490 602 q 505 534 502 569 q 508 481 508 500 m 234 98 q 208 77 225 87 q 176 68 191 68 q 121 87 143 68 q 87 135 100 106 q 70 195 75 163 q 65 252 65 227 q 72 339 65 290 q 96 438 80 388 q 135 531 112 487 q 190 601 158 575 q 205 611 198 607 q 201 597 212 616 q 185 570 193 581 q 173 545 177 559 q 138 461 151 505 q 116 370 125 416 q 104 248 104 309 q 106 200 104 226 q 116 150 108 173 q 142 110 125 126 q 190 94 159 94 q 209 98 198 94 q 227 106 220 102 q 238 108 238 111 q 234 98 238 105 m 544 458 q 550 409 550 437 q 533 284 550 352 q 489 141 516 215 q 425 -6 462 68 q 349 -151 388 -81 q 268 -281 309 -220 q 188 -386 226 -341 q 184 -391 187 -387 q 177 -399 180 -395 q 170 -404 173 -402 q 168 -400 168 -405 q 185 -363 168 -397 q 229 -278 202 -329 q 286 -168 255 -227 q 347 -55 318 -109 q 397 40 376 -1 q 426 97 419 81 q 495 275 466 186 q 534 461 523 365 q 536 472 536 472 q 544 458 537 473 m 454 561 q 432 403 454 483 q 379 245 411 323 q 309 95 347 168 q 236 -40 270 22 q 130 -277 173 -156 q 70 -527 87 -397 q 66 -540 68 -543 q 63 -532 65 -540 q 59 -516 61 -525 q 57 -497 58 -506 q 56 -480 56 -487 q 70 -354 56 -418 q 106 -229 84 -290 q 156 -109 129 -168 q 211 0 183 -51 l 173 0 q 101 19 131 0 q 51 70 70 38 q 21 145 31 102 q 11 236 11 188 q 15 286 11 254 q 27 354 19 319 q 48 424 36 390 q 76 479 61 458 q 88 491 87 494 q 86 473 90 488 q 57 363 68 420 q 47 251 47 306 q 51 181 47 219 q 68 113 55 144 q 106 61 81 81 q 175 40 131 40 q 230 61 205 40 q 275 112 255 81 q 311 179 295 143 q 340 245 327 215 q 307 207 326 226 q 268 173 288 188 q 226 148 247 158 q 186 138 205 138 q 155 151 166 138 q 138 182 144 163 q 130 220 131 201 q 129 255 129 240 q 135 356 129 305 q 155 456 141 406 q 192 550 169 505 q 248 633 215 595 q 255 641 251 637 q 263 645 259 644 q 266 645 266 647 q 261 633 266 643 q 195 466 220 558 q 169 288 169 375 q 170 261 169 280 q 174 223 170 243 q 185 189 177 204 q 205 175 193 175 q 216 179 209 175 q 315 259 275 208 q 381 374 355 311 q 420 504 408 437 q 433 633 431 572 q 436 657 433 655 q 445 633 438 658 q 454 561 454 593 m 188 -261 q 182 -293 188 -270 q 168 -340 176 -315 q 151 -388 159 -365 q 138 -425 143 -412 q 122 -485 127 -455 q 109 -547 116 -515 q 108 -555 109 -550 q 102 -561 106 -561 q 98 -554 100 -561 q 97 -544 97 -547 q 93 -513 94 -533 q 94 -483 93 -494 q 109 -409 98 -448 q 134 -335 120 -369 q 161 -279 147 -301 q 184 -256 175 -256 q 188 -261 188 -256 "},"Á":{"x_min":27.78125,"x_max":869.265625,"ha":861,"o":"m 481 994 q 474 1007 479 998 q 472 1019 469 1016 q 481 1018 475 1022 q 488 1012 487 1013 q 535 962 513 994 q 574 892 556 930 q 605 812 591 854 q 627 733 619 770 q 663 552 648 641 q 677 369 677 463 q 678 352 677 366 q 673 336 679 338 q 664 350 669 338 q 658 365 659 361 q 628 482 641 416 q 604 602 615 548 q 588 682 595 644 q 572 757 581 720 q 552 829 563 793 q 523 907 540 866 q 514 926 520 912 q 501 954 508 940 q 488 979 494 968 q 481 994 483 991 m 815 -34 q 794 -24 800 -26 q 773 -12 788 -22 q 712 38 740 6 q 662 106 684 69 q 622 186 640 144 q 593 270 605 229 q 527 249 565 252 q 456 245 488 245 q 377 248 416 245 q 297 251 337 251 q 224 111 258 179 q 170 -13 190 44 q 169 -20 170 -15 q 165 -25 168 -25 q 161 -15 161 -25 q 161 -2 161 -5 q 188 121 161 52 q 248 256 215 190 l 227 258 q 204 204 219 238 q 177 131 190 169 q 153 59 163 94 q 143 4 143 25 q 138 0 143 0 q 130 9 133 0 q 125 29 127 18 q 122 52 123 40 q 122 68 122 63 q 134 170 122 116 q 168 268 147 223 l 150 270 q 126 210 137 240 q 106 148 115 180 q 105 141 106 145 q 101 138 104 137 q 97 152 98 144 q 97 165 97 159 q 118 277 97 223 q 131 291 125 291 q 190 301 161 300 q 252 302 220 302 q 390 292 322 302 q 526 281 458 281 q 587 287 559 281 l 584 309 q 552 304 569 305 q 519 302 534 302 q 407 313 465 302 q 297 340 350 325 q 286 345 294 343 q 277 351 277 347 q 286 356 277 354 q 297 358 294 358 q 335 360 316 359 q 373 361 354 361 q 437 360 405 361 q 502 359 469 359 q 537 359 519 359 q 572 361 555 359 l 569 376 l 551 376 q 418 388 484 376 q 286 401 352 401 q 185 387 229 401 q 110 355 141 373 q 59 319 79 337 q 31 293 40 301 q 29 291 29 291 q 27 294 27 291 q 29 297 27 295 q 90 378 54 345 q 179 427 126 411 q 288 651 231 540 q 406 870 344 762 q 412 879 408 873 q 420 886 416 886 q 422 883 422 884 l 422 880 q 420 863 422 869 q 343 647 394 751 q 237 441 291 543 l 263 443 q 285 479 268 451 q 322 536 302 506 q 359 591 343 566 q 380 615 376 615 l 381 611 q 373 580 381 604 q 354 529 365 556 q 332 477 343 501 q 318 443 322 452 q 334 442 326 443 q 351 441 343 441 q 404 546 376 491 q 454 658 433 601 q 482 773 475 715 q 473 888 490 832 q 470 861 473 882 q 461 817 466 840 q 450 777 455 794 q 438 759 444 759 q 435 765 434 759 q 436 772 436 770 q 441 843 436 808 q 445 915 445 879 q 430 1009 445 963 q 426 1021 430 1011 q 429 1032 422 1032 q 438 1025 431 1032 q 466 987 452 1011 q 490 936 479 963 q 511 883 501 909 q 526 838 520 857 q 556 718 544 779 q 577 597 568 658 q 595 476 586 537 q 618 355 605 415 q 647 241 630 297 q 690 136 665 186 q 747 43 715 86 q 823 -30 780 1 q 828 -39 830 -37 q 815 -34 826 -41 m 812 83 q 811 75 813 75 q 804 80 808 76 q 797 90 801 84 q 794 97 794 95 q 741 221 761 158 q 711 349 722 284 q 692 479 700 413 q 674 614 684 545 q 647 754 663 683 q 600 898 630 825 q 595 908 598 901 q 595 916 593 915 q 602 912 598 916 l 608 907 q 662 811 638 870 q 704 683 686 751 q 734 548 722 615 q 752 431 745 481 q 776 265 763 352 q 808 100 788 177 l 812 83 m 400 436 q 479 426 440 431 q 559 418 519 420 q 533 563 544 491 q 512 711 522 636 q 463 570 494 638 q 400 436 431 502 m 857 -19 q 808 4 829 -6 q 772 37 787 16 q 735 101 748 69 q 713 161 722 133 q 709 186 711 172 q 709 200 707 200 q 723 181 715 200 q 738 151 732 163 q 791 64 759 108 q 861 -6 823 20 q 868 -19 872 -16 q 857 -19 863 -22 m 36 247 q 33 247 36 247 l 31 247 q 33 255 31 251 q 36 263 34 259 q 57 299 47 287 q 91 325 68 311 q 130 341 105 333 q 170 350 155 350 q 178 349 173 350 q 183 344 183 348 q 168 333 183 340 q 150 323 154 326 q 72 275 97 291 q 36 247 47 258 m 426 1129 q 433 1126 434 1132 q 428 1114 431 1121 q 417 1094 421 1101 q 410 1080 413 1086 q 405 1066 408 1074 q 398 1044 402 1058 q 393 1036 395 1038 q 390 1033 391 1035 q 383 1038 385 1031 q 381 1056 381 1044 q 383 1075 381 1064 q 391 1097 385 1086 q 405 1117 396 1108 q 426 1129 413 1126 m 374 1075 q 369 1063 370 1063 q 364 1071 366 1063 q 362 1086 362 1079 q 374 1169 362 1139 q 405 1215 385 1199 q 451 1240 426 1232 q 501 1258 476 1249 q 549 1284 526 1268 q 587 1333 571 1300 q 594 1332 590 1340 q 601 1311 598 1324 q 587 1267 605 1286 q 545 1233 570 1247 q 492 1208 520 1218 q 446 1189 465 1197 q 394 1141 409 1171 q 374 1075 380 1111 m 421 1063 q 453 1093 421 1076 q 526 1130 485 1110 q 606 1175 567 1150 q 659 1231 645 1200 l 662 1231 q 668 1222 667 1231 q 669 1211 669 1214 q 642 1153 669 1181 q 576 1103 615 1125 q 496 1069 537 1082 q 427 1057 455 1057 q 421 1063 421 1057 m 473 1157 q 499 1179 476 1167 q 549 1208 521 1192 q 597 1249 576 1225 q 619 1307 619 1274 q 619 1311 619 1311 q 627 1308 620 1311 q 637 1283 635 1301 q 640 1253 640 1264 q 624 1208 640 1228 q 585 1176 609 1189 q 534 1157 562 1164 q 483 1150 506 1150 q 476 1151 480 1150 q 473 1157 471 1151 "},"g":{"x_min":12.40625,"x_max":580.609375,"ha":571,"o":"m 533 620 q 527 616 530 622 q 520 608 523 611 q 483 543 500 581 q 454 461 466 504 q 435 375 443 418 q 422 298 427 331 q 410 209 415 251 q 401 126 405 166 q 394 45 397 86 q 387 -38 391 4 q 388 -46 388 -40 q 388 -59 388 -52 q 388 -70 388 -65 q 391 -75 388 -75 q 395 -70 393 -75 q 401 -59 398 -65 q 405 -48 404 -54 q 406 -43 406 -43 q 433 34 422 -9 q 451 123 444 79 q 456 169 452 134 q 466 250 461 204 q 479 349 472 295 q 495 452 487 402 q 511 541 502 501 q 529 602 520 581 q 531 611 530 608 q 533 616 533 613 l 533 620 m 487 626 q 477 627 487 627 q 469 626 473 627 q 372 597 416 620 q 290 541 327 575 q 225 463 254 506 q 179 375 197 420 q 150 275 159 327 q 143 176 140 222 q 195 165 147 116 q 274 255 237 206 q 343 358 311 304 q 405 468 376 412 q 463 581 434 525 q 468 593 469 593 q 461 593 465 595 q 458 587 458 590 q 318 404 383 491 q 200 230 254 316 q 190 226 193 223 q 190 236 188 229 q 200 302 193 268 q 222 370 208 336 q 318 520 255 455 q 475 618 380 586 q 487 626 487 623 m 412 636 q 406 638 411 638 q 397 638 401 638 q 316 616 358 638 q 234 560 273 594 q 165 485 195 526 q 119 406 134 444 q 86 310 100 356 q 72 216 73 263 q 74 168 70 191 q 87 116 77 144 q 106 90 93 100 q 134 77 119 80 q 163 77 148 75 q 190 88 179 80 q 196 94 191 90 q 206 103 201 98 q 214 112 211 108 q 216 119 218 116 q 203 115 215 122 q 183 108 191 109 q 139 112 154 102 q 118 140 125 122 q 113 182 112 159 q 116 227 113 205 q 120 256 116 236 q 131 307 123 277 q 154 373 140 337 q 190 445 169 409 q 239 512 211 481 q 297 566 268 543 q 353 605 326 590 q 400 626 380 620 q 411 631 409 629 q 412 636 412 633 m 580 651 q 573 645 576 651 q 570 638 572 643 q 512 461 529 552 q 487 276 495 370 q 470 86 479 181 q 437 -105 462 -9 q 420 -169 429 -136 q 398 -234 412 -202 q 361 -295 384 -266 q 300 -343 338 -323 q 218 -363 255 -366 q 148 -343 180 -359 q 90 -300 116 -326 q 44 -254 63 -275 q 38 -247 41 -251 q 34 -245 36 -244 q 34 -252 31 -247 q 37 -259 36 -256 q 134 -363 69 -319 q 172 -383 150 -375 q 220 -395 194 -391 q 272 -393 245 -398 q 325 -372 300 -388 q 397 -307 370 -341 q 441 -238 425 -273 q 467 -165 458 -202 q 484 -91 476 -127 q 517 96 508 2 q 531 281 526 190 q 545 463 537 373 q 577 637 554 552 q 580 645 580 643 l 580 651 m 416 386 q 435 446 423 415 q 454 508 447 477 q 456 518 454 511 q 456 525 458 525 q 448 518 454 526 q 443 508 443 509 q 408 441 423 476 q 380 376 393 405 q 368 352 377 369 q 350 317 359 336 q 335 282 341 298 q 333 263 329 266 q 341 270 336 263 q 350 279 347 276 q 359 293 354 286 q 370 308 365 301 q 356 250 362 273 q 343 209 350 227 q 327 175 336 191 q 302 138 318 159 q 275 106 291 123 q 239 74 259 88 q 195 50 219 59 q 145 41 172 41 q 93 59 112 41 q 63 102 73 76 q 51 156 54 127 q 50 211 48 186 q 96 406 55 311 q 211 576 137 501 q 215 581 211 577 q 219 587 219 586 q 212 587 216 590 l 206 584 q 154 543 181 569 q 103 481 127 516 q 59 402 79 445 q 25 313 38 359 q 14 257 18 290 q 13 189 11 225 q 22 118 15 154 q 47 56 30 83 q 92 13 65 29 q 159 0 119 -2 q 224 13 200 2 q 263 37 248 25 q 298 69 283 52 q 329 101 313 86 q 313 18 320 52 q 298 -45 305 -15 q 280 -125 288 -87 q 262 -193 272 -163 q 240 -240 252 -222 q 211 -262 227 -259 q 191 -266 191 -262 q 197 -273 190 -270 q 211 -277 204 -276 q 250 -270 231 -281 q 284 -238 269 -259 q 310 -187 298 -216 q 330 -127 322 -158 q 358 -3 347 -63 q 379 123 369 56 q 395 254 388 188 q 416 386 401 319 m 261 -302 q 253 -300 258 -300 q 247 -301 248 -301 q 200 -300 223 -305 q 154 -284 177 -294 q 105 -257 127 -273 q 55 -223 83 -241 q 47 -218 52 -220 q 41 -218 41 -215 q 43 -225 40 -219 q 50 -233 47 -230 q 88 -277 68 -256 q 140 -311 108 -298 q 183 -322 161 -319 q 224 -322 205 -325 q 254 -315 243 -320 q 261 -302 265 -309 "},"–":{"x_min":15.28125,"x_max":941.734375,"ha":956,"o":"m 212 481 q 220 481 215 481 q 226 475 226 481 q 214 467 223 470 q 200 462 205 463 q 111 422 152 438 q 30 373 70 405 l 22 373 q 44 418 22 398 q 97 452 66 437 q 160 474 127 466 q 212 481 193 481 m 133 412 q 176 424 147 419 q 238 432 205 429 q 302 437 272 436 q 350 438 333 438 q 517 431 434 438 q 683 425 600 425 q 714 427 695 425 q 753 431 733 429 q 790 434 773 433 q 813 436 807 436 q 779 407 812 418 q 704 392 745 397 q 622 386 662 387 q 569 384 583 384 q 360 391 465 384 q 152 405 255 398 q 140 407 147 406 q 133 412 134 408 m 468 577 q 602 567 534 577 q 736 556 669 556 l 850 556 q 892 563 872 556 q 934 569 912 569 q 938 568 936 569 q 941 566 940 566 q 893 539 927 550 q 820 522 859 529 q 743 515 780 516 q 684 515 705 513 q 566 527 626 520 q 447 533 505 533 l 327 533 q 245 523 287 533 q 161 497 202 513 q 83 458 120 480 q 16 411 45 436 l 15 411 l 15 416 q 151 535 68 493 q 329 577 234 577 l 468 577 m 354 484 q 376 493 356 490 q 423 497 395 495 q 484 499 451 498 q 546 500 516 500 q 599 499 576 500 q 632 498 622 498 l 690 498 q 756 502 723 498 q 822 508 788 505 q 870 518 845 511 q 913 526 894 526 l 913 523 q 860 479 891 497 q 793 452 829 462 q 721 440 758 443 q 651 441 684 437 q 616 445 641 443 q 559 450 591 447 q 492 458 527 454 q 427 466 456 462 q 377 475 397 470 q 354 484 356 480 "},"ë":{"x_min":15.203125,"x_max":539.921875,"ha":478,"o":"m 425 566 q 442 531 436 552 q 447 486 448 511 q 436 436 445 462 q 405 384 426 409 q 317 311 365 337 q 230 286 269 286 q 230 294 206 286 q 260 307 243 298 q 297 329 277 316 q 336 361 316 343 q 373 402 356 379 q 406 478 401 441 q 391 534 411 515 q 352 553 375 551 q 286 529 330 555 q 213 470 245 505 q 154 397 181 436 q 134 377 138 377 q 137 402 129 377 q 184 493 154 451 q 255 563 213 534 q 311 593 286 584 q 359 600 337 601 q 397 589 380 598 q 425 566 413 580 m 500 469 q 482 413 494 436 q 456 374 470 390 q 427 348 441 358 q 401 330 412 338 q 393 329 395 326 q 397 338 390 331 q 447 395 422 359 q 475 473 473 430 q 438 586 475 547 q 348 620 402 625 q 236 577 294 615 q 170 522 198 554 q 120 456 141 491 q 86 383 100 420 q 68 308 73 345 q 57 230 62 272 q 57 148 52 188 q 83 71 62 108 q 148 8 104 34 q 163 2 155 4 q 170 0 170 1 q 163 -3 170 -2 q 148 -1 156 -4 q 89 27 113 5 q 50 76 65 48 q 26 134 34 104 q 16 190 18 165 q 47 406 8 300 q 68 456 55 429 q 101 513 81 484 q 147 568 120 541 q 206 616 173 595 q 273 645 238 636 q 343 654 308 655 q 408 642 377 654 q 462 607 438 630 q 495 550 483 584 q 500 469 506 515 m 373 519 q 377 459 390 500 q 319 376 365 418 q 270 338 294 352 q 211 312 247 323 q 191 208 195 259 q 194 125 187 156 q 203 100 195 112 q 225 82 211 88 q 263 77 240 76 q 322 93 287 79 q 334 95 331 97 q 325 86 336 93 q 272 59 300 66 q 220 54 244 51 q 178 70 195 56 q 155 108 161 84 q 145 209 144 156 q 161 313 147 262 q 203 410 176 365 q 270 487 230 455 q 373 519 345 547 m 359 76 q 335 49 350 62 q 302 25 320 36 q 263 8 283 15 q 222 1 243 1 q 154 17 186 1 q 106 81 123 33 q 104 92 104 87 q 106 97 104 97 q 118 93 112 100 q 129 80 123 87 q 168 48 144 62 q 215 34 193 34 q 287 47 256 34 q 345 80 318 59 q 361 88 352 84 q 359 76 370 93 m 340 481 q 300 463 334 493 q 249 406 268 438 q 216 334 230 373 q 265 363 243 347 q 306 394 287 379 q 337 441 327 412 q 340 481 347 470 m 164 698 q 143 700 157 698 q 128 714 128 703 q 141 724 128 718 q 169 742 153 730 q 196 773 184 754 q 209 821 209 791 q 195 875 209 857 q 188 884 192 879 q 185 890 184 889 q 191 888 188 890 q 196 885 195 886 q 239 845 224 869 q 255 798 255 821 q 233 726 255 754 q 164 698 212 698 m 113 754 q 96 762 96 747 q 105 784 96 773 q 121 807 113 794 q 131 835 128 819 q 123 875 134 851 q 113 890 120 882 q 109 900 106 898 q 121 898 112 901 q 132 893 130 894 q 168 860 156 882 q 180 821 180 837 q 158 777 180 794 q 113 754 137 760 m 73 829 q 78 845 73 836 q 91 854 82 854 q 102 845 98 854 q 106 829 106 836 q 102 814 106 823 q 91 805 98 805 q 78 814 82 805 q 73 829 73 822 m 451 698 q 429 700 444 698 q 414 714 414 703 q 427 724 414 718 q 454 742 439 730 q 481 773 469 754 q 494 821 494 791 q 481 875 494 855 q 473 884 478 879 q 471 890 469 889 q 477 888 473 890 q 482 885 481 886 q 525 845 510 869 q 539 798 539 821 q 519 726 539 754 q 451 698 498 698 m 399 754 q 387 752 392 751 q 381 762 381 753 q 389 784 381 773 q 406 807 398 794 q 417 835 414 819 q 409 875 420 851 q 399 890 406 882 q 395 900 392 898 q 406 898 398 901 q 417 893 414 894 q 453 860 441 882 q 466 821 466 837 q 444 777 466 794 q 399 754 423 760 m 359 829 q 363 845 359 836 q 376 854 367 854 q 387 845 382 854 q 391 829 391 836 q 387 814 391 823 q 376 805 382 805 q 363 814 367 805 q 359 829 359 822 "},"Î":{"x_min":56.5625,"x_max":512.359375,"ha":364,"o":"m 283 705 q 235 550 263 630 q 176 397 206 469 q 170 384 175 394 q 161 375 166 373 q 159 386 158 375 q 159 402 159 398 q 165 444 161 419 q 175 495 169 469 q 186 547 180 522 q 197 590 191 572 q 206 624 200 598 q 220 686 212 650 q 235 763 227 722 q 248 844 243 805 q 255 915 254 883 q 251 965 256 947 q 250 974 248 970 q 252 977 251 977 q 256 974 255 977 q 261 968 258 970 q 284 911 276 944 q 295 841 293 877 q 293 768 297 804 q 283 705 290 732 m 270 397 q 230 261 254 330 q 188 138 206 191 q 183 125 186 131 q 179 122 180 119 q 175 129 176 122 q 175 143 175 136 q 204 351 179 247 q 262 561 230 455 q 297 695 281 626 q 319 843 313 763 q 323 850 319 850 q 326 847 325 850 q 329 841 327 844 q 341 743 344 804 q 325 618 337 683 q 295 493 312 554 q 270 397 279 433 m 143 5 q 145 -2 147 -2 q 140 -1 143 -2 q 136 0 137 0 q 79 99 97 45 q 57 209 61 152 q 61 325 54 266 q 81 438 69 383 q 123 591 100 515 q 167 738 147 666 q 200 876 187 809 q 212 1004 213 943 q 215 1012 212 1011 q 218 1008 216 1012 q 220 1002 220 1004 q 233 864 240 936 q 206 718 226 793 q 161 565 186 643 q 118 411 136 487 q 100 309 106 362 q 96 203 94 256 q 109 99 98 150 q 143 5 120 48 m 158 98 q 186 5 165 54 q 188 -1 187 2 q 186 -5 188 -5 q 177 -2 183 -5 q 173 1 175 -1 q 145 40 155 22 q 127 98 134 58 q 124 137 125 113 q 125 183 123 161 q 129 220 126 205 q 138 236 133 236 q 142 229 140 236 q 145 213 144 222 q 147 195 147 204 q 148 183 148 186 q 152 138 151 159 q 158 98 154 118 m 72 1164 q 90 1198 75 1180 q 127 1231 105 1217 q 173 1252 148 1245 q 221 1252 198 1259 q 244 1242 232 1248 q 264 1229 255 1235 q 278 1217 273 1223 q 282 1206 283 1210 q 274 1207 280 1203 q 261 1212 268 1210 q 188 1214 223 1220 q 122 1183 153 1209 q 100 1160 111 1174 q 85 1134 89 1145 q 79 1128 80 1126 q 71 1146 72 1134 q 72 1164 71 1158 m 498 1062 q 442 1074 464 1062 q 406 1106 421 1087 q 380 1148 391 1126 q 356 1192 369 1171 q 325 1229 343 1213 q 278 1249 307 1245 q 248 1261 260 1252 q 231 1280 237 1270 q 223 1298 225 1289 q 225 1308 222 1306 q 234 1304 230 1309 q 242 1294 237 1299 q 258 1283 247 1288 q 293 1277 269 1277 q 356 1263 332 1276 q 396 1232 380 1251 q 422 1190 412 1213 q 442 1144 432 1167 q 466 1102 453 1121 q 503 1071 479 1083 q 512 1065 510 1069 q 498 1062 514 1062 m 375 1031 q 367 1026 375 1027 q 358 1026 360 1026 q 298 1048 319 1026 q 265 1094 276 1070 q 207 1069 240 1081 q 158 1035 173 1058 q 150 1021 155 1031 q 143 1012 146 1012 q 139 1017 141 1012 q 139 1037 137 1021 q 157 1085 141 1066 q 190 1114 172 1103 q 224 1130 208 1126 q 246 1135 240 1135 q 233 1169 237 1158 q 227 1184 229 1180 q 224 1189 225 1188 q 223 1195 223 1191 q 224 1203 221 1201 q 232 1202 228 1205 q 278 1163 264 1191 q 308 1105 293 1135 q 336 1064 321 1078 q 375 1033 351 1051 l 375 1031 m 476 1046 q 455 1038 468 1039 q 426 1037 441 1037 q 380 1049 400 1037 q 348 1080 361 1062 q 330 1123 336 1099 q 323 1170 323 1146 q 325 1177 323 1173 q 329 1181 326 1181 q 355 1157 344 1181 q 386 1105 366 1133 q 423 1071 401 1085 q 472 1048 444 1058 l 475 1048 q 476 1046 476 1046 m 205 1180 q 219 1174 216 1180 q 214 1162 221 1169 q 189 1140 204 1151 q 160 1117 175 1130 q 132 1085 146 1103 q 112 1037 119 1066 q 111 1025 111 1030 q 107 1020 111 1020 q 100 1037 104 1020 q 92 1071 93 1052 q 97 1105 91 1089 q 145 1167 116 1155 q 205 1180 173 1180 "},"e":{"x_min":15.203125,"x_max":502.609375,"ha":478,"o":"m 425 566 q 442 531 436 552 q 447 486 448 511 q 436 436 445 462 q 405 384 426 409 q 317 311 365 337 q 230 286 269 286 q 230 294 206 286 q 260 307 243 298 q 297 329 277 316 q 336 361 316 343 q 373 402 356 379 q 406 478 401 441 q 391 534 411 515 q 352 553 375 551 q 286 529 330 555 q 213 470 245 505 q 154 397 181 436 q 134 377 138 377 q 137 402 129 377 q 184 493 154 451 q 255 563 213 534 q 311 593 286 584 q 359 600 337 601 q 397 589 380 598 q 425 566 413 580 m 500 469 q 482 413 494 436 q 456 374 470 390 q 427 348 441 358 q 401 330 412 338 q 393 329 395 326 q 397 338 390 331 q 447 395 422 359 q 475 473 473 430 q 438 586 475 547 q 348 620 402 625 q 236 577 294 615 q 170 522 198 554 q 120 456 141 491 q 86 383 100 420 q 68 308 73 345 q 57 230 62 272 q 57 148 52 188 q 83 71 62 108 q 148 8 104 34 q 163 2 155 4 q 170 0 170 1 q 163 -3 170 -2 q 148 -1 156 -4 q 89 27 113 5 q 50 76 65 48 q 26 134 34 104 q 16 190 18 165 q 47 406 8 300 q 68 456 55 429 q 101 513 81 484 q 147 568 120 541 q 206 616 173 595 q 273 645 238 636 q 343 654 308 655 q 408 642 377 654 q 462 607 438 630 q 495 550 483 584 q 500 469 506 515 m 373 519 q 377 459 390 500 q 319 376 365 418 q 270 338 294 352 q 211 312 247 323 q 191 208 195 259 q 194 125 187 156 q 203 100 195 112 q 225 82 211 88 q 263 77 240 76 q 322 93 287 79 q 334 95 331 97 q 325 86 336 93 q 272 59 300 66 q 220 54 244 51 q 178 70 195 56 q 155 108 161 84 q 145 209 144 156 q 161 313 147 262 q 203 410 176 365 q 270 487 230 455 q 373 519 345 547 m 359 76 q 335 49 350 62 q 302 25 320 36 q 263 8 283 15 q 222 1 243 1 q 154 17 186 1 q 106 81 123 33 q 104 92 104 87 q 106 97 104 97 q 118 93 112 100 q 129 80 123 87 q 168 48 144 62 q 215 34 193 34 q 287 47 256 34 q 345 80 318 59 q 361 88 352 84 q 359 76 370 93 m 340 481 q 300 463 334 493 q 249 406 268 438 q 216 334 230 373 q 265 363 243 347 q 306 394 287 379 q 337 441 327 412 q 340 481 347 470 "},"Ã":{"x_min":27.78125,"x_max":869.265625,"ha":861,"o":"m 481 994 q 474 1007 479 998 q 472 1019 469 1016 q 481 1018 475 1022 q 488 1012 487 1013 q 535 962 513 994 q 574 892 556 930 q 605 812 591 854 q 627 733 619 770 q 663 552 648 641 q 677 369 677 463 q 678 352 677 366 q 673 336 679 338 q 664 350 669 338 q 658 365 659 361 q 628 482 641 416 q 604 602 615 548 q 588 682 595 644 q 572 757 581 720 q 552 829 563 793 q 523 907 540 866 q 514 926 520 912 q 501 954 508 940 q 488 979 494 968 q 481 994 483 991 m 815 -34 q 794 -24 800 -26 q 773 -12 788 -22 q 712 38 740 6 q 662 106 684 69 q 622 186 640 144 q 593 270 605 229 q 527 249 565 252 q 456 245 488 245 q 377 248 416 245 q 297 251 337 251 q 224 111 258 179 q 170 -13 190 44 q 169 -20 170 -15 q 165 -25 168 -25 q 161 -15 161 -25 q 161 -2 161 -5 q 188 121 161 52 q 248 256 215 190 l 227 258 q 204 204 219 238 q 177 131 190 169 q 153 59 163 94 q 143 4 143 25 q 138 0 143 0 q 130 9 133 0 q 125 29 127 18 q 122 52 123 40 q 122 68 122 63 q 134 170 122 116 q 168 268 147 223 l 150 270 q 126 210 137 240 q 106 148 115 180 q 105 141 106 145 q 101 138 104 137 q 97 152 98 144 q 97 165 97 159 q 118 277 97 223 q 131 291 125 291 q 190 301 161 300 q 252 302 220 302 q 390 292 322 302 q 526 281 458 281 q 587 287 559 281 l 584 309 q 552 304 569 305 q 519 302 534 302 q 407 313 465 302 q 297 340 350 325 q 286 345 294 343 q 277 351 277 347 q 286 356 277 354 q 297 358 294 358 q 335 360 316 359 q 373 361 354 361 q 437 360 405 361 q 502 359 469 359 q 537 359 519 359 q 572 361 555 359 l 569 376 l 551 376 q 418 388 484 376 q 286 401 352 401 q 185 387 229 401 q 110 355 141 373 q 59 319 79 337 q 31 293 40 301 q 29 291 29 291 q 27 294 27 291 q 29 297 27 295 q 90 378 54 345 q 179 427 126 411 q 288 651 231 540 q 406 870 344 762 q 412 879 408 873 q 420 886 416 886 q 422 883 422 884 l 422 880 q 420 863 422 869 q 343 647 394 751 q 237 441 291 543 l 263 443 q 285 479 268 451 q 322 536 302 506 q 359 591 343 566 q 380 615 376 615 l 381 611 q 373 580 381 604 q 354 529 365 556 q 332 477 343 501 q 318 443 322 452 q 334 442 326 443 q 351 441 343 441 q 404 546 376 491 q 454 658 433 601 q 482 773 475 715 q 473 888 490 832 q 470 861 473 882 q 461 817 466 840 q 450 777 455 794 q 438 759 444 759 q 435 765 434 759 q 436 772 436 770 q 441 843 436 808 q 445 915 445 879 q 430 1009 445 963 q 426 1021 430 1011 q 429 1032 422 1032 q 438 1025 431 1032 q 466 987 452 1011 q 490 936 479 963 q 511 883 501 909 q 526 838 520 857 q 556 718 544 779 q 577 597 568 658 q 595 476 586 537 q 618 355 605 415 q 647 241 630 297 q 690 136 665 186 q 747 43 715 86 q 823 -30 780 1 q 828 -39 830 -37 q 815 -34 826 -41 m 812 83 q 811 75 813 75 q 804 80 808 76 q 797 90 801 84 q 794 97 794 95 q 741 221 761 158 q 711 349 722 284 q 692 479 700 413 q 674 614 684 545 q 647 754 663 683 q 600 898 630 825 q 595 908 598 901 q 595 916 593 915 q 602 912 598 916 l 608 907 q 662 811 638 870 q 704 683 686 751 q 734 548 722 615 q 752 431 745 481 q 776 265 763 352 q 808 100 788 177 l 812 83 m 400 436 q 479 426 440 431 q 559 418 519 420 q 533 563 544 491 q 512 711 522 636 q 463 570 494 638 q 400 436 431 502 m 857 -19 q 808 4 829 -6 q 772 37 787 16 q 735 101 748 69 q 713 161 722 133 q 709 186 711 172 q 709 200 707 200 q 723 181 715 200 q 738 151 732 163 q 791 64 759 108 q 861 -6 823 20 q 868 -19 872 -16 q 857 -19 863 -22 m 36 247 q 33 247 36 247 l 31 247 q 33 255 31 251 q 36 263 34 259 q 57 299 47 287 q 91 325 68 311 q 130 341 105 333 q 170 350 155 350 q 178 349 173 350 q 183 344 183 348 q 168 333 183 340 q 150 323 154 326 q 72 275 97 291 q 36 247 47 258 m 378 1129 q 389 1138 376 1133 q 416 1145 403 1144 q 451 1136 431 1147 q 492 1113 470 1126 q 539 1088 514 1099 q 587 1077 563 1077 q 629 1083 612 1077 q 657 1097 646 1090 q 676 1112 669 1105 q 688 1119 684 1119 q 689 1115 688 1118 q 689 1112 689 1113 q 678 1081 689 1095 q 648 1055 666 1066 q 612 1038 631 1044 q 578 1031 592 1031 q 502 1050 539 1031 q 437 1094 464 1069 q 413 1111 423 1106 q 396 1118 403 1116 q 384 1120 388 1119 q 378 1129 380 1122 m 281 1119 q 292 1178 281 1149 q 323 1228 303 1206 q 369 1262 342 1249 q 427 1274 395 1274 q 501 1262 469 1274 q 555 1235 532 1249 q 594 1208 578 1220 q 617 1195 609 1195 q 641 1197 631 1195 q 666 1208 651 1199 q 674 1211 670 1211 q 676 1205 678 1211 q 644 1170 657 1179 q 606 1161 630 1161 q 577 1172 596 1161 q 533 1197 557 1183 q 480 1222 509 1211 q 424 1233 452 1233 q 367 1217 389 1233 q 330 1180 345 1201 q 304 1140 314 1159 q 282 1112 294 1120 q 281 1119 281 1113 m 635 1124 q 643 1143 635 1130 q 661 1167 651 1155 q 681 1188 671 1179 q 698 1199 691 1198 q 703 1193 703 1199 q 698 1170 703 1183 q 682 1145 692 1156 q 662 1126 673 1134 q 641 1118 651 1118 q 635 1124 635 1118 m 424 1215 q 457 1208 439 1215 q 490 1193 474 1202 q 519 1169 506 1183 q 538 1141 531 1155 q 528 1136 537 1136 q 499 1140 513 1136 q 472 1151 485 1145 q 446 1161 459 1156 q 419 1166 432 1166 q 389 1158 402 1166 q 365 1143 377 1151 q 341 1127 353 1134 q 313 1119 328 1119 l 313 1127 q 356 1188 332 1161 q 424 1215 380 1215 "},"J":{"x_min":-24.140625,"x_max":519.484375,"ha":474,"o":"m 505 962 q 488 927 502 943 q 454 902 473 912 q 413 885 434 891 q 373 879 391 879 q 321 884 351 879 q 264 898 291 890 q 218 915 237 907 q 200 930 200 923 q 205 934 200 933 q 220 937 211 936 q 238 938 229 938 q 255 938 248 938 q 317 936 283 938 q 379 934 351 933 q 416 936 401 934 q 445 941 431 937 q 470 949 458 944 q 500 962 483 954 q 505 962 502 965 m 519 1007 q 506 983 519 993 q 475 967 493 973 q 439 957 458 961 q 411 954 420 954 q 306 965 359 954 q 202 976 254 976 q 93 947 141 976 q 16 868 44 919 q 9 863 13 863 q 8 870 5 863 q 79 979 30 938 q 205 1019 127 1019 q 321 1006 263 1019 q 437 993 379 993 q 481 998 458 993 q 509 1005 504 1002 q 515 1007 511 1007 q 519 1007 519 1008 m 126 922 q 118 912 126 919 q 98 897 109 905 q 77 884 87 890 q 62 875 66 877 q 40 852 50 863 q 19 827 30 840 q 18 825 18 827 q 15 823 18 823 q 13 827 13 823 q 23 862 13 844 q 47 895 33 880 q 81 918 62 909 q 118 927 100 927 q 126 922 126 927 m 441 676 q 427 534 443 608 q 384 384 412 459 q 321 234 356 308 q 247 95 286 161 q 169 -25 208 30 q 98 -119 130 -80 q 94 -124 97 -120 q 88 -131 91 -127 q 83 -135 86 -134 q 80 -130 80 -136 q 96 -92 79 -126 q 139 -8 113 -58 q 196 100 165 41 q 255 211 227 158 q 304 306 283 265 q 330 362 325 347 q 361 450 345 404 q 391 547 377 497 q 411 650 404 597 q 418 757 419 702 q 419 768 418 768 q 423 766 422 768 q 427 754 425 763 q 436 714 431 740 q 441 676 441 688 m 329 818 q 294 613 318 704 q 242 448 270 522 q 182 315 213 375 q 126 205 151 255 q 77 100 100 152 q 36 -7 54 47 q 9 -120 19 -62 q -1 -244 -1 -179 q -4 -256 -1 -259 q -9 -249 -6 -256 q -13 -231 -11 -241 q -18 -211 -16 -220 q -20 -194 -20 -201 q -20 -74 -27 -130 q 3 34 -12 -18 q 41 134 19 86 q 84 233 63 183 q 139 355 106 286 q 204 502 172 425 q 262 660 236 579 q 298 818 288 741 q 189 829 245 820 q 84 852 133 838 q 79 855 81 854 q 76 859 76 857 q 82 866 75 863 q 91 869 90 869 q 175 880 136 880 q 279 870 227 880 q 383 859 330 859 q 418 863 400 859 q 444 869 437 866 q 450 868 450 872 q 448 862 450 865 q 418 838 436 847 q 381 823 401 829 q 387 791 386 805 q 390 765 388 776 q 382 616 398 694 q 336 459 366 537 q 263 304 305 380 q 179 165 222 229 q 163 155 168 150 q 165 179 158 161 q 191 240 173 201 q 229 322 209 280 q 265 402 248 365 q 287 456 281 440 q 339 660 323 569 q 352 819 355 751 q 340 818 345 818 q 329 818 334 818 m 86 6 q 81 -22 86 -1 q 72 -69 77 -44 q 61 -117 66 -94 q 54 -151 55 -140 q 43 -209 47 -180 q 37 -270 40 -238 q 36 -279 37 -273 q 31 -284 36 -284 q 27 -276 29 -283 q 25 -266 26 -269 q 18 -234 22 -254 q 15 -202 15 -213 q 22 -129 15 -168 q 38 -59 29 -91 q 59 -6 48 -27 q 80 12 70 13 q 84 9 83 11 q 86 6 84 8 "},"©":{"x_min":13.890625,"x_max":955.625,"ha":971,"o":"m 688 843 q 591 877 641 859 q 490 895 540 895 q 410 891 443 895 q 349 875 377 886 q 291 850 320 865 q 222 816 262 836 l 219 816 l 219 822 q 336 900 272 875 q 475 926 400 926 q 532 921 502 926 q 591 907 562 916 q 646 881 620 897 q 690 844 672 865 l 688 843 m 626 690 q 589 697 607 690 q 554 704 572 704 q 473 679 509 704 q 405 626 437 654 q 360 575 379 604 q 329 513 341 545 q 312 446 318 480 q 306 379 306 412 q 304 375 306 375 q 293 385 297 375 q 287 409 290 395 q 284 434 284 422 q 283 451 283 447 q 299 549 283 497 q 345 644 315 601 q 417 716 375 687 q 513 744 459 744 q 586 727 552 744 q 626 690 619 709 m 955 468 q 914 274 955 361 q 803 125 873 187 q 641 28 733 62 q 445 -5 548 -5 q 290 18 368 -5 q 152 87 213 41 q 52 200 91 133 q 13 351 13 266 q 22 334 15 351 q 36 296 29 318 q 50 254 43 275 q 62 227 58 234 q 131 140 90 177 q 222 79 173 104 q 327 43 272 55 q 437 31 383 31 q 616 63 530 31 q 765 153 701 95 q 867 290 829 211 q 905 468 905 370 q 879 632 905 555 q 806 770 854 709 q 691 875 758 832 q 540 941 623 919 l 534 950 q 702 904 625 948 q 835 792 779 861 q 923 638 891 723 q 955 468 955 552 m 657 695 q 657 690 659 691 q 651 693 655 688 q 628 716 640 704 q 600 738 616 729 q 562 754 584 748 q 509 761 540 761 q 403 729 451 761 q 321 650 355 698 q 268 545 287 602 q 248 436 248 487 q 257 367 248 402 q 285 302 266 331 q 333 255 304 273 q 401 237 362 237 q 464 249 440 237 q 504 281 488 261 q 530 329 520 302 q 548 387 540 356 q 553 367 552 377 q 554 345 554 356 q 541 288 554 315 q 508 240 529 261 q 459 209 487 220 q 400 197 430 197 q 314 218 351 197 q 252 275 277 240 q 214 352 227 309 q 201 438 201 395 q 222 561 201 498 q 283 676 244 625 q 377 760 322 727 q 497 793 431 793 q 550 782 525 793 q 595 757 575 772 q 632 726 616 743 q 657 695 648 709 m 420 848 q 266 813 336 848 l 261 813 q 299 840 275 829 q 350 859 323 851 q 403 870 376 866 q 451 875 430 875 q 595 840 529 875 q 710 749 662 805 q 785 621 758 693 q 812 475 812 550 q 781 329 812 394 q 696 217 750 263 q 572 145 643 170 q 426 119 502 119 q 290 142 351 119 q 185 207 229 165 q 117 311 141 250 q 93 447 93 372 q 113 603 93 526 q 165 754 133 680 q 172 766 168 758 q 180 776 176 773 l 180 766 q 138 627 154 697 q 122 483 122 556 q 198 250 122 336 q 426 165 275 165 q 558 186 495 165 q 667 248 620 208 q 741 346 713 288 q 768 477 768 404 q 741 618 768 551 q 669 736 715 686 q 559 818 623 787 q 420 848 495 848 m 508 675 q 470 616 490 638 q 432 571 450 594 q 403 518 415 548 q 391 436 391 487 q 393 400 391 418 q 400 368 394 381 q 419 345 406 354 q 454 338 431 337 l 462 333 q 445 318 462 322 q 418 315 427 315 q 381 326 395 315 q 357 354 366 337 q 344 390 348 370 q 340 427 340 409 q 385 579 340 509 q 505 679 430 648 q 508 675 509 679 m 544 365 q 509 295 544 319 q 431 270 473 270 l 416 270 q 402 277 409 270 l 406 281 q 495 322 468 294 q 529 411 522 350 l 533 412 q 542 400 540 411 q 544 384 544 390 l 544 365 l 544 365 m 850 359 q 845 340 850 354 q 836 313 841 327 q 825 285 830 298 q 816 266 819 272 q 748 172 788 212 q 659 104 708 131 q 553 63 609 77 q 438 50 497 50 q 282 75 355 50 q 155 146 209 100 q 70 261 101 193 q 40 418 40 330 q 44 480 40 445 q 56 550 48 515 q 77 616 65 584 q 106 669 90 647 l 109 669 l 109 663 q 100 627 104 643 q 93 601 95 613 q 88 586 90 588 q 76 451 76 516 q 102 304 76 369 q 174 193 127 238 q 286 122 220 147 q 433 98 352 98 q 682 168 576 98 q 844 369 788 238 l 848 373 q 850 359 850 369 "},"ò":{"x_min":16.140625,"x_max":508.375,"ha":510,"o":"m 466 384 q 468 463 470 422 q 450 541 465 505 q 406 600 436 576 q 327 623 376 623 q 213 588 262 623 q 130 500 165 552 q 76 389 95 448 q 51 281 56 330 q 49 166 43 215 q 72 86 55 118 q 114 40 88 55 q 170 25 140 25 q 261 49 213 23 q 351 121 309 75 q 424 235 393 168 q 466 384 455 302 m 19 288 q 47 411 25 344 q 109 534 69 477 q 204 629 148 591 q 333 668 259 668 q 425 641 388 668 q 480 574 461 615 q 505 485 500 533 q 505 394 511 437 q 456 220 493 294 q 372 97 420 147 q 269 24 323 48 q 165 0 215 0 q 97 16 127 0 q 47 68 68 33 q 20 159 27 104 q 19 288 12 213 m 175 93 q 161 97 168 93 q 150 109 154 102 q 144 123 145 116 q 150 133 143 130 q 161 123 154 134 q 176 112 168 112 q 209 130 190 112 q 245 172 227 148 q 275 220 262 197 q 294 255 288 244 q 305 284 300 266 q 316 319 311 301 q 324 354 320 337 q 329 384 327 372 q 326 481 336 447 q 294 515 316 515 q 259 504 277 515 q 225 477 241 494 q 197 441 209 461 q 179 400 184 420 q 169 376 172 376 q 165 400 165 376 q 183 452 169 426 q 218 497 197 477 q 263 531 238 518 q 315 544 288 544 q 354 525 341 544 q 373 479 368 506 q 378 424 379 452 q 375 379 377 395 q 357 306 369 341 q 329 234 345 270 q 304 193 320 218 q 265 147 287 169 q 220 109 244 125 q 175 93 195 93 m 219 66 q 206 52 220 58 q 176 47 191 47 q 110 75 133 48 q 78 137 87 101 q 70 212 69 173 q 73 277 70 251 q 95 380 79 323 q 143 487 112 437 q 218 571 173 537 q 323 605 262 605 q 388 584 363 605 q 424 533 412 563 q 438 467 436 502 q 436 402 440 431 q 426 344 433 370 q 406 286 419 318 q 395 263 402 276 q 380 252 388 251 q 378 263 376 254 q 384 288 380 273 q 391 318 387 302 q 397 348 395 334 q 400 407 400 372 q 395 476 401 443 q 372 533 388 509 q 322 556 355 556 q 232 525 273 556 q 161 449 191 494 q 111 354 130 404 q 88 268 93 305 q 87 212 86 245 q 97 146 88 179 q 127 90 106 113 q 184 65 148 66 q 206 67 195 63 q 219 66 216 70 m 408 784 q 429 772 420 781 q 443 752 437 763 q 450 730 448 741 q 452 711 452 719 q 450 693 452 699 q 444 688 448 686 q 440 691 443 690 q 434 699 437 693 q 429 721 432 713 q 423 735 426 729 q 415 749 419 741 q 405 769 411 756 q 401 781 402 776 q 408 784 400 787 m 459 730 q 439 796 454 766 q 387 844 425 826 q 341 863 369 852 q 288 888 313 873 q 246 922 263 902 q 233 966 229 941 q 240 987 236 979 q 247 988 244 995 q 285 939 262 955 q 333 913 308 923 q 383 895 358 904 q 427 870 408 887 q 459 824 447 854 q 470 741 470 794 q 469 726 470 734 q 465 718 468 718 q 459 730 463 718 m 412 718 q 407 712 412 712 q 337 724 379 712 q 257 758 295 737 q 192 808 219 780 q 165 866 165 836 q 166 877 165 869 q 172 886 166 886 l 175 886 q 227 830 188 855 q 307 785 266 805 q 380 748 348 765 q 412 718 412 731 m 361 812 q 358 806 362 806 q 351 805 354 805 q 300 812 327 805 q 248 831 272 819 q 209 863 225 844 q 193 908 193 883 q 195 938 193 919 q 207 963 198 956 q 214 966 213 966 q 215 962 215 966 q 236 904 215 929 q 285 863 258 880 q 335 834 312 847 q 361 812 358 822 "},"^":{"x_min":39.28125,"x_max":618.75,"ha":645,"o":"m 312 951 q 308 930 311 941 q 301 910 305 919 q 293 896 297 901 q 286 895 288 891 q 279 907 280 898 q 281 920 279 916 q 287 975 288 952 q 283 1027 286 997 q 286 1033 281 1038 q 293 1023 290 1027 q 309 989 304 1004 q 312 951 315 975 m 563 647 q 486 657 519 638 q 441 698 452 676 q 415 762 426 726 q 395 833 404 798 q 393 852 393 844 q 409 844 393 859 q 436 811 422 832 q 458 776 451 791 q 472 752 459 770 q 501 712 484 733 q 536 674 518 691 q 569 654 554 657 q 575 650 580 652 q 563 647 569 648 m 270 958 q 214 885 251 915 q 137 829 177 855 q 86 796 111 812 q 45 747 61 780 q 41 747 45 745 q 40 757 40 751 q 49 803 36 782 q 81 843 62 825 q 122 877 101 862 q 155 904 143 893 q 207 940 180 923 q 258 970 234 957 q 264 973 261 972 q 270 972 268 975 q 270 958 273 969 m 241 850 q 242 841 244 847 q 237 833 240 836 q 210 802 230 822 q 175 772 190 783 q 143 747 161 762 q 108 716 125 733 q 79 682 91 700 q 65 648 66 663 q 63 643 65 644 q 61 644 62 641 q 58 650 58 647 q 56 657 58 654 q 62 732 50 697 q 97 780 75 766 q 158 817 125 798 q 226 848 191 836 q 234 851 229 850 q 241 850 238 852 m 400 741 q 425 687 412 716 q 472 644 438 658 q 472 639 479 641 q 461 637 466 637 q 413 654 434 637 q 373 694 391 670 q 341 745 355 718 q 318 791 327 772 l 294 768 q 235 725 266 744 q 175 688 204 707 q 120 649 145 669 q 81 602 95 629 q 78 602 80 598 q 76 608 76 605 q 100 676 80 650 q 150 723 120 702 q 211 762 179 744 q 270 805 243 780 q 318 884 304 836 q 315 998 333 932 q 316 1004 312 1007 q 322 998 319 1001 q 346 972 330 982 q 384 954 362 963 q 430 932 405 945 q 481 888 455 918 q 516 827 502 859 q 543 764 529 794 q 572 709 556 734 q 615 669 588 683 q 617 665 620 666 q 607 663 613 663 q 543 688 566 666 q 504 741 520 711 q 476 806 488 772 q 443 869 463 840 q 401 911 427 893 q 340 936 375 929 q 352 873 351 890 q 354 845 352 857 q 365 814 356 834 q 400 741 373 794 "},"D":{"x_min":-2.59375,"x_max":798.0625,"ha":814,"o":"m 690 483 q 685 472 689 479 q 678 457 682 465 q 669 445 674 450 q 664 441 665 440 q 665 448 664 441 q 669 463 667 455 q 673 479 671 472 q 675 490 675 487 q 675 682 696 601 q 605 813 654 762 q 484 890 555 865 q 333 916 412 915 q 221 907 276 916 q 121 884 167 898 q 45 854 76 870 q 5 822 14 837 q 0 826 -3 805 q 59 893 11 862 q 171 943 107 923 q 305 968 235 962 q 432 961 375 975 q 507 937 469 952 q 578 900 544 922 q 641 849 612 879 q 689 780 669 819 q 726 625 726 705 q 690 483 725 545 m 781 493 q 710 352 754 415 q 617 240 667 290 q 514 155 567 191 q 415 94 461 119 q 392 83 401 87 q 382 81 382 79 q 390 90 379 83 q 411 106 400 98 q 562 238 489 169 q 693 397 635 308 q 737 497 722 443 q 753 611 753 552 q 737 726 753 669 q 687 832 721 783 q 580 933 643 895 q 444 985 517 970 q 296 994 372 1000 q 149 968 219 988 q 135 963 137 965 q 132 965 133 962 q 136 970 130 968 q 146 976 142 973 q 225 1007 176 993 q 335 1023 274 1020 q 465 1013 396 1026 q 606 962 535 1000 q 724 857 682 920 q 783 725 767 793 q 797 595 800 658 q 781 493 794 531 m 176 16 q 159 52 169 27 q 143 109 149 76 q 139 147 140 126 q 140 186 139 168 q 144 218 142 205 q 153 230 147 230 q 156 222 154 230 q 160 205 158 215 q 163 186 162 195 q 164 173 164 177 q 173 101 167 137 q 192 31 179 65 q 303 152 240 91 q 425 277 365 213 q 534 406 485 340 q 606 544 583 473 q 612 645 621 593 q 576 741 603 698 q 501 811 550 783 q 394 850 453 838 q 348 857 371 854 q 300 859 325 859 q 305 814 304 838 q 304 766 305 790 q 300 721 303 743 q 293 683 297 700 q 247 532 274 608 q 192 387 221 456 q 184 374 189 383 q 176 365 179 365 q 174 376 174 365 q 175 391 174 387 q 180 432 176 408 q 189 481 185 456 q 200 531 194 506 q 211 572 205 555 q 221 612 214 580 q 237 686 229 644 q 253 774 246 727 q 264 859 261 820 l 247 859 q 232 748 244 805 q 202 634 219 691 q 166 518 185 576 q 133 401 147 459 q 126 358 130 388 q 118 289 121 327 q 115 209 115 251 q 121 128 115 166 q 140 59 128 90 q 176 16 153 29 m 637 504 q 553 365 607 431 q 437 236 500 298 q 309 119 375 175 q 189 13 243 63 q 160 11 178 4 q 135 30 143 19 q 92 118 105 69 q 75 218 78 166 q 78 324 72 270 q 97 427 85 377 q 160 650 125 543 q 212 855 196 758 q 78 821 137 847 q 0 759 19 795 q -1 757 0 757 q -1 768 -3 757 q 53 835 10 807 q 155 879 96 863 q 284 898 215 895 q 418 890 353 901 q 541 836 489 877 q 623 741 593 795 q 658 623 653 686 q 637 504 662 561 m 339 819 q 352 725 355 783 q 336 603 349 666 q 308 481 324 540 q 283 387 292 423 q 243 254 267 320 q 204 137 219 187 q 194 118 197 118 q 190 125 190 118 q 190 140 190 133 q 220 343 194 243 q 276 545 246 443 q 311 676 294 608 q 330 819 328 744 q 333 830 330 829 q 336 826 335 830 q 339 819 337 822 m 504 243 q 499 231 505 241 q 481 210 492 222 q 460 186 471 198 q 446 170 450 175 q 387 111 417 141 q 325 61 357 81 l 200 -18 q 192 -20 197 -19 q 185 -20 187 -22 q 183 -16 182 -19 q 185 -11 183 -13 q 189 -5 186 -8 q 242 36 212 11 q 304 87 272 61 q 360 133 328 105 q 424 186 393 161 q 478 228 455 211 q 504 243 501 245 "},"ÿ":{"x_min":11.109375,"x_max":562.921875,"ha":542,"o":"m 508 481 q 489 336 508 412 q 440 187 470 261 q 370 47 409 113 q 288 -65 330 -18 q 270 -80 273 -81 q 273 -59 268 -79 q 295 -9 281 -37 q 321 45 308 18 q 347 97 334 72 q 369 138 361 122 q 391 193 379 159 q 416 269 404 227 q 438 356 427 311 q 458 445 450 402 q 471 522 466 487 q 475 580 476 558 q 475 613 473 605 q 480 618 477 620 q 486 609 483 616 q 493 597 490 602 q 505 534 502 569 q 508 481 508 500 m 234 98 q 208 77 225 87 q 176 68 191 68 q 121 87 143 68 q 87 135 100 106 q 70 195 75 163 q 65 252 65 227 q 72 339 65 290 q 96 438 80 388 q 135 531 112 487 q 190 601 158 575 q 205 611 198 607 q 201 597 212 616 q 185 570 193 581 q 173 545 177 559 q 138 461 151 505 q 116 370 125 416 q 104 248 104 309 q 106 200 104 226 q 116 150 108 173 q 142 110 125 126 q 190 94 159 94 q 209 98 198 94 q 227 106 220 102 q 238 108 238 111 q 234 98 238 105 m 544 458 q 550 409 550 437 q 533 284 550 352 q 489 141 516 215 q 425 -6 462 68 q 349 -151 388 -81 q 268 -281 309 -220 q 188 -386 226 -341 q 184 -391 187 -387 q 177 -399 180 -395 q 170 -404 173 -402 q 168 -400 168 -405 q 185 -363 168 -397 q 229 -278 202 -329 q 286 -168 255 -227 q 347 -55 318 -109 q 397 40 376 -1 q 426 97 419 81 q 495 275 466 186 q 534 461 523 365 q 536 472 536 472 q 544 458 537 473 m 454 561 q 432 403 454 483 q 379 245 411 323 q 309 95 347 168 q 236 -40 270 22 q 130 -277 173 -156 q 70 -527 87 -397 q 66 -540 68 -543 q 63 -532 65 -540 q 59 -516 61 -525 q 57 -497 58 -506 q 56 -480 56 -487 q 70 -354 56 -418 q 106 -229 84 -290 q 156 -109 129 -168 q 211 0 183 -51 l 173 0 q 101 19 131 0 q 51 70 70 38 q 21 145 31 102 q 11 236 11 188 q 15 286 11 254 q 27 354 19 319 q 48 424 36 390 q 76 479 61 458 q 88 491 87 494 q 86 473 90 488 q 57 363 68 420 q 47 251 47 306 q 51 181 47 219 q 68 113 55 144 q 106 61 81 81 q 175 40 131 40 q 230 61 205 40 q 275 112 255 81 q 311 179 295 143 q 340 245 327 215 q 307 207 326 226 q 268 173 288 188 q 226 148 247 158 q 186 138 205 138 q 155 151 166 138 q 138 182 144 163 q 130 220 131 201 q 129 255 129 240 q 135 356 129 305 q 155 456 141 406 q 192 550 169 505 q 248 633 215 595 q 255 641 251 637 q 263 645 259 644 q 266 645 266 647 q 261 633 266 643 q 195 466 220 558 q 169 288 169 375 q 170 261 169 280 q 174 223 170 243 q 185 189 177 204 q 205 175 193 175 q 216 179 209 175 q 315 259 275 208 q 381 374 355 311 q 420 504 408 437 q 433 633 431 572 q 436 657 433 655 q 445 633 438 658 q 454 561 454 593 m 188 -261 q 182 -293 188 -270 q 168 -340 176 -315 q 151 -388 159 -365 q 138 -425 143 -412 q 122 -485 127 -455 q 109 -547 116 -515 q 108 -555 109 -550 q 102 -561 106 -561 q 98 -554 100 -561 q 97 -544 97 -547 q 93 -513 94 -533 q 94 -483 93 -494 q 109 -409 98 -448 q 134 -335 120 -369 q 161 -279 147 -301 q 184 -256 175 -256 q 188 -261 188 -256 m 187 708 q 166 710 180 708 q 151 724 151 713 q 164 734 151 728 q 192 752 176 740 q 219 783 207 764 q 232 831 232 801 q 218 885 232 867 q 211 894 215 889 q 208 900 207 899 q 214 898 211 900 q 219 895 218 896 q 262 855 247 879 q 278 808 278 831 q 256 736 278 764 q 187 708 235 708 m 136 764 q 119 772 119 757 q 128 794 119 783 q 144 817 136 804 q 154 845 151 829 q 146 885 157 861 q 136 900 143 892 q 132 910 129 908 q 144 908 135 911 q 155 903 153 904 q 191 870 179 892 q 203 831 203 847 q 181 787 203 804 q 136 764 160 770 m 96 839 q 101 855 96 846 q 114 864 105 864 q 125 855 121 864 q 129 839 129 846 q 125 824 129 833 q 114 815 121 815 q 101 824 105 815 q 96 839 96 832 m 474 708 q 452 710 467 708 q 437 724 437 713 q 450 734 437 728 q 477 752 462 740 q 504 783 492 764 q 517 831 517 801 q 504 885 517 865 q 496 894 501 889 q 494 900 492 899 q 500 898 496 900 q 505 895 504 896 q 548 855 533 879 q 562 808 562 831 q 542 736 562 764 q 474 708 521 708 m 422 764 q 410 762 415 761 q 404 772 404 763 q 412 794 404 783 q 429 817 421 804 q 440 845 437 829 q 432 885 443 861 q 422 900 429 892 q 418 910 415 908 q 429 908 421 911 q 440 903 437 904 q 476 870 464 892 q 489 831 489 847 q 467 787 489 804 q 422 764 446 770 m 382 839 q 386 855 382 846 q 399 864 390 864 q 410 855 405 864 q 414 839 414 846 q 410 824 414 833 q 399 815 405 815 q 386 824 390 815 q 382 839 382 832 "},"í":{"x_min":22.90625,"x_max":385.1875,"ha":288,"o":"m 220 458 q 182 354 205 406 q 134 256 159 301 q 128 247 131 254 q 122 240 125 240 q 119 250 119 241 q 119 261 119 258 q 122 288 119 272 q 128 321 125 304 q 136 355 131 338 q 144 384 140 372 q 154 424 147 391 q 168 497 162 456 q 177 577 175 538 q 170 633 179 615 q 170 641 168 641 q 180 636 175 641 q 207 596 197 619 q 222 548 218 573 q 227 500 227 523 q 220 458 226 476 m 226 248 q 197 159 215 204 q 163 80 179 113 q 155 69 159 69 q 150 74 151 69 q 150 83 150 79 q 166 221 147 154 q 209 359 186 288 q 236 447 223 402 q 247 545 248 493 q 248 551 247 551 q 256 545 254 551 q 275 478 275 519 q 266 395 275 437 q 245 313 258 352 q 226 248 233 273 m 127 0 q 129 -4 133 -5 q 122 -1 125 -4 q 59 62 81 27 q 29 135 37 97 q 23 212 20 173 q 36 288 26 251 q 68 389 50 340 q 102 485 86 438 q 127 576 118 531 q 131 662 136 620 q 131 668 131 668 q 137 661 133 668 q 157 567 159 615 q 141 470 155 519 q 108 370 127 420 q 76 270 88 320 q 65 202 68 238 q 68 131 62 166 q 87 61 73 95 q 127 0 101 27 m 138 52 q 169 0 151 20 q 171 -2 170 0 q 170 -4 172 -4 q 158 0 166 -4 q 127 18 138 6 q 106 56 116 29 q 100 84 102 68 q 98 114 98 100 q 100 138 98 129 q 108 148 102 148 q 115 133 111 148 q 122 112 120 118 q 129 80 125 97 q 138 52 134 63 m 142 774 q 149 771 150 777 q 144 759 147 766 q 133 739 137 746 q 126 725 129 731 q 121 711 124 719 q 114 689 118 703 q 109 681 111 683 q 106 678 107 680 q 99 683 101 676 q 97 701 97 689 q 99 720 97 709 q 107 742 101 731 q 121 762 112 753 q 142 774 129 771 m 90 720 q 85 708 86 708 q 80 716 82 708 q 78 731 78 724 q 90 814 78 784 q 121 860 101 844 q 167 885 142 877 q 217 903 192 894 q 265 929 242 913 q 303 978 287 945 q 310 977 306 985 q 317 956 314 969 q 303 912 321 931 q 261 878 286 892 q 208 853 236 863 q 162 834 181 842 q 110 786 125 816 q 90 720 96 756 m 137 708 q 169 738 137 721 q 242 775 201 755 q 322 820 283 795 q 375 876 361 845 l 378 876 q 384 867 383 876 q 385 856 385 859 q 358 798 385 826 q 292 748 331 770 q 212 714 253 727 q 143 702 171 702 q 137 708 137 702 m 189 802 q 215 824 192 812 q 265 853 237 837 q 313 894 292 870 q 335 952 335 919 q 335 956 335 956 q 343 953 336 956 q 353 928 351 946 q 356 898 356 909 q 340 853 356 873 q 301 821 325 834 q 250 802 278 809 q 199 795 222 795 q 192 796 196 795 q 189 802 187 796 "},"ˆ":{"x_min":36.5625,"x_max":477.359375,"ha":469,"o":"m 37 888 q 55 922 40 904 q 92 955 70 941 q 138 976 113 969 q 186 976 163 983 q 209 966 197 972 q 229 953 220 959 q 243 941 238 947 q 247 930 248 934 q 239 931 245 927 q 226 936 233 934 q 153 938 188 944 q 87 907 118 933 q 65 884 76 898 q 50 858 54 869 q 44 852 45 850 q 36 870 37 858 q 37 888 36 882 m 463 786 q 407 798 429 786 q 371 830 386 811 q 345 872 356 850 q 321 916 334 895 q 290 953 308 937 q 243 973 272 969 q 213 985 225 976 q 196 1004 202 994 q 188 1022 190 1013 q 190 1032 187 1030 q 199 1028 195 1033 q 207 1018 202 1023 q 223 1007 212 1012 q 258 1001 234 1001 q 321 987 297 1000 q 361 956 345 975 q 387 914 377 937 q 407 868 397 891 q 431 826 418 845 q 468 795 444 807 q 477 789 475 793 q 463 786 479 786 m 340 755 q 332 750 340 751 q 323 750 325 750 q 263 772 284 750 q 230 818 241 794 q 172 793 205 805 q 123 759 138 782 q 115 745 120 755 q 108 736 111 736 q 104 741 106 736 q 104 761 102 745 q 122 809 106 790 q 155 838 137 827 q 189 854 173 850 q 211 859 205 859 q 198 893 202 882 q 192 908 194 904 q 189 913 190 912 q 188 919 188 915 q 189 927 186 925 q 197 926 193 929 q 243 887 229 915 q 273 829 258 859 q 301 788 286 802 q 340 757 316 775 l 340 755 m 441 770 q 420 762 433 763 q 391 761 406 761 q 345 773 365 761 q 313 804 326 786 q 295 847 301 823 q 288 894 288 870 q 290 901 288 897 q 294 905 291 905 q 320 881 309 905 q 351 829 331 857 q 388 795 366 809 q 437 772 409 782 l 440 772 q 441 770 441 770 m 170 904 q 184 898 181 904 q 179 886 186 893 q 154 864 169 875 q 125 841 140 854 q 97 809 111 827 q 77 761 84 790 q 76 749 76 754 q 72 744 76 744 q 65 761 69 744 q 57 795 58 776 q 62 829 56 813 q 110 891 81 879 q 170 904 138 904 "},"w":{"x_min":22.21875,"x_max":801.1875,"ha":792,"o":"m 744 437 q 688 339 720 388 q 622 251 657 290 q 615 242 620 248 q 605 237 609 236 q 604 247 602 240 q 607 258 605 254 q 627 316 613 280 q 657 375 641 352 q 674 413 661 381 q 700 485 687 445 q 718 562 712 525 q 716 618 725 600 q 716 622 716 618 l 716 623 q 726 618 723 623 q 749 576 741 600 q 758 527 757 552 q 756 478 759 502 q 744 437 752 454 m 790 520 q 799 452 805 493 q 777 368 793 411 q 741 288 761 326 q 708 226 720 250 q 657 145 687 186 q 602 72 627 104 q 590 62 595 62 q 588 69 587 65 q 590 77 588 73 q 645 211 612 150 q 715 340 679 273 q 758 426 738 381 q 783 523 777 470 q 786 529 783 529 q 788 525 787 526 q 790 520 790 523 m 420 437 q 365 339 397 388 q 298 251 333 290 q 291 242 297 248 q 281 237 286 236 q 280 247 279 240 q 283 258 281 254 q 304 316 290 280 q 333 375 318 352 q 350 413 337 381 q 376 485 363 445 q 395 562 388 525 q 394 618 402 600 q 393 622 393 619 q 394 623 393 623 q 402 618 400 623 q 425 576 418 600 q 434 527 433 552 q 432 478 436 502 q 420 437 429 454 m 463 555 q 481 535 472 555 q 494 473 490 515 q 492 367 501 422 q 469 263 483 312 q 468 254 469 261 q 461 245 466 247 q 455 252 458 245 q 452 262 452 259 q 445 299 448 277 q 443 343 443 320 q 426 305 434 323 q 409 272 418 287 l 409 258 q 434 134 411 197 q 515 26 458 70 q 507 46 509 40 q 493 70 505 52 q 480 93 486 79 q 470 121 475 108 q 466 144 466 134 q 469 154 465 154 q 482 147 476 156 q 493 129 488 137 q 495 188 490 158 q 504 243 501 218 q 511 307 508 279 q 515 376 513 336 q 515 470 518 419 q 493 570 512 522 q 494 575 490 575 q 498 573 497 575 q 502 570 500 572 q 532 532 520 556 q 550 478 544 508 q 559 416 556 448 q 561 354 561 383 q 604 429 581 391 q 643 503 626 466 q 670 576 661 540 q 679 647 680 612 q 680 651 679 651 q 684 647 684 652 q 697 554 705 601 q 668 459 690 506 q 618 366 647 412 q 566 273 588 319 q 527 145 538 215 q 534 0 515 76 l 534 -1 q 533 -2 533 -2 q 529 -1 530 -2 q 526 0 527 -1 q 517 11 522 5 q 502 22 512 16 q 410 103 438 55 q 373 204 381 151 q 325 134 351 169 q 279 72 300 100 q 266 62 272 62 q 264 69 263 65 q 266 77 265 73 q 323 214 288 150 q 395 344 358 279 q 417 382 406 363 q 436 420 427 401 q 452 463 445 440 q 462 518 458 487 q 461 541 463 527 q 463 555 459 555 m 170 477 q 165 369 170 426 q 145 263 159 312 q 144 254 145 261 q 137 245 143 247 q 131 252 134 245 q 129 262 129 259 q 124 289 126 273 q 120 322 122 305 q 118 355 119 338 q 119 384 118 372 q 118 426 120 393 q 109 498 115 459 q 94 573 104 537 q 70 622 84 609 q 67 628 68 625 q 68 632 66 632 q 74 629 70 632 q 80 627 77 627 q 116 600 100 618 q 145 561 133 581 q 163 518 156 540 q 170 477 170 495 m 361 644 q 374 552 381 598 q 345 459 366 505 q 294 366 323 412 q 243 273 265 319 q 203 145 215 215 q 211 0 191 76 l 211 -1 q 209 -2 209 -2 q 205 -1 206 -2 q 204 0 204 -1 q 194 11 200 5 q 179 22 188 16 q 112 70 138 43 q 71 130 86 98 q 50 197 56 162 q 44 266 44 231 q 46 367 43 316 q 50 465 50 418 q 45 556 51 512 q 22 636 40 600 q 22 638 22 638 q 27 639 25 641 q 31 637 30 637 q 80 559 68 604 q 94 465 93 515 q 90 362 95 415 q 86 258 84 309 q 93 195 87 227 q 111 134 98 163 q 143 76 123 104 q 191 26 163 48 q 183 46 186 40 q 169 70 180 52 q 156 93 162 79 q 147 121 151 108 q 142 144 143 134 q 145 154 141 154 q 159 147 152 156 q 169 129 165 137 q 172 188 168 158 q 180 243 177 218 q 187 307 184 279 q 191 376 190 336 q 192 470 194 419 q 169 570 190 522 q 170 575 169 575 q 175 573 173 575 q 179 570 176 572 q 209 532 197 556 q 227 478 220 508 q 235 416 233 448 q 237 354 237 383 q 280 429 258 391 q 320 503 302 466 q 347 576 337 540 q 355 647 356 612 q 358 651 355 651 q 360 650 359 652 q 361 644 361 647 m 248 0 q 245 -5 248 -5 q 240 -3 244 -5 q 234 0 237 -1 q 218 23 223 8 q 216 69 213 38 q 219 97 216 81 q 226 125 222 112 q 234 146 230 138 q 243 152 238 154 q 249 135 250 150 q 248 113 248 120 q 247 48 247 77 q 248 0 247 19 m 572 0 q 569 -5 572 -5 q 564 -3 568 -5 q 558 0 561 -1 q 542 23 547 8 q 540 69 537 38 q 543 97 540 81 q 550 125 545 112 q 558 146 554 138 q 566 152 562 154 q 572 135 573 150 q 572 113 572 120 q 570 48 570 77 q 572 0 570 19 "},"$":{"x_min":6.765625,"x_max":569.59375,"ha":535,"o":"m 22 65 q 11 61 16 62 q 6 62 6 61 q 15 70 5 65 q 58 88 34 79 q 106 104 81 97 q 121 212 112 156 q 145 322 130 268 l 183 452 l 159 487 q 121 542 140 515 q 86 607 102 569 q 65 690 70 640 q 86 783 61 740 q 143 852 111 827 q 209 888 175 876 q 275 905 243 901 q 336 913 308 909 q 365 1044 356 979 q 369 1054 365 1051 q 372 1050 370 1055 q 373 1043 373 1044 q 373 958 379 1001 q 356 870 368 915 q 329 778 344 825 q 300 683 313 732 q 238 485 270 583 q 183 287 206 387 q 155 159 168 225 q 137 29 143 94 q 136 -95 131 -34 q 159 -211 140 -156 q 161 -225 162 -225 q 154 -219 155 -225 q 106 -97 118 -165 q 98 29 94 -30 q 26 20 61 22 q 17 21 23 20 q 11 25 11 22 q 15 33 11 30 l 20 36 q 57 51 40 44 q 101 65 75 58 l 101 73 q 102 80 101 77 q 60 73 80 77 q 22 65 40 69 m 498 855 l 451 844 q 449 770 455 819 q 432 668 443 720 q 411 568 422 615 q 395 504 401 522 q 435 457 418 480 q 466 415 452 434 q 500 355 484 391 q 520 278 515 319 q 518 195 525 237 q 484 119 511 154 q 425 63 456 83 q 363 33 394 43 q 303 22 331 23 q 252 20 275 20 q 237 -13 245 5 q 222 -48 229 -33 q 213 -64 218 -58 q 209 -69 209 -70 q 206 -60 205 -69 q 209 -43 206 -51 q 267 213 233 81 q 343 481 301 344 q 370 568 352 516 q 402 674 387 619 q 429 779 418 729 q 441 863 441 830 q 468 866 456 863 q 490 868 479 868 q 512 863 512 868 q 508 858 513 861 q 498 855 502 855 m 270 65 l 258 36 q 343 57 300 43 q 422 104 386 72 q 472 195 459 145 q 469 294 484 244 q 431 375 455 340 q 380 443 406 411 l 370 402 q 391 371 381 387 q 406 340 400 355 q 415 318 409 334 q 416 300 420 302 q 404 313 415 300 q 391 333 394 326 l 359 369 l 345 319 l 354 309 q 375 258 369 284 q 377 207 381 231 q 354 163 372 183 q 304 129 337 143 q 296 126 300 127 q 288 123 293 125 l 279 93 q 339 111 313 104 q 366 118 365 119 q 356 106 370 115 q 323 88 343 98 q 270 65 301 77 m 375 668 q 311 469 345 575 q 240 270 276 363 q 231 254 237 268 q 222 240 225 240 q 220 255 219 241 q 225 276 222 269 q 236 330 229 298 q 251 395 243 362 q 267 460 259 429 q 279 515 275 491 q 291 560 281 526 q 314 641 301 594 q 343 740 327 687 q 370 842 358 793 q 391 932 383 891 q 400 993 400 972 q 400 1006 400 1000 q 401 1012 400 1012 q 405 1007 404 1012 q 409 998 406 1001 q 422 925 422 968 q 414 835 422 882 q 395 745 406 788 q 375 668 384 701 m 118 745 q 114 673 109 707 q 133 611 119 640 q 165 558 147 583 q 200 509 183 533 q 206 533 202 520 q 211 548 209 540 q 197 566 205 554 q 179 593 188 579 q 163 619 170 607 q 152 638 156 632 q 139 676 144 654 q 136 722 134 698 q 150 768 138 745 q 183 808 161 791 q 250 841 215 832 q 318 858 284 851 l 323 873 q 266 862 297 869 q 207 841 236 855 q 155 804 179 827 q 118 745 131 782 m 184 -97 q 201 -211 184 -161 q 201 -225 205 -222 q 193 -222 198 -226 q 186 -215 188 -218 q 172 -193 177 -202 q 162 -170 166 -183 q 156 -140 158 -158 q 154 -97 154 -123 q 157 -48 154 -76 q 165 4 161 -20 q 175 46 169 29 q 184 62 180 63 q 187 53 186 62 q 188 33 188 44 q 188 12 188 22 q 188 0 188 2 q 185 -47 186 -22 q 184 -97 184 -72 m 190 729 q 193 672 181 705 q 227 600 204 638 l 236 626 q 209 718 201 684 q 287 776 218 752 q 292 788 290 782 q 297 801 294 794 q 227 770 256 787 q 190 729 198 752 m 554 893 l 441 886 q 440 899 441 893 q 438 911 438 905 q 496 907 468 909 q 555 900 525 905 q 569 895 570 897 q 554 893 568 894 m 338 225 q 336 243 338 236 q 330 261 334 251 q 319 218 325 238 q 306 175 313 197 q 331 198 327 187 q 338 225 336 209 m 255 683 l 263 709 l 276 745 q 247 719 252 730 q 255 683 241 708 "},"\\":{"x_min":1.390625,"x_max":611.546875,"ha":608,"o":"m 243 775 q 297 593 272 690 q 338 409 323 495 q 343 391 341 404 q 343 375 345 377 q 331 386 337 375 q 323 402 325 397 q 302 447 313 420 q 281 504 291 475 q 261 561 270 533 q 245 611 251 590 q 231 650 243 620 q 205 718 220 679 q 170 802 190 757 q 131 888 151 847 q 93 961 112 929 q 61 1008 75 994 q 56 1013 58 1011 q 54 1018 55 1015 q 52 1022 52 1020 q 59 1021 55 1023 q 65 1019 62 1019 q 120 977 93 1005 q 171 914 147 948 q 213 843 195 880 q 243 775 231 805 m 415 461 q 466 306 440 386 q 513 169 491 227 q 516 152 515 158 q 515 145 518 145 q 509 150 513 143 q 500 163 504 156 q 441 268 466 213 q 393 379 415 322 q 353 497 372 436 q 315 620 334 558 q 263 773 291 695 q 190 930 236 851 q 186 935 186 934 q 188 937 186 936 q 191 937 190 940 q 197 932 193 934 q 265 843 231 905 q 327 709 298 782 q 379 568 356 637 q 415 461 402 500 m 569 19 q 577 13 575 16 q 577 9 580 9 q 570 9 576 5 q 457 62 509 25 q 363 152 405 100 q 289 266 322 204 q 234 394 256 329 q 179 568 205 481 q 127 738 154 655 q 70 894 100 820 q 1 1027 40 968 q 1 1034 1 1034 q 2 1036 1 1037 q 5 1033 2 1034 q 11 1029 8 1030 q 104 900 66 975 q 172 741 143 826 q 227 564 201 655 q 283 387 252 473 q 332 276 302 331 q 399 172 362 220 q 479 83 436 123 q 569 19 522 43 m 515 112 q 558 77 537 93 q 602 47 579 61 q 609 40 605 44 q 611 36 612 36 q 604 33 608 33 q 598 33 601 33 q 593 34 594 33 q 568 41 579 38 q 545 50 556 44 q 522 65 534 56 q 493 91 509 75 q 464 126 480 104 q 434 170 448 148 q 413 207 420 191 q 409 226 405 223 q 417 222 411 227 q 430 210 423 218 q 443 195 437 202 q 452 184 450 187 q 483 145 468 162 q 515 112 498 129 "},"Ì":{"x_min":56.5625,"x_max":399.921875,"ha":364,"o":"m 283 705 q 235 550 263 630 q 176 397 206 469 q 170 384 175 394 q 161 375 166 373 q 159 386 158 375 q 159 402 159 398 q 165 444 161 419 q 175 495 169 469 q 186 547 180 522 q 197 590 191 572 q 206 624 200 598 q 220 686 212 650 q 235 763 227 722 q 248 844 243 805 q 255 915 254 883 q 251 965 256 947 q 250 974 248 970 q 252 977 251 977 q 256 974 255 977 q 261 968 258 970 q 284 911 276 944 q 295 841 293 877 q 293 768 297 804 q 283 705 290 732 m 270 397 q 230 261 254 330 q 188 138 206 191 q 183 125 186 131 q 179 122 180 119 q 175 129 176 122 q 175 143 175 136 q 204 351 179 247 q 262 561 230 455 q 297 695 281 626 q 319 843 313 763 q 323 850 319 850 q 326 847 325 850 q 329 841 327 844 q 341 743 344 804 q 325 618 337 683 q 295 493 312 554 q 270 397 279 433 m 143 5 q 145 -2 147 -2 q 140 -1 143 -2 q 136 0 137 0 q 79 99 97 45 q 57 209 61 152 q 61 325 54 266 q 81 438 69 383 q 123 591 100 515 q 167 738 147 666 q 200 876 187 809 q 212 1004 213 943 q 215 1012 212 1011 q 218 1008 216 1012 q 220 1002 220 1004 q 233 864 240 936 q 206 718 226 793 q 161 565 186 643 q 118 411 136 487 q 100 309 106 362 q 96 203 94 256 q 109 99 98 150 q 143 5 120 48 m 158 98 q 186 5 165 54 q 188 -1 187 2 q 186 -5 188 -5 q 177 -2 183 -5 q 173 1 175 -1 q 145 40 155 22 q 127 98 134 58 q 124 137 125 113 q 125 183 123 161 q 129 220 126 205 q 138 236 133 236 q 142 229 140 236 q 145 213 144 222 q 147 195 147 204 q 148 183 148 186 q 152 138 151 159 q 158 98 154 118 m 337 1115 q 358 1103 349 1112 q 372 1083 366 1094 q 379 1061 377 1072 q 381 1042 381 1050 q 379 1024 381 1030 q 373 1019 377 1017 q 369 1022 372 1021 q 363 1030 366 1024 q 358 1052 361 1044 q 352 1066 355 1060 q 344 1080 348 1072 q 334 1100 340 1087 q 330 1112 331 1107 q 337 1115 329 1118 m 388 1061 q 368 1127 383 1097 q 316 1175 354 1157 q 270 1194 298 1183 q 217 1219 242 1204 q 175 1253 192 1233 q 162 1297 158 1272 q 169 1318 165 1310 q 176 1319 173 1326 q 214 1270 191 1286 q 262 1244 237 1254 q 312 1226 287 1235 q 356 1201 337 1218 q 388 1155 376 1185 q 399 1072 399 1125 q 398 1057 399 1065 q 394 1049 397 1049 q 388 1061 392 1049 m 341 1049 q 336 1043 341 1043 q 266 1055 308 1043 q 186 1089 224 1068 q 121 1139 148 1111 q 94 1197 94 1167 q 95 1208 94 1200 q 101 1217 95 1217 l 104 1217 q 156 1161 117 1186 q 236 1116 195 1136 q 309 1079 277 1096 q 341 1049 341 1062 m 290 1143 q 287 1137 291 1137 q 280 1136 283 1136 q 229 1143 256 1136 q 177 1162 201 1150 q 138 1194 154 1175 q 122 1239 122 1214 q 124 1269 122 1250 q 136 1294 127 1287 q 143 1297 142 1297 q 144 1293 144 1297 q 165 1235 144 1260 q 214 1194 187 1211 q 264 1165 241 1178 q 290 1143 287 1153 "},"Ç":{"x_min":22.09375,"x_max":722.75,"ha":681,"o":"m 694 848 q 707 769 712 808 q 683 699 701 730 q 638 647 665 668 q 587 623 612 626 q 570 624 572 620 q 586 633 569 627 q 639 675 612 641 q 672 762 666 709 q 665 814 675 788 q 637 859 655 840 q 594 893 619 879 q 541 911 569 907 q 431 902 481 919 q 345 860 381 886 q 285 809 308 834 q 256 776 262 784 q 181 659 213 722 q 129 526 150 595 q 127 516 129 525 q 122 499 125 508 q 118 482 120 490 q 113 475 115 475 q 111 484 111 476 q 111 500 111 491 q 113 518 112 509 q 113 529 113 526 q 150 672 126 602 q 213 799 173 741 q 311 898 252 857 q 448 957 369 940 q 511 961 476 962 q 580 949 545 961 q 645 913 615 937 q 694 848 675 890 m 652 795 q 647 731 659 762 q 612 677 634 700 q 562 644 590 654 q 509 644 534 634 q 507 647 508 644 q 512 651 506 651 q 550 658 529 648 q 589 686 572 668 q 617 730 607 705 q 623 782 627 755 q 606 816 619 801 q 572 839 593 830 q 525 851 551 848 q 472 848 500 854 q 374 802 419 838 q 294 712 329 765 q 236 595 259 659 q 204 466 212 530 q 197 371 197 418 q 203 284 197 325 q 222 211 209 243 q 255 158 236 179 q 310 124 277 136 q 381 111 343 112 q 461 122 419 111 q 545 158 504 134 q 552 161 548 159 q 556 161 555 163 q 554 156 559 159 q 545 148 550 152 q 469 104 509 120 q 388 83 429 87 q 309 88 347 79 q 240 122 270 97 q 193 182 211 147 q 165 260 175 218 q 155 348 156 302 q 158 438 154 394 q 186 581 163 509 q 245 715 208 654 q 333 822 281 776 q 448 886 384 868 q 513 893 480 894 q 575 880 547 891 q 625 847 604 869 q 652 795 645 826 m 436 -123 q 428 -163 436 -141 q 407 -202 420 -184 q 376 -232 394 -220 q 338 -244 358 -244 l 329 -240 q 337 -224 329 -234 q 355 -200 345 -213 q 373 -170 365 -187 q 381 -136 381 -154 q 368 -95 381 -112 q 330 -79 355 -79 q 286 -90 297 -79 q 268 -106 275 -101 q 244 -83 258 -97 q 217 -54 230 -69 q 195 -23 204 -38 q 186 4 186 -8 q 194 26 186 15 q 111 86 147 48 q 55 179 75 125 q 22 344 26 263 q 30 502 19 425 q 52 603 36 547 q 95 718 68 659 q 163 833 122 776 q 261 937 204 890 q 393 1004 320 987 q 533 1009 466 1020 q 651 963 600 998 q 719 873 702 927 q 722 861 720 870 q 720 850 723 852 q 716 857 719 848 q 711 868 713 865 q 579 968 652 947 q 433 972 505 990 q 297 909 361 955 q 195 805 233 862 q 96 595 130 707 q 65 366 62 484 q 77 252 66 312 q 118 138 87 193 q 212 40 152 75 q 230 47 220 44 q 248 56 240 51 q 261 70 256 62 q 266 93 266 79 q 286 71 277 87 q 294 47 294 55 q 284 27 294 33 q 260 18 273 22 q 236 7 247 13 q 226 -12 226 1 q 238 -50 226 -31 q 266 -81 251 -69 q 300 -48 272 -62 q 357 -34 327 -34 q 411 -54 387 -34 q 436 -123 436 -75 m 498 -137 q 480 -220 498 -183 q 432 -284 462 -258 q 362 -324 402 -309 q 279 -338 322 -338 q 260 -336 273 -338 q 233 -330 247 -334 q 209 -320 219 -326 q 197 -308 198 -315 l 200 -306 q 288 -297 243 -306 q 369 -268 333 -288 q 429 -213 405 -247 q 452 -126 452 -179 q 416 -34 452 -63 q 322 -5 380 -5 q 304 -17 312 -5 q 279 -29 297 -29 q 268 -27 273 -29 q 263 -18 263 -25 q 271 -4 263 -9 q 287 5 279 0 q 301 20 295 11 q 302 47 306 29 l 300 61 q 312 52 304 61 q 356 54 333 52 q 390 58 379 55 q 486 89 440 66 q 570 145 531 112 q 581 156 572 148 q 593 161 591 163 q 591 153 595 159 q 584 143 587 147 q 511 76 555 102 q 418 36 466 50 q 375 27 397 29 q 330 25 354 25 q 341 11 337 18 q 345 5 344 5 q 359 7 352 5 q 370 9 365 9 q 423 -3 400 9 q 463 -37 447 -16 q 489 -84 480 -58 q 498 -137 498 -111 m 361 -123 q 334 -179 361 -158 q 279 -213 308 -201 l 129 -276 l 133 -269 q 164 -249 141 -265 q 215 -213 187 -233 q 269 -173 243 -193 q 309 -141 295 -154 q 317 -129 320 -133 q 302 -127 313 -125 q 290 -138 295 -131 q 276 -144 284 -144 q 291 -107 276 -123 q 330 -91 306 -91 q 353 -100 345 -91 q 361 -123 361 -109 m 263 -261 q 240 -277 261 -269 q 195 -291 220 -284 q 147 -304 170 -298 q 113 -311 123 -309 q 176 -268 140 -280 q 248 -255 212 -255 q 263 -261 259 -255 "},"’":{"x_min":48.890625,"x_max":351.578125,"ha":339,"o":"m 298 838 q 261 755 288 800 q 195 683 234 711 q 188 677 194 680 q 176 677 181 675 q 177 685 175 679 q 180 694 179 691 q 202 739 187 711 q 226 787 218 768 q 239 834 234 805 q 244 890 244 862 q 237 943 244 918 q 215 980 230 968 q 213 983 213 980 q 215 986 213 984 q 226 983 218 988 q 261 959 245 976 q 286 922 276 943 q 299 879 295 901 q 298 838 302 857 m 279 647 q 210 576 250 608 q 138 529 170 544 q 125 526 130 523 q 125 533 122 529 q 131 540 129 537 q 213 643 172 591 q 287 759 255 695 q 316 836 305 795 q 312 925 326 877 q 313 930 308 930 q 319 926 312 930 q 350 863 347 902 q 343 784 354 825 q 314 705 333 743 q 279 647 295 668 m 55 497 q 54 493 55 494 q 54 491 54 493 l 52 490 q 50 494 50 490 l 50 498 q 51 588 47 550 q 64 654 55 626 q 86 704 73 683 q 113 745 98 726 q 150 797 131 768 q 177 859 168 827 q 186 924 187 891 q 168 987 186 957 q 169 995 162 995 q 175 994 173 995 q 179 991 176 993 q 224 927 216 963 q 222 854 231 891 q 190 780 212 816 q 145 716 168 744 q 92 626 116 680 q 55 497 68 572 m 102 529 q 91 500 95 513 q 83 466 87 486 q 82 459 83 463 q 80 454 81 454 q 75 462 77 454 q 72 472 73 466 q 70 511 69 495 q 81 554 70 527 q 93 574 86 562 q 107 596 100 586 q 122 613 115 607 q 131 616 129 619 q 131 599 136 612 q 125 580 127 586 q 113 556 119 568 q 102 529 108 544 "},"-":{"x_min":69.25,"x_max":611.953125,"ha":647,"o":"m 461 336 q 372 349 419 338 q 286 375 326 359 q 277 379 283 376 q 270 386 270 381 q 277 392 270 390 q 286 394 283 394 q 336 397 305 398 q 387 394 368 397 q 433 391 404 391 q 493 394 462 391 q 551 404 523 397 q 591 422 579 411 q 598 426 597 427 q 599 422 600 425 q 597 415 598 419 q 595 411 595 411 q 569 377 586 391 q 534 353 552 362 q 495 339 515 344 q 461 336 476 334 m 298 287 q 221 297 261 290 q 150 309 181 304 q 140 315 140 309 q 145 320 140 318 q 154 323 150 322 q 265 335 208 338 q 381 325 323 331 q 457 317 419 320 q 536 329 495 313 q 541 327 540 330 q 538 322 541 325 q 490 290 522 298 q 422 280 458 281 q 352 282 386 279 q 298 287 318 286 m 73 325 q 70 323 72 322 q 70 329 68 325 q 114 404 88 375 q 169 451 140 434 q 230 473 198 468 q 294 477 262 479 q 379 469 337 476 q 461 457 422 462 q 538 453 501 452 q 607 469 575 454 q 611 467 608 469 q 607 458 613 465 q 536 418 575 426 q 456 414 498 411 q 370 426 413 418 q 283 436 326 434 q 172 413 230 438 q 73 325 115 388 m 127 330 q 104 309 116 320 q 80 283 91 298 q 73 281 73 279 q 75 291 73 290 q 76 294 75 293 q 91 330 81 316 q 122 361 101 344 q 142 372 130 366 q 165 382 154 379 q 184 386 176 386 q 194 380 193 386 q 184 368 195 375 q 169 359 173 362 q 127 330 145 344 "},"Q":{"x_min":37.5,"x_max":975.078125,"ha":797,"o":"m 602 118 q 686 29 645 73 q 770 -52 727 -13 q 862 -124 813 -91 q 970 -177 911 -156 q 975 -184 975 -180 q 966 -187 975 -187 q 841 -153 902 -187 q 721 -64 779 -119 q 610 59 663 -9 q 507 198 556 129 q 413 331 458 268 q 330 437 369 394 q 327 443 329 440 q 325 448 325 445 q 366 420 341 441 q 414 372 390 398 q 460 319 438 345 q 494 277 481 293 q 563 432 540 348 q 587 600 587 516 q 581 677 587 634 q 560 757 576 720 q 515 818 544 793 q 438 843 486 843 q 344 822 386 843 q 270 770 302 802 q 211 697 237 737 q 163 616 184 657 q 155 618 151 593 q 196 711 169 663 q 261 797 223 759 q 343 861 298 836 q 441 886 388 886 q 530 857 493 886 q 591 786 568 829 q 625 695 613 744 q 636 605 636 645 q 606 414 636 506 q 520 241 577 322 l 570 163 q 687 369 648 261 q 726 601 726 477 q 714 736 726 669 q 672 856 702 802 q 588 943 641 909 q 454 976 536 976 q 324 949 381 976 q 222 877 266 922 q 147 772 179 832 q 95 650 115 713 q 65 520 75 586 q 56 397 56 454 q 62 322 56 356 q 72 256 68 288 q 70 243 75 237 q 62 256 65 250 q 40 359 43 304 q 37 466 37 413 q 61 661 37 563 q 136 836 84 758 q 268 964 187 915 q 463 1013 348 1013 q 602 979 544 1013 q 696 888 659 944 q 750 763 733 833 q 768 626 768 694 q 731 375 768 495 q 612 150 694 254 q 604 137 608 143 q 595 125 600 131 l 602 118 m 270 416 q 225 404 243 416 q 195 372 206 391 q 180 329 184 352 q 176 286 176 306 q 184 213 176 251 q 210 142 193 175 q 256 88 227 109 q 327 68 286 68 q 402 81 363 68 q 397 98 400 90 q 391 116 394 106 q 355 99 376 105 q 315 93 334 93 q 287 99 302 93 q 258 115 272 105 q 234 139 244 126 q 225 165 225 152 l 225 168 l 226 168 q 261 134 241 150 q 306 118 281 118 q 346 126 327 118 q 380 145 365 134 q 348 258 368 204 q 308 369 329 312 q 304 383 301 381 q 313 375 306 384 q 372 274 351 326 q 418 168 394 222 q 488 41 447 100 q 577 -66 530 -16 q 676 -155 626 -120 q 791 -223 726 -190 q 796 -227 797 -226 q 791 -229 795 -229 q 782 -230 787 -230 q 776 -230 777 -230 q 688 -202 736 -230 q 594 -135 640 -173 q 509 -56 548 -97 q 445 6 469 -16 l 443 9 q 388 1 415 2 q 333 0 361 0 q 231 18 275 0 q 158 70 187 37 q 115 149 129 104 q 101 247 101 194 q 106 300 101 272 q 120 355 111 329 q 146 404 130 381 q 183 443 162 427 q 187 445 186 444 q 191 448 190 448 q 194 447 194 448 q 188 436 194 443 q 180 427 183 430 q 138 352 152 395 q 125 268 125 309 q 138 179 125 223 q 177 99 151 134 q 241 41 202 63 q 330 19 280 19 q 379 25 355 19 q 425 40 402 31 l 409 65 q 369 50 390 55 q 327 44 348 44 q 245 68 279 44 q 188 128 211 91 q 156 208 166 165 q 145 291 145 251 q 152 343 145 316 q 171 390 158 369 q 206 424 184 411 q 261 437 229 437 q 322 409 290 437 q 381 343 354 381 q 425 265 408 305 q 443 201 443 226 l 438 194 q 430 197 434 193 q 423 206 426 201 q 418 218 420 212 q 415 226 416 223 q 393 276 406 244 q 362 339 380 308 q 321 393 344 370 q 270 416 298 416 m 81 340 q 80 372 80 355 q 80 402 80 388 q 99 583 80 487 q 161 761 118 679 q 277 897 205 843 q 452 951 348 951 q 568 921 522 951 q 643 844 615 891 q 682 738 670 797 q 694 623 694 680 q 684 497 694 556 q 647 380 673 438 q 635 359 637 358 q 637 381 633 361 q 655 481 648 431 q 662 584 662 531 q 654 689 662 632 q 622 797 645 747 q 560 880 600 847 q 458 913 520 913 q 341 889 391 912 q 251 827 290 866 q 185 736 212 787 q 140 626 158 684 q 107 479 116 554 q 91 338 98 405 q 86 320 88 316 q 81 340 84 323 m 504 98 q 532 75 513 91 q 572 41 551 59 q 611 6 593 23 q 636 -18 629 -9 q 693 -72 658 -43 q 769 -127 729 -101 q 850 -172 809 -152 q 922 -200 890 -193 q 933 -205 936 -202 q 920 -210 930 -208 q 900 -213 911 -212 q 886 -215 888 -215 q 770 -186 827 -215 q 661 -115 712 -158 q 570 -22 609 -73 q 509 72 530 27 q 506 81 508 75 q 504 91 504 88 l 504 98 "},"M":{"x_min":22.828125,"x_max":952.34375,"ha":967,"o":"m 322 1004 q 319 1016 316 1016 q 329 1010 323 1016 q 336 1002 334 1004 q 366 957 350 982 q 398 900 383 933 q 426 822 413 866 q 445 719 438 779 q 449 585 454 651 q 433 452 444 519 q 430 438 431 450 q 425 427 429 427 q 419 438 422 427 q 416 452 416 448 q 411 488 413 468 q 406 532 408 509 q 403 577 404 555 q 402 615 402 598 q 402 639 402 620 q 400 683 401 658 q 395 738 398 708 q 387 797 391 768 q 387 711 390 754 q 380 624 384 668 q 373 536 376 580 q 373 448 370 493 q 408 273 377 362 q 505 122 438 184 q 512 113 513 113 q 502 116 509 112 q 422 183 454 144 q 370 268 390 222 q 340 363 350 313 q 329 462 330 412 q 328 470 329 466 q 327 477 327 473 q 266 325 300 398 q 199 183 231 251 q 138 54 166 115 q 93 -56 109 -5 q 88 -63 90 -63 q 86 -59 86 -63 q 86 -54 86 -55 q 112 82 87 11 q 171 231 137 154 q 243 389 205 308 q 308 555 280 470 q 336 668 325 609 q 351 784 348 726 q 347 899 354 843 q 322 1004 340 955 m 494 204 q 534 144 509 172 q 572 260 544 202 q 635 376 600 318 q 709 493 670 434 q 782 611 748 551 q 824 704 807 654 q 849 806 841 754 q 853 909 857 858 q 832 1007 850 961 q 830 1016 827 1013 q 839 1013 833 1019 q 847 1004 845 1007 q 874 942 863 980 q 889 857 884 904 q 894 759 894 811 q 890 657 894 708 q 870 508 884 588 q 834 361 855 427 q 829 348 833 358 q 822 338 826 338 q 818 350 819 340 q 816 363 816 361 q 817 400 816 379 q 819 445 818 422 q 822 489 820 468 q 827 526 825 511 q 832 564 829 534 q 838 632 836 594 q 812 562 822 593 q 795 502 802 531 q 784 441 788 473 q 775 366 779 409 q 771 276 770 323 q 781 183 772 229 q 807 93 790 137 q 852 13 825 50 q 855 4 858 5 q 848 6 852 2 q 778 88 804 43 q 740 183 752 133 q 727 285 727 233 q 732 387 726 337 q 736 423 734 405 q 741 461 738 441 q 677 361 709 409 q 618 264 645 312 q 568 170 590 216 q 536 77 547 123 q 533 70 533 70 q 530 76 530 70 q 530 83 530 81 q 530 105 530 94 q 533 127 530 116 q 513 138 522 133 q 497 150 505 143 q 482 166 490 156 q 466 191 475 176 q 452 225 459 205 q 441 263 445 244 q 435 295 436 281 q 438 308 434 308 q 445 303 441 308 q 452 291 448 298 q 459 277 456 284 q 463 268 462 270 q 478 235 470 251 q 494 204 486 219 m 523 461 q 586 577 554 520 q 638 666 619 633 q 708 784 672 726 q 770 886 744 841 q 777 898 773 893 q 783 901 780 904 q 784 894 786 901 q 782 880 783 887 q 711 691 762 780 q 605 512 661 602 q 571 461 586 481 q 546 422 556 441 q 529 381 536 404 q 519 325 522 359 q 531 354 525 340 q 545 380 538 368 q 633 513 584 447 q 729 638 682 580 q 739 650 732 641 q 750 658 747 659 q 749 645 752 657 q 744 629 745 634 q 727 591 737 613 q 704 546 716 569 q 680 502 693 523 q 658 466 668 480 q 634 433 652 458 q 595 370 616 408 q 554 286 575 333 q 525 186 534 238 q 514 206 520 194 q 500 247 508 219 q 472 424 475 334 q 472 608 470 513 q 472 727 473 668 q 452 854 472 787 q 452 862 451 859 q 461 854 455 862 q 498 777 486 827 q 516 670 511 726 q 522 560 522 613 q 523 475 523 506 l 523 461 m 158 581 q 211 727 181 654 q 263 859 241 801 q 270 873 266 866 q 276 879 273 880 q 278 870 279 879 q 277 854 277 861 q 227 627 265 740 q 144 405 190 515 q 84 265 116 336 q 31 113 52 195 q 29 105 29 106 q 29 104 30 104 q 25 116 25 106 q 33 221 18 158 q 72 352 48 284 q 120 481 95 419 q 158 581 145 543 m 98 251 q 173 414 133 330 q 251 575 213 498 q 259 590 252 579 q 270 600 265 601 q 272 587 273 600 q 268 569 270 575 q 256 522 263 550 q 240 467 250 495 q 222 411 231 438 q 204 366 212 384 q 189 331 200 358 q 164 266 179 304 q 134 186 150 229 q 104 106 118 144 q 79 38 90 68 q 68 -4 69 8 q 62 -18 65 -18 q 59 -12 59 -18 q 56 -4 58 -6 q 50 44 50 12 q 58 112 51 76 q 75 186 65 148 q 98 251 86 223 m 926 370 q 904 245 919 308 q 879 134 890 183 q 870 118 873 116 q 867 124 868 118 q 865 137 866 130 q 868 323 854 230 q 898 513 882 416 q 916 634 909 572 q 916 766 923 695 q 919 775 916 772 q 922 771 922 775 q 926 766 923 768 q 950 682 947 736 q 950 570 954 629 q 938 458 945 512 q 926 370 930 404 m 297 901 q 289 955 294 930 q 277 1007 284 980 q 276 1013 276 1009 q 277 1018 276 1018 q 286 1013 281 1018 l 291 1008 q 316 967 306 987 q 329 901 326 947 q 329 857 330 883 q 324 807 327 830 q 316 766 320 783 q 306 751 311 750 q 302 759 304 751 q 300 776 301 766 q 300 796 300 786 q 300 811 300 807 q 300 856 300 834 q 297 901 300 877 m 805 919 q 800 966 804 944 q 790 1012 797 988 q 788 1019 788 1015 q 790 1022 787 1023 q 795 1018 793 1019 q 800 1015 797 1016 l 802 1012 q 827 975 818 993 q 837 915 836 957 q 834 876 837 900 q 825 831 830 852 q 814 795 820 809 q 802 783 808 780 q 800 792 800 784 q 800 809 800 800 q 801 826 800 818 q 802 838 802 834 q 806 880 805 861 q 805 919 807 900 m 854 97 q 872 54 862 73 q 894 15 883 34 q 897 10 895 13 q 895 6 898 6 q 889 8 891 6 q 884 11 887 9 q 880 13 882 12 q 848 43 861 29 q 823 93 836 56 q 815 127 819 106 q 809 168 811 148 q 809 201 808 187 q 816 215 811 215 q 820 209 818 215 q 825 195 823 202 q 829 179 827 187 q 833 169 832 172 q 844 131 840 150 q 854 97 848 113 "},"C":{"x_min":22.484375,"x_max":722.75,"ha":681,"o":"m 390 58 q 486 88 440 66 q 570 145 533 111 q 581 155 573 147 q 593 161 590 163 q 591 152 595 158 q 584 143 587 147 q 511 77 556 102 q 418 36 466 51 q 331 28 377 25 q 245 51 286 31 q 230 60 233 56 q 230 65 227 63 q 239 66 233 66 q 251 65 245 66 q 286 60 266 62 q 327 57 306 58 q 363 56 347 56 q 390 58 380 56 m 204 466 q 197 371 197 418 q 203 284 197 325 q 222 211 209 243 q 255 158 236 179 q 310 124 277 136 q 381 112 343 112 q 461 123 419 112 q 545 158 504 134 q 556 161 554 163 q 554 154 559 158 q 545 148 550 151 q 469 104 509 120 q 388 83 429 87 q 309 88 347 79 q 240 122 270 97 q 193 182 211 147 q 165 260 175 218 q 155 348 156 302 q 158 438 154 394 q 186 581 163 509 q 245 715 208 654 q 333 822 281 776 q 448 886 384 868 q 513 893 480 894 q 575 880 547 891 q 625 847 604 869 q 652 795 645 826 q 647 731 659 762 q 612 677 634 700 q 562 644 590 654 q 509 644 534 634 q 507 648 508 644 q 512 651 506 652 q 550 659 529 648 q 589 687 572 669 q 617 730 607 705 q 623 782 627 755 q 606 816 619 801 q 572 839 593 830 q 525 851 551 848 q 472 848 500 854 q 374 802 419 838 q 294 712 329 765 q 236 595 259 659 q 204 466 212 530 m 313 6 q 345 5 329 5 q 361 1 361 5 q 355 0 361 0 q 343 -1 350 -1 q 330 -1 337 -1 q 322 -1 323 -1 q 237 11 279 -1 q 160 46 195 23 q 97 102 125 69 q 55 179 69 136 q 23 344 27 263 q 30 502 19 425 q 52 603 36 547 q 95 718 68 659 q 163 833 122 776 q 261 937 204 890 q 393 1004 320 987 q 533 1009 466 1020 q 651 963 600 998 q 719 873 702 927 q 722 861 720 870 q 720 850 723 852 q 716 857 719 848 q 711 868 713 865 q 579 968 652 947 q 433 972 505 990 q 297 909 361 955 q 195 805 233 862 q 96 595 130 707 q 65 366 62 484 q 77 252 66 312 q 118 138 87 193 q 202 46 148 83 q 313 6 255 9 m 113 529 q 149 672 125 602 q 213 799 173 741 q 311 898 252 857 q 448 957 369 940 q 511 961 476 962 q 580 949 545 961 q 645 913 615 937 q 694 848 675 890 q 707 769 712 808 q 683 699 701 730 q 638 647 665 668 q 587 623 612 626 q 570 624 572 620 q 586 633 569 627 q 639 675 612 641 q 672 762 666 709 q 665 814 675 788 q 637 859 655 840 q 594 893 619 879 q 541 911 569 907 q 431 902 481 919 q 345 860 381 886 q 285 809 308 834 q 256 776 262 784 q 181 659 213 722 q 129 526 150 595 q 127 516 129 525 q 122 499 125 508 q 118 482 120 490 q 113 475 115 475 q 111 483 111 475 q 111 500 111 491 q 112 518 111 509 q 113 529 113 526 "},"œ":{"x_min":16.140625,"x_max":799.953125,"ha":790,"o":"m 720 566 q 738 531 732 552 q 744 486 745 511 q 733 436 743 462 q 702 384 723 409 q 613 311 662 337 q 526 286 565 286 q 514 288 513 286 q 526 294 515 290 q 593 329 551 304 q 669 402 634 355 q 703 478 698 441 q 688 534 708 515 q 650 553 672 551 q 581 529 627 555 q 510 470 541 505 q 451 397 479 436 q 430 377 436 377 q 433 402 425 377 q 479 493 448 451 q 551 563 511 534 q 608 593 581 584 q 656 600 634 601 q 693 589 677 598 q 720 566 709 580 m 669 519 q 675 459 687 500 q 616 376 662 418 q 567 338 590 352 q 508 312 544 323 q 488 208 493 259 q 490 125 483 156 q 499 100 491 112 q 521 82 506 88 q 559 77 536 76 q 618 93 583 79 q 631 95 629 97 q 622 86 633 93 q 569 59 597 66 q 517 54 541 51 q 475 70 493 56 q 452 108 458 84 q 443 210 441 156 q 459 314 444 263 q 500 410 473 365 q 566 487 526 455 q 669 519 643 548 m 637 481 q 597 463 632 493 q 545 406 565 438 q 513 334 526 373 q 561 363 540 347 q 602 394 583 379 q 634 441 625 412 q 637 481 643 470 m 348 76 q 256 18 304 37 q 165 0 208 0 q 97 16 127 0 q 47 68 68 33 q 20 159 27 104 q 19 288 12 213 q 47 411 25 344 q 109 534 69 477 q 204 629 148 591 q 333 668 259 668 q 416 647 381 668 q 469 591 450 626 q 487 604 479 598 q 504 616 495 609 q 570 645 534 636 q 639 654 605 655 q 704 642 673 654 q 759 607 736 630 q 793 550 782 584 q 797 469 804 515 q 779 413 791 436 q 753 374 768 390 q 724 348 738 358 q 698 330 709 338 q 689 329 691 326 q 694 338 687 331 q 720 363 707 348 q 744 395 733 377 q 763 432 755 412 q 772 473 772 452 q 736 586 772 547 q 645 620 700 625 q 533 577 591 615 q 417 456 458 530 q 365 308 376 383 q 354 230 359 272 q 353 148 348 188 q 379 70 358 108 q 447 4 400 33 q 468 0 456 0 l 477 0 q 466 -2 477 -2 q 445 0 454 -1 q 387 27 411 6 q 348 76 363 48 m 390 500 q 366 541 381 525 q 322 556 350 556 q 232 525 273 556 q 161 449 191 494 q 111 354 130 404 q 88 268 93 305 q 87 212 86 245 q 97 146 88 179 q 127 90 106 113 q 184 65 148 66 q 206 67 195 63 q 219 66 216 70 q 206 52 220 58 q 176 47 191 47 q 110 75 133 48 q 78 137 87 101 q 70 212 69 173 q 73 277 70 251 q 95 380 79 323 q 143 487 112 437 q 218 571 173 537 q 323 605 262 605 q 384 587 361 605 q 420 541 406 569 q 429 552 425 548 q 438 563 433 556 q 395 607 422 591 q 327 623 368 623 q 213 588 262 623 q 130 500 165 552 q 76 389 95 448 q 51 281 56 330 q 49 167 43 215 q 72 88 55 119 q 114 41 88 56 q 170 25 140 26 q 252 43 209 23 q 334 104 294 63 q 313 190 316 147 q 312 206 313 201 q 284 168 301 188 q 250 131 268 148 q 212 104 231 115 q 175 93 193 93 q 161 97 168 93 q 150 109 154 102 q 144 123 145 116 q 150 133 143 130 q 161 123 154 134 q 176 112 168 112 q 209 130 190 112 q 245 172 227 148 q 275 220 262 197 q 294 255 288 244 q 305 284 300 266 q 316 319 311 301 q 324 354 320 337 q 329 384 327 372 q 326 481 336 447 q 294 515 316 515 q 259 504 277 515 q 225 477 241 494 q 197 441 209 461 q 179 400 184 420 q 169 376 172 376 q 165 400 165 376 q 183 452 169 426 q 218 497 197 477 q 263 531 238 518 q 315 544 288 544 q 355 524 343 545 q 375 473 368 502 q 381 486 377 480 q 390 500 386 493 m 657 76 q 598 25 637 48 q 519 1 559 1 q 452 17 483 1 q 402 81 420 33 q 401 92 401 87 q 402 97 401 97 q 414 93 409 100 q 426 80 419 87 q 466 48 441 62 q 512 34 490 34 q 584 47 552 34 q 643 80 615 59 q 659 88 650 84 q 657 76 668 93 "},"!":{"x_min":59.640625,"x_max":374.578125,"ha":394,"o":"m 319 747 q 274 639 300 694 q 220 536 248 584 q 214 529 219 534 q 206 523 209 523 q 203 532 202 525 q 204 541 204 540 q 217 607 208 568 q 237 672 226 647 q 251 716 241 680 q 270 794 261 751 q 283 877 279 837 q 279 936 287 916 q 280 941 277 938 q 281 944 281 943 q 291 937 284 944 q 316 895 306 920 q 327 844 325 870 q 327 791 330 818 q 319 747 325 765 m 312 526 q 273 432 297 479 q 230 350 250 386 q 225 341 227 343 q 220 338 222 338 q 216 343 216 340 q 216 354 216 347 q 249 500 225 429 q 302 647 273 572 q 335 738 320 691 q 351 843 350 786 q 355 850 351 850 q 361 843 358 850 q 374 771 376 815 q 361 682 372 727 q 335 593 350 636 q 312 526 320 551 m 183 262 q 184 254 187 255 q 179 255 181 252 q 125 338 143 297 q 102 420 106 379 q 105 500 98 461 q 125 577 112 540 q 163 682 141 630 q 202 782 184 733 q 232 877 220 830 q 241 970 244 925 q 243 973 241 973 q 248 966 245 973 q 262 867 268 918 q 240 764 256 816 q 200 659 223 712 q 161 555 177 607 q 141 412 140 488 q 183 262 143 336 m 200 325 q 207 289 202 305 q 220 255 212 273 q 220 248 223 248 q 212 251 218 248 q 186 282 194 266 q 170 329 177 298 q 168 359 168 341 q 170 391 168 376 q 175 418 172 406 q 183 427 179 429 q 189 409 187 425 q 191 387 191 393 q 195 355 194 370 q 200 325 197 340 m 143 166 q 163 165 150 166 q 179 154 177 165 q 167 143 179 150 q 140 127 155 137 q 114 99 126 116 q 104 55 102 81 q 107 25 105 40 q 116 4 109 11 q 122 -3 119 0 q 125 -8 126 -6 q 119 -6 122 -8 q 113 -4 116 -4 q 73 27 86 6 q 59 68 61 48 q 77 136 58 108 q 143 166 95 165 m 195 118 q 206 120 202 120 q 211 112 211 120 q 204 91 212 101 q 189 70 197 81 q 179 44 181 58 q 188 9 177 30 q 198 -3 191 4 q 202 -9 205 -11 q 191 -9 200 -12 q 180 -5 183 -5 q 144 22 156 4 q 131 56 131 40 q 152 97 130 80 q 195 118 173 113 m 236 51 q 232 37 236 45 q 220 29 229 29 q 209 36 213 27 q 204 51 204 45 q 208 65 204 56 q 219 73 212 73 q 231 65 227 73 q 236 51 236 58 "},"ç":{"x_min":1.390625,"x_max":522.96875,"ha":468,"o":"m 490 533 q 494 481 500 505 q 475 439 488 458 q 442 409 461 420 q 406 395 423 397 q 399 397 404 395 q 405 402 394 398 q 436 430 420 409 q 458 481 452 451 q 441 537 465 513 q 380 565 418 561 q 315 558 344 569 q 265 531 286 547 q 231 502 244 516 q 215 483 219 487 q 129 336 165 419 q 122 320 129 334 q 113 306 116 306 q 111 311 111 306 q 111 322 111 316 q 113 333 112 327 q 113 340 113 338 q 134 428 122 386 q 170 506 147 470 q 229 568 193 541 q 318 608 265 594 q 361 612 336 612 q 412 604 387 612 q 458 579 437 597 q 490 533 479 562 m 443 500 q 438 470 444 484 q 422 443 433 455 q 400 422 412 430 q 375 412 387 413 q 361 413 363 409 q 366 420 359 418 q 381 429 372 422 q 397 447 390 437 q 409 469 405 456 q 409 494 413 481 q 391 506 406 502 q 343 504 375 511 q 295 477 318 497 q 255 427 273 456 q 224 361 237 397 q 205 291 211 326 q 192 190 194 231 q 206 127 190 150 q 259 102 222 105 q 365 116 297 100 q 376 118 375 119 q 375 113 379 116 q 366 108 372 111 q 318 86 344 94 q 268 77 293 77 q 220 81 243 76 q 184 101 198 87 q 152 178 156 129 q 159 279 148 227 q 180 361 168 320 q 213 438 193 402 q 260 500 233 473 q 323 541 287 527 q 362 548 341 548 q 400 543 383 548 q 428 526 416 537 q 443 500 440 515 m 386 -152 q 368 -236 386 -198 q 320 -299 350 -273 q 250 -339 290 -325 q 168 -354 211 -354 q 149 -352 162 -354 q 122 -345 136 -350 q 97 -336 108 -341 q 86 -323 86 -330 l 87 -322 q 175 -313 130 -322 q 257 -283 220 -304 q 317 -228 294 -262 q 340 -141 340 -194 q 304 -50 340 -79 q 209 -20 268 -20 q 192 -32 200 -20 q 168 -44 184 -44 q 152 -33 152 -44 q 161 -19 152 -23 q 178 -10 169 -15 q 193 2 187 -5 q 197 29 200 11 q 189 47 195 37 q 168 66 183 58 q 179 48 175 58 q 183 31 183 38 q 172 13 183 19 q 148 4 161 8 q 125 -6 136 0 q 113 -27 113 -13 q 126 -65 113 -47 q 154 -97 138 -84 q 187 -63 159 -77 q 245 -48 215 -48 q 299 -68 275 -48 q 323 -138 323 -88 q 316 -178 323 -156 q 295 -218 308 -200 q 263 -247 281 -236 q 226 -259 245 -259 l 216 -255 q 225 -239 216 -250 q 243 -215 233 -229 q 262 -186 254 -202 q 270 -151 270 -169 q 256 -111 270 -127 q 219 -94 243 -94 q 173 -105 184 -94 q 155 -122 162 -116 q 133 -98 147 -112 q 106 -68 119 -84 q 83 -36 93 -52 q 73 -8 73 -20 q 79 9 73 2 q 97 22 86 16 q 56 63 73 38 q 30 127 38 88 q 21 258 18 191 q 45 387 25 325 q 103 506 66 450 q 194 605 140 562 q 287 650 234 638 q 389 655 340 662 q 475 622 438 648 q 520 551 512 595 q 520 536 525 540 q 512 550 516 536 q 468 598 493 580 q 414 624 443 616 q 356 630 386 632 q 302 622 327 629 q 222 584 252 608 q 161 523 191 559 q 89 392 112 465 q 61 247 66 319 q 61 175 58 212 q 81 98 65 138 q 129 36 95 63 q 141 45 136 40 q 150 58 147 50 q 138 75 144 65 q 127 97 133 86 q 127 112 122 106 q 138 107 131 113 q 150 94 144 101 q 193 64 165 79 q 243 50 222 50 q 318 61 284 50 q 380 93 352 73 q 388 97 383 94 q 395 102 393 101 q 399 100 398 102 q 394 88 400 97 q 368 62 384 75 q 332 40 352 50 q 291 26 312 31 q 248 20 269 20 q 229 21 238 20 q 211 25 219 22 q 231 0 225 0 q 345 -38 305 0 q 386 -152 386 -77 m 248 -138 q 222 -195 248 -173 q 168 -229 195 -218 l 16 -291 l 20 -284 q 52 -264 29 -280 q 102 -228 75 -248 q 156 -188 130 -208 q 197 -156 183 -169 q 204 -143 208 -147 q 190 -143 201 -140 q 178 -153 184 -147 q 163 -159 172 -159 q 179 -122 163 -138 q 219 -106 195 -106 q 240 -115 233 -106 q 248 -138 248 -125 m 152 -276 q 129 -292 150 -284 q 84 -306 109 -300 q 34 -319 58 -313 q 1 -326 11 -325 q 63 -283 27 -295 q 137 -270 100 -270 q 152 -276 147 -270 "},"È":{"x_min":22.21875,"x_max":684.1875,"ha":645,"o":"m 659 962 q 668 963 669 969 q 663 952 666 957 q 631 919 651 933 q 588 897 611 905 q 543 884 565 888 q 504 880 520 880 q 415 888 461 880 q 323 907 369 897 q 313 909 320 907 q 306 915 306 912 q 311 922 304 919 q 322 925 319 925 q 347 929 331 927 q 381 933 363 932 q 416 934 400 934 q 443 934 431 934 q 506 932 473 932 q 568 934 538 932 q 621 944 597 937 q 659 962 645 951 m 679 1008 q 683 1007 686 1011 q 679 1001 680 1002 q 600 961 643 969 q 510 954 556 952 q 414 963 463 957 q 315 966 365 969 q 254 955 286 965 q 193 928 222 945 q 142 884 165 911 q 106 822 119 857 q 103 816 104 816 q 102 818 102 816 q 101 822 101 819 q 101 826 101 825 q 131 911 109 876 q 184 967 154 945 q 251 998 215 988 q 323 1009 287 1008 q 421 1006 373 1011 q 514 997 469 1001 q 601 993 559 993 q 679 1008 643 994 m 222 900 q 213 886 225 895 q 197 873 202 876 q 176 857 186 865 q 158 838 166 850 q 139 813 147 826 q 125 786 131 801 q 119 776 122 776 q 118 786 118 776 l 118 795 q 126 833 120 816 q 145 868 131 850 q 164 884 151 876 q 190 897 177 891 q 212 904 202 902 q 222 900 222 905 m 597 869 q 603 868 604 872 q 600 862 602 865 q 547 832 581 841 q 475 818 513 822 q 397 816 436 815 q 334 818 359 818 q 342 750 343 790 q 335 666 341 711 q 319 575 329 620 q 300 488 309 529 q 373 481 337 486 q 443 474 409 476 q 506 474 476 472 q 566 487 537 476 q 573 486 573 490 q 570 479 573 481 q 497 437 537 445 q 412 431 456 429 q 322 441 368 434 q 230 447 276 448 q 172 437 201 445 q 115 412 143 429 q 65 371 88 395 q 29 313 43 347 q 25 308 27 308 q 22 313 22 308 q 23 320 22 318 q 47 387 30 361 q 87 433 63 413 q 140 633 111 533 q 190 822 170 733 q 181 822 188 822 q 173 826 173 823 q 177 832 173 829 q 186 837 181 834 q 305 867 244 865 q 430 863 366 869 q 511 858 470 861 q 597 869 552 855 m 291 818 q 291 752 293 783 q 283 698 290 722 q 255 594 270 648 q 220 488 240 540 q 233 490 226 490 q 247 490 240 490 l 268 555 q 303 682 287 616 q 323 818 319 747 l 291 818 m 231 819 q 191 648 220 736 q 138 469 162 561 q 159 477 150 473 q 176 483 168 480 q 190 536 183 511 q 204 581 197 562 q 213 613 206 590 q 229 670 220 637 q 245 743 237 704 q 258 819 254 782 l 231 819 m 554 441 q 560 441 561 447 q 556 431 559 434 q 528 397 545 412 q 491 372 511 381 q 452 359 472 363 q 416 355 431 354 q 326 367 373 358 q 236 386 279 376 q 227 389 233 387 q 220 395 220 391 q 225 402 219 398 q 234 405 231 405 q 259 409 244 408 q 289 412 273 411 q 320 413 305 413 q 344 411 334 412 q 399 408 369 408 q 459 412 429 408 q 513 423 488 416 q 554 441 538 430 m 584 180 q 587 179 587 181 q 586 173 587 176 q 518 131 555 140 q 441 125 481 123 q 359 136 401 127 q 277 144 318 144 q 172 120 226 145 q 83 34 119 95 q 77 29 79 29 q 77 33 76 29 q 77 38 77 37 q 88 62 83 54 q 98 81 93 70 q 70 160 79 120 q 61 243 62 200 q 66 290 61 275 q 104 322 72 305 q 216 350 156 350 q 336 343 276 350 q 413 336 375 338 q 494 348 452 334 q 500 346 501 351 q 495 338 498 341 q 445 308 477 316 q 377 297 413 300 q 308 297 341 295 q 255 297 275 298 l 247 297 q 227 234 237 263 q 206 176 216 204 q 246 186 227 183 q 286 188 265 190 q 366 180 326 187 q 445 168 406 173 q 518 164 483 163 q 584 180 554 165 m 200 298 q 174 302 191 300 q 136 301 156 304 q 112 290 122 300 q 101 266 102 280 q 102 186 98 225 q 116 108 106 148 l 133 129 q 131 165 131 145 q 134 200 131 184 q 138 226 136 216 q 145 236 141 236 q 150 229 148 236 q 152 213 151 222 q 154 197 154 205 q 155 184 155 188 q 157 168 156 176 q 159 152 158 161 q 172 161 166 156 q 184 168 177 165 q 200 298 186 230 m 575 134 q 572 125 575 130 q 548 90 563 105 q 515 66 533 76 q 478 52 497 56 q 445 47 459 47 q 357 58 397 47 q 279 83 318 69 q 270 87 276 84 q 263 94 265 90 q 269 100 262 97 q 279 102 276 102 q 300 104 287 104 q 328 105 313 105 q 356 104 343 105 q 380 104 370 104 q 431 102 404 102 q 485 104 459 101 q 534 115 511 108 q 569 134 556 122 q 575 134 573 138 m 143 384 q 134 372 143 380 q 113 354 125 363 q 90 336 101 344 q 77 325 80 327 q 56 303 66 313 q 40 277 47 293 q 33 274 33 265 q 34 287 33 283 q 43 317 37 298 q 68 354 50 336 q 88 368 76 361 q 111 381 100 376 q 132 387 123 386 q 143 384 141 388 m 523 40 q 519 31 525 34 q 472 11 502 18 q 409 2 443 5 q 343 0 375 0 q 291 0 311 0 q 218 4 256 0 q 152 16 180 9 q 145 18 150 18 q 140 22 140 19 q 145 27 140 25 q 152 30 150 29 q 260 45 205 47 q 370 36 315 43 q 441 27 405 30 q 515 40 476 25 q 523 40 523 43 m 194 87 q 185 77 194 83 q 165 63 176 70 q 143 50 154 56 q 129 41 133 44 q 109 25 118 31 q 93 6 101 18 q 83 0 86 0 l 81 0 l 81 1 q 81 4 81 1 q 96 38 88 25 q 123 68 104 52 q 143 79 131 73 q 165 89 154 86 q 184 93 176 93 q 194 87 193 93 m 484 1119 q 505 1107 496 1116 q 519 1087 513 1098 q 526 1065 524 1076 q 528 1046 528 1054 q 526 1028 528 1034 q 520 1023 524 1021 q 516 1026 519 1025 q 510 1034 513 1028 q 505 1056 508 1048 q 499 1070 502 1064 q 491 1084 495 1076 q 481 1104 487 1091 q 477 1116 478 1111 q 484 1119 476 1122 m 535 1065 q 515 1131 530 1101 q 463 1179 501 1161 q 417 1198 445 1187 q 364 1223 389 1208 q 322 1257 339 1237 q 309 1301 305 1276 q 316 1322 312 1314 q 323 1323 320 1330 q 361 1274 338 1290 q 409 1248 384 1258 q 459 1230 434 1239 q 503 1205 484 1222 q 535 1159 523 1189 q 546 1076 546 1129 q 545 1061 546 1069 q 541 1053 544 1053 q 535 1065 539 1053 m 488 1053 q 483 1047 488 1047 q 413 1059 455 1047 q 333 1093 371 1072 q 268 1143 295 1115 q 241 1201 241 1171 q 242 1212 241 1204 q 248 1221 242 1221 l 251 1221 q 303 1165 264 1190 q 383 1120 342 1140 q 456 1083 424 1100 q 488 1053 488 1066 m 437 1147 q 434 1141 438 1141 q 427 1140 430 1140 q 376 1147 403 1140 q 324 1166 348 1154 q 285 1198 301 1179 q 269 1243 269 1218 q 271 1273 269 1254 q 283 1298 274 1291 q 290 1301 289 1301 q 291 1297 291 1301 q 312 1239 291 1264 q 361 1198 334 1215 q 411 1169 388 1182 q 437 1147 434 1157 "},"{":{"x_min":12.328125,"x_max":527.359375,"ha":375,"o":"m 490 1008 q 422 936 458 973 q 366 868 386 900 q 335 826 351 851 q 302 772 319 801 q 268 714 286 744 q 234 657 251 684 q 227 645 231 654 q 219 638 222 636 q 216 648 213 638 q 219 663 219 658 q 227 696 222 676 q 237 738 231 716 q 250 781 243 761 q 263 816 256 801 q 289 857 270 826 q 344 929 308 888 q 422 989 383 972 q 483 1018 461 1007 q 498 1020 500 1026 q 490 1008 497 1015 m 526 1061 q 523 1057 529 1059 q 515 1054 518 1054 q 409 999 468 1030 q 298 907 350 968 q 228 796 258 858 q 176 675 198 734 q 150 600 161 636 q 122 528 138 563 q 84 459 106 493 q 22 390 61 425 q 13 381 18 383 q 16 391 9 380 q 70 481 52 443 q 97 553 87 519 q 116 622 108 587 q 143 704 125 658 q 193 823 165 762 q 270 944 220 884 q 331 998 298 977 q 396 1032 363 1019 q 460 1052 429 1045 q 518 1063 491 1059 q 521 1063 520 1063 q 523 1062 522 1062 q 526 1061 525 1061 m 443 907 q 418 871 431 888 q 387 811 405 854 q 354 723 370 772 q 325 643 337 675 q 300 588 315 618 q 268 531 286 559 q 228 479 250 504 q 183 436 206 454 q 236 412 213 431 q 271 366 258 393 q 290 307 284 338 q 294 247 295 276 q 279 126 290 177 q 261 47 268 75 q 247 2 254 23 q 237 -33 241 -18 q 233 -50 234 -43 q 236 -61 231 -56 q 243 -63 240 -65 q 247 -66 247 -62 q 234 -76 247 -73 q 215 -72 223 -79 q 202 -54 208 -66 q 196 -25 197 -41 q 200 11 195 -8 q 219 95 208 52 q 243 184 230 137 q 253 261 251 219 q 245 339 255 304 q 213 397 236 375 q 150 416 190 419 q 200 373 180 401 q 226 322 220 345 q 231 244 234 281 q 218 172 227 206 q 195 107 208 138 q 169 47 181 76 q 163 36 169 44 q 152 30 158 29 q 150 39 150 30 q 150 52 150 48 q 154 88 151 68 q 162 129 158 108 q 170 169 166 150 q 176 204 173 188 q 179 222 176 208 q 184 257 183 237 q 183 300 186 277 q 168 343 180 322 q 137 366 156 358 q 101 380 118 375 q 168 449 141 409 q 215 534 194 488 q 254 630 236 580 q 296 729 272 680 q 354 827 320 779 q 437 915 387 875 q 447 918 447 923 q 443 907 447 913 m 170 530 q 171 523 172 530 q 168 509 170 516 q 163 493 166 501 q 159 483 161 486 q 130 436 144 455 q 102 403 116 418 q 72 377 87 388 q 40 354 58 366 q 28 345 37 351 q 19 343 19 340 q 31 363 22 350 q 54 393 41 377 q 77 422 66 409 q 93 443 88 436 q 114 470 102 454 q 137 501 126 487 q 157 524 148 515 q 170 530 166 533 m 323 -76 q 303 -124 316 -100 q 268 -164 290 -148 q 213 -182 245 -180 q 134 -163 180 -184 q 100 -136 113 -154 q 77 -98 86 -119 q 63 -57 68 -77 q 58 -20 58 -37 q 60 34 56 6 q 70 83 63 62 q 99 202 84 150 q 109 288 113 254 q 88 328 106 312 q 37 345 69 344 q 72 356 54 352 q 107 355 91 359 q 136 337 123 351 q 152 297 148 323 q 153 242 156 270 q 141 184 150 213 q 123 123 133 154 q 108 61 113 93 q 100 18 104 44 q 100 -34 97 -6 q 117 -88 104 -62 q 159 -133 130 -115 q 215 -151 190 -152 q 261 -138 241 -150 q 296 -107 281 -126 q 319 -72 311 -88 q 325 -69 326 -63 q 323 -76 325 -75 m 309 -43 q 293 -84 302 -66 q 261 -116 284 -101 q 226 -123 245 -126 q 190 -113 206 -120 q 164 -97 173 -106 q 163 -81 155 -87 q 179 -86 168 -79 q 205 -95 190 -93 q 255 -86 234 -101 q 282 -63 270 -77 q 304 -33 294 -50 q 309 -29 308 -27 q 311 -33 311 -30 q 311 -39 312 -36 q 309 -43 311 -43 "},"X":{"x_min":31.953125,"x_max":746.234375,"ha":688,"o":"m 62 16 q 58 4 59 4 q 54 9 55 5 q 54 16 54 13 q 62 140 50 80 q 100 259 75 201 q 161 372 126 318 q 237 479 197 427 l 268 518 q 156 766 211 645 q 36 973 101 886 q 31 982 31 979 q 37 982 33 984 q 44 977 41 979 q 122 895 87 943 q 188 793 158 848 q 245 678 219 738 q 298 556 272 618 l 322 586 q 300 629 315 600 q 263 697 284 659 q 220 776 243 734 q 173 854 197 818 q 129 920 150 891 q 93 962 108 950 q 86 973 81 970 q 98 972 88 975 q 157 933 126 961 q 217 870 188 905 q 269 798 245 836 q 306 730 293 761 l 355 626 l 370 643 q 311 769 343 705 q 234 894 279 833 q 229 901 230 901 q 230 904 227 901 q 241 898 230 904 q 322 811 280 872 q 401 679 363 751 q 543 852 472 762 q 658 1022 613 941 q 661 1027 659 1025 q 666 1027 662 1030 q 667 1022 668 1026 q 666 1016 666 1018 q 600 866 645 940 q 497 718 554 791 q 377 574 440 645 q 261 431 315 502 q 195 336 227 387 q 136 232 162 286 q 90 124 109 179 q 62 16 70 69 m 704 5 q 712 0 712 1 q 702 0 712 0 q 599 36 647 8 q 510 106 551 65 q 434 200 469 148 q 369 306 398 252 q 276 203 325 254 q 188 116 227 152 q 177 104 181 109 q 169 100 172 98 q 171 109 166 101 q 179 125 176 118 q 239 226 205 176 q 311 324 273 276 q 390 419 350 372 q 469 513 430 466 q 575 647 518 573 q 673 798 632 720 q 680 808 677 808 q 682 802 683 808 q 680 791 680 795 q 659 723 677 762 q 616 642 641 684 q 560 556 590 600 q 502 475 530 512 l 515 447 q 583 294 548 373 q 641 152 618 215 q 646 138 644 145 q 645 129 648 130 q 638 135 644 129 q 627 148 633 141 q 541 284 579 213 q 466 430 502 355 q 433 388 450 409 q 400 344 416 366 q 459 242 426 293 q 531 146 493 191 q 614 64 570 101 q 704 5 658 27 m 555 658 q 436 518 501 588 q 308 386 370 448 q 297 375 305 384 q 286 369 288 366 q 288 383 283 370 q 297 401 293 395 q 325 443 306 418 q 363 496 343 469 q 402 549 383 523 q 433 590 420 575 q 503 683 465 632 q 575 786 541 734 q 636 883 609 837 q 673 957 663 929 q 679 972 677 972 q 682 967 680 972 q 684 955 684 962 q 673 884 686 925 q 641 801 661 843 q 597 721 620 759 q 555 658 575 683 m 137 94 q 117 43 126 66 q 101 0 108 19 q 96 -6 100 -2 q 90 0 93 -11 q 90 51 86 23 q 113 123 94 79 q 131 161 120 140 q 155 202 143 183 q 178 233 168 220 q 194 241 188 245 q 191 231 194 240 q 185 213 188 223 q 178 195 181 204 q 173 183 175 186 q 155 137 163 156 q 137 94 147 118 m 647 97 q 691 59 669 76 q 736 26 712 41 q 743 20 738 23 q 745 15 747 16 q 738 13 743 12 q 726 15 733 13 q 701 22 712 19 q 678 31 690 25 q 653 47 666 37 q 623 73 640 56 q 592 109 609 87 q 560 152 575 130 q 537 190 545 173 q 533 209 529 206 q 541 205 534 211 q 555 192 548 200 q 568 177 562 184 q 577 168 575 170 q 613 130 597 147 q 647 97 630 113 "},"ô":{"x_min":16.140625,"x_max":559.359375,"ha":510,"o":"m 466 384 q 468 463 470 422 q 450 541 465 505 q 406 600 436 576 q 327 623 376 623 q 213 588 262 623 q 130 500 165 552 q 76 389 95 448 q 51 281 56 330 q 49 166 43 215 q 72 86 55 118 q 114 40 88 55 q 170 25 140 25 q 261 49 213 23 q 351 121 309 75 q 424 235 393 168 q 466 384 455 302 m 19 288 q 47 411 25 344 q 109 534 69 477 q 204 629 148 591 q 333 668 259 668 q 425 641 388 668 q 480 574 461 615 q 505 485 500 533 q 505 394 511 437 q 456 220 493 294 q 372 97 420 147 q 269 24 323 48 q 165 0 215 0 q 97 16 127 0 q 47 68 68 33 q 20 159 27 104 q 19 288 12 213 m 175 93 q 161 97 168 93 q 150 109 154 102 q 144 123 145 116 q 150 133 143 130 q 161 123 154 134 q 176 112 168 112 q 209 130 190 112 q 245 172 227 148 q 275 220 262 197 q 294 255 288 244 q 305 284 300 266 q 316 319 311 301 q 324 354 320 337 q 329 384 327 372 q 326 481 336 447 q 294 515 316 515 q 259 504 277 515 q 225 477 241 494 q 197 441 209 461 q 179 400 184 420 q 169 376 172 376 q 165 400 165 376 q 183 452 169 426 q 218 497 197 477 q 263 531 238 518 q 315 544 288 544 q 354 525 341 544 q 373 479 368 506 q 378 424 379 452 q 375 379 377 395 q 357 306 369 341 q 329 234 345 270 q 304 193 320 218 q 265 147 287 169 q 220 109 244 125 q 175 93 195 93 m 219 66 q 206 52 220 58 q 176 47 191 47 q 110 75 133 48 q 78 137 87 101 q 70 212 69 173 q 73 277 70 251 q 95 380 79 323 q 143 487 112 437 q 218 571 173 537 q 323 605 262 605 q 388 584 363 605 q 424 533 412 563 q 438 467 436 502 q 436 402 440 431 q 426 344 433 370 q 406 286 419 318 q 395 263 402 276 q 380 252 388 251 q 378 263 376 254 q 384 288 380 273 q 391 318 387 302 q 397 348 395 334 q 400 407 400 372 q 395 476 401 443 q 372 533 388 509 q 322 556 355 556 q 232 525 273 556 q 161 449 191 494 q 111 354 130 404 q 88 268 93 305 q 87 212 86 245 q 97 146 88 179 q 127 90 106 113 q 184 65 148 66 q 206 67 195 63 q 219 66 216 70 m 119 835 q 137 869 122 851 q 174 902 152 888 q 220 923 195 916 q 268 923 245 930 q 291 913 279 919 q 311 900 302 906 q 325 888 320 894 q 329 877 330 881 q 321 878 327 874 q 308 883 315 881 q 235 885 270 891 q 169 854 200 880 q 147 831 158 845 q 132 805 136 816 q 126 799 127 797 q 118 817 119 805 q 119 835 118 829 m 545 733 q 489 745 511 733 q 453 777 468 758 q 427 819 438 797 q 403 863 416 842 q 372 900 390 884 q 325 920 354 916 q 295 932 307 923 q 278 951 284 941 q 270 969 272 960 q 272 979 269 977 q 281 975 277 980 q 289 965 284 970 q 305 954 294 959 q 340 948 316 948 q 403 934 379 947 q 443 903 427 922 q 469 861 459 884 q 489 815 479 838 q 513 773 500 792 q 550 742 526 754 q 559 736 557 740 q 545 733 561 733 m 422 702 q 414 697 422 698 q 405 697 407 697 q 345 719 366 697 q 312 765 323 741 q 254 740 287 752 q 205 706 220 729 q 197 692 202 702 q 190 683 193 683 q 186 688 188 683 q 186 708 184 692 q 204 756 188 737 q 237 785 219 774 q 271 801 255 797 q 293 806 287 806 q 280 840 284 829 q 274 855 276 851 q 271 860 272 859 q 270 866 270 862 q 271 874 268 872 q 279 873 275 876 q 325 834 311 862 q 355 776 340 806 q 383 735 368 749 q 422 704 398 722 l 422 702 m 523 717 q 502 709 515 710 q 473 708 488 708 q 427 720 447 708 q 395 751 408 733 q 377 794 383 770 q 370 841 370 817 q 372 848 370 844 q 376 852 373 852 q 402 828 391 852 q 433 776 413 804 q 470 742 448 756 q 519 719 491 729 l 522 719 q 523 717 523 717 m 252 851 q 266 845 263 851 q 261 833 268 840 q 236 811 251 822 q 207 788 222 801 q 179 756 193 774 q 159 708 166 737 q 158 696 158 701 q 154 691 158 691 q 147 708 151 691 q 139 742 140 723 q 144 776 138 760 q 192 838 163 826 q 252 851 220 851 "},"#":{"x_min":19.453125,"x_max":841.734375,"ha":790,"o":"m 822 669 q 820 665 822 668 q 816 659 818 662 q 778 625 801 640 q 729 601 755 611 q 676 587 702 591 q 629 584 650 583 q 506 596 570 587 q 384 620 443 605 q 372 624 380 620 q 363 632 363 627 q 372 636 363 634 q 384 638 380 638 q 455 642 412 641 q 526 641 498 643 q 575 638 536 638 q 661 641 615 638 q 751 650 708 643 q 812 669 794 657 q 818 672 815 672 q 822 669 822 672 m 841 713 q 834 705 841 709 q 736 663 790 672 q 623 658 682 655 q 504 670 565 661 q 384 680 443 679 q 229 659 309 683 q 87 581 150 636 q 79 578 81 577 q 81 586 77 579 q 177 675 126 644 q 287 715 229 705 q 312 806 302 761 q 322 894 322 851 q 322 898 323 895 q 323 900 322 901 q 327 897 326 901 q 329 893 329 894 q 341 807 341 851 q 330 719 341 763 q 341 720 337 720 q 350 720 345 720 q 361 801 358 763 q 361 858 365 838 q 359 865 359 859 q 361 868 359 866 q 366 865 363 868 q 370 859 369 862 q 397 796 388 834 q 402 720 405 758 q 425 719 418 720 l 427 747 q 431 755 427 754 q 433 752 433 754 q 436 745 433 750 q 440 732 438 738 q 443 719 441 726 q 502 713 473 716 q 561 708 530 711 q 612 900 597 805 q 616 907 612 907 q 620 902 619 907 q 622 895 622 898 q 625 800 630 848 q 605 704 619 752 l 602 704 q 613 703 609 704 q 623 702 618 702 q 642 791 634 747 q 647 858 650 836 q 651 865 647 865 q 658 858 655 865 q 676 784 673 829 q 673 698 679 740 l 695 698 l 702 730 q 707 738 704 741 q 713 732 711 734 q 716 716 716 726 q 715 698 715 707 q 777 702 748 698 q 834 713 807 705 q 838 715 837 713 q 841 713 838 716 m 745 329 q 740 318 745 323 q 703 284 726 298 q 654 259 680 269 q 602 245 629 250 q 555 240 576 240 q 434 252 497 243 q 313 276 372 262 q 302 279 309 276 q 294 287 294 283 q 302 291 294 288 q 313 294 309 294 q 345 297 327 295 q 384 298 363 298 q 422 298 404 298 q 456 297 441 298 q 504 295 466 295 q 587 298 541 295 q 675 309 633 301 q 734 329 716 316 q 745 329 745 331 m 258 627 q 242 616 258 622 q 220 607 226 609 q 190 595 205 601 q 159 581 175 588 q 124 566 140 572 q 93 544 108 559 q 84 538 86 538 q 83 541 83 538 q 85 548 83 544 q 87 554 87 552 q 110 584 94 568 q 154 612 126 600 q 184 622 166 618 q 218 630 201 627 q 246 633 234 633 q 258 627 258 633 m 545 361 q 563 359 554 359 q 580 358 572 359 q 602 417 590 387 q 626 479 613 447 l 647 533 q 623 529 634 529 q 585 443 605 486 q 545 361 565 400 m 479 366 q 500 365 490 365 q 520 363 511 365 q 540 441 527 400 q 563 512 552 483 q 566 523 563 515 l 538 523 q 506 445 523 484 q 479 366 490 405 m 375 376 q 405 375 390 375 q 436 373 420 375 l 438 381 q 463 453 450 418 q 488 525 476 488 q 452 525 469 525 q 420 526 434 526 q 395 443 406 481 q 375 376 383 404 m 281 376 q 301 379 291 379 q 322 379 311 379 q 345 442 333 411 q 369 508 358 473 l 376 530 q 364 530 370 530 q 351 533 358 530 q 281 376 320 452 m 168 354 q 177 385 172 369 q 186 416 181 401 q 209 485 197 451 q 231 554 220 519 q 212 557 222 555 q 194 561 202 559 q 179 565 179 561 q 183 570 179 569 q 194 572 187 570 q 354 583 273 587 q 518 570 434 579 q 622 565 568 566 q 732 576 676 563 q 740 574 745 579 q 732 566 734 569 q 714 554 723 559 q 693 544 705 550 q 661 441 677 491 q 632 355 644 391 q 698 359 666 355 q 759 373 730 362 q 762 373 762 373 q 763 368 765 370 q 759 365 761 366 q 660 322 713 331 q 549 316 607 313 q 431 327 491 319 q 313 336 372 336 q 161 311 238 336 q 25 225 83 287 l 19 219 l 19 226 q 85 307 47 276 q 168 354 123 338 m 276 544 q 247 466 261 505 q 222 387 233 426 q 220 378 220 383 q 216 369 219 373 q 239 372 227 370 q 262 376 251 375 l 262 379 q 270 416 265 394 q 279 459 275 437 q 291 501 284 480 q 302 536 297 522 l 302 540 q 289 541 295 541 q 276 544 283 541 m 188 279 q 185 273 190 276 q 174 267 180 270 q 161 261 168 263 q 154 258 155 259 q 124 243 138 250 q 94 230 109 237 q 62 207 77 219 q 31 183 47 195 q 26 179 30 180 q 25 180 22 177 l 25 191 q 26 195 25 194 q 50 229 40 215 q 91 261 61 244 q 118 271 101 266 q 150 279 134 276 q 177 283 165 283 q 188 279 188 283 m 230 34 q 179 117 197 75 q 158 205 162 159 q 131 209 141 205 q 119 211 125 211 q 113 216 113 212 q 118 220 112 219 q 131 220 125 220 q 286 238 209 238 q 447 230 363 237 q 550 221 498 225 q 659 234 602 218 q 666 231 666 234 q 659 226 666 233 q 622 202 645 211 q 572 190 600 194 q 551 137 561 162 q 530 93 541 112 q 518 77 522 77 q 518 97 512 81 q 524 140 522 118 q 533 184 526 162 q 515 183 522 183 q 497 183 508 183 q 496 159 497 175 q 495 126 495 144 q 494 90 494 108 q 497 61 494 73 q 504 15 502 34 q 518 -19 506 -4 q 519 -25 519 -20 q 518 -29 519 -29 q 513 -25 515 -27 q 508 -22 511 -23 q 504 -19 505 -20 q 477 7 488 -5 q 463 61 466 20 q 464 90 463 73 q 467 125 465 108 q 472 159 469 143 q 479 183 475 175 l 441 183 q 445 75 438 127 q 475 -13 452 23 q 477 -22 477 -19 l 477 -25 q 473 -21 475 -25 q 469 -15 472 -18 q 417 75 433 25 q 402 184 401 126 q 362 187 380 186 q 329 188 344 188 q 317 188 323 188 q 304 190 311 188 q 293 168 298 179 q 286 148 288 158 q 273 134 277 133 q 271 140 270 134 q 272 154 272 147 q 272 172 272 162 q 273 191 273 181 q 259 193 266 191 q 245 194 252 194 q 248 156 245 176 q 252 118 251 137 q 279 34 261 72 q 277 25 284 23 q 266 30 269 26 q 238 66 248 50 q 222 119 229 83 q 220 155 219 134 q 225 195 222 176 q 210 197 218 197 q 195 200 202 197 q 205 115 197 156 q 236 36 213 73 q 236 31 240 30 q 230 34 231 31 "},"Ê":{"x_min":22.21875,"x_max":684.1875,"ha":645,"o":"m 659 962 q 668 963 669 969 q 663 952 666 957 q 631 919 651 933 q 588 897 611 905 q 543 884 565 888 q 504 880 520 880 q 415 888 461 880 q 323 907 369 897 q 313 909 320 907 q 306 915 306 912 q 311 922 304 919 q 322 925 319 925 q 347 929 331 927 q 381 933 363 932 q 416 934 400 934 q 443 934 431 934 q 506 932 473 932 q 568 934 538 932 q 621 944 597 937 q 659 962 645 951 m 679 1008 q 683 1007 686 1011 q 679 1001 680 1002 q 600 961 643 969 q 510 954 556 952 q 414 963 463 957 q 315 966 365 969 q 254 955 286 965 q 193 928 222 945 q 142 884 165 911 q 106 822 119 857 q 103 816 104 816 q 102 818 102 816 q 101 822 101 819 q 101 826 101 825 q 131 911 109 876 q 184 967 154 945 q 251 998 215 988 q 323 1009 287 1008 q 421 1006 373 1011 q 514 997 469 1001 q 601 993 559 993 q 679 1008 643 994 m 222 900 q 213 886 225 895 q 197 873 202 876 q 176 857 186 865 q 158 838 166 850 q 139 813 147 826 q 125 786 131 801 q 119 776 122 776 q 118 786 118 776 l 118 795 q 126 833 120 816 q 145 868 131 850 q 164 884 151 876 q 190 897 177 891 q 212 904 202 902 q 222 900 222 905 m 597 869 q 603 868 604 872 q 600 862 602 865 q 547 832 581 841 q 475 818 513 822 q 397 816 436 815 q 334 818 359 818 q 342 750 343 790 q 335 666 341 711 q 319 575 329 620 q 300 488 309 529 q 373 481 337 486 q 443 474 409 476 q 506 474 476 472 q 566 487 537 476 q 573 486 573 490 q 570 479 573 481 q 497 437 537 445 q 412 431 456 429 q 322 441 368 434 q 230 447 276 448 q 172 437 201 445 q 115 412 143 429 q 65 371 88 395 q 29 313 43 347 q 25 308 27 308 q 22 313 22 308 q 23 320 22 318 q 47 387 30 361 q 87 433 63 413 q 140 633 111 533 q 190 822 170 733 q 181 822 188 822 q 173 826 173 823 q 177 832 173 829 q 186 837 181 834 q 305 867 244 865 q 430 863 366 869 q 511 858 470 861 q 597 869 552 855 m 291 818 q 291 752 293 783 q 283 698 290 722 q 255 594 270 648 q 220 488 240 540 q 233 490 226 490 q 247 490 240 490 l 268 555 q 303 682 287 616 q 323 818 319 747 l 291 818 m 231 819 q 191 648 220 736 q 138 469 162 561 q 159 477 150 473 q 176 483 168 480 q 190 536 183 511 q 204 581 197 562 q 213 613 206 590 q 229 670 220 637 q 245 743 237 704 q 258 819 254 782 l 231 819 m 554 441 q 560 441 561 447 q 556 431 559 434 q 528 397 545 412 q 491 372 511 381 q 452 359 472 363 q 416 355 431 354 q 326 367 373 358 q 236 386 279 376 q 227 389 233 387 q 220 395 220 391 q 225 402 219 398 q 234 405 231 405 q 259 409 244 408 q 289 412 273 411 q 320 413 305 413 q 344 411 334 412 q 399 408 369 408 q 459 412 429 408 q 513 423 488 416 q 554 441 538 430 m 584 180 q 587 179 587 181 q 586 173 587 176 q 518 131 555 140 q 441 125 481 123 q 359 136 401 127 q 277 144 318 144 q 172 120 226 145 q 83 34 119 95 q 77 29 79 29 q 77 33 76 29 q 77 38 77 37 q 88 62 83 54 q 98 81 93 70 q 70 160 79 120 q 61 243 62 200 q 66 290 61 275 q 104 322 72 305 q 216 350 156 350 q 336 343 276 350 q 413 336 375 338 q 494 348 452 334 q 500 346 501 351 q 495 338 498 341 q 445 308 477 316 q 377 297 413 300 q 308 297 341 295 q 255 297 275 298 l 247 297 q 227 234 237 263 q 206 176 216 204 q 246 186 227 183 q 286 188 265 190 q 366 180 326 187 q 445 168 406 173 q 518 164 483 163 q 584 180 554 165 m 200 298 q 174 302 191 300 q 136 301 156 304 q 112 290 122 300 q 101 266 102 280 q 102 186 98 225 q 116 108 106 148 l 133 129 q 131 165 131 145 q 134 200 131 184 q 138 226 136 216 q 145 236 141 236 q 150 229 148 236 q 152 213 151 222 q 154 197 154 205 q 155 184 155 188 q 157 168 156 176 q 159 152 158 161 q 172 161 166 156 q 184 168 177 165 q 200 298 186 230 m 575 134 q 572 125 575 130 q 548 90 563 105 q 515 66 533 76 q 478 52 497 56 q 445 47 459 47 q 357 58 397 47 q 279 83 318 69 q 270 87 276 84 q 263 94 265 90 q 269 100 262 97 q 279 102 276 102 q 300 104 287 104 q 328 105 313 105 q 356 104 343 105 q 380 104 370 104 q 431 102 404 102 q 485 104 459 101 q 534 115 511 108 q 569 134 556 122 q 575 134 573 138 m 143 384 q 134 372 143 380 q 113 354 125 363 q 90 336 101 344 q 77 325 80 327 q 56 303 66 313 q 40 277 47 293 q 33 274 33 265 q 34 287 33 283 q 43 317 37 298 q 68 354 50 336 q 88 368 76 361 q 111 381 100 376 q 132 387 123 386 q 143 384 141 388 m 523 40 q 519 31 525 34 q 472 11 502 18 q 409 2 443 5 q 343 0 375 0 q 291 0 311 0 q 218 4 256 0 q 152 16 180 9 q 145 18 150 18 q 140 22 140 19 q 145 27 140 25 q 152 30 150 29 q 260 45 205 47 q 370 36 315 43 q 441 27 405 30 q 515 40 476 25 q 523 40 523 43 m 194 87 q 185 77 194 83 q 165 63 176 70 q 143 50 154 56 q 129 41 133 44 q 109 25 118 31 q 93 6 101 18 q 83 0 86 0 l 81 0 l 81 1 q 81 4 81 1 q 96 38 88 25 q 123 68 104 52 q 143 79 131 73 q 165 89 154 86 q 184 93 176 93 q 194 87 193 93 m 187 1178 q 205 1212 190 1194 q 242 1245 220 1231 q 288 1266 263 1259 q 336 1266 313 1273 q 359 1256 347 1262 q 379 1243 370 1249 q 393 1231 388 1237 q 397 1220 398 1224 q 389 1221 395 1217 q 376 1226 383 1224 q 303 1228 338 1234 q 237 1197 268 1223 q 215 1174 226 1188 q 200 1148 204 1159 q 194 1142 195 1140 q 186 1160 187 1148 q 187 1178 186 1172 m 613 1076 q 557 1088 579 1076 q 521 1120 536 1101 q 495 1162 506 1140 q 471 1206 484 1185 q 440 1243 458 1227 q 393 1263 422 1259 q 363 1275 375 1266 q 346 1294 352 1284 q 338 1312 340 1303 q 340 1322 337 1320 q 349 1318 345 1323 q 357 1308 352 1313 q 373 1297 362 1302 q 408 1291 384 1291 q 471 1277 447 1290 q 511 1246 495 1265 q 537 1204 527 1227 q 557 1158 547 1181 q 581 1116 568 1135 q 618 1085 594 1097 q 627 1079 625 1083 q 613 1076 629 1076 m 490 1045 q 482 1040 490 1041 q 473 1040 475 1040 q 413 1062 434 1040 q 380 1108 391 1084 q 322 1083 355 1095 q 273 1049 288 1072 q 265 1035 270 1045 q 258 1026 261 1026 q 254 1031 256 1026 q 254 1051 252 1035 q 272 1099 256 1080 q 305 1128 287 1117 q 339 1144 323 1140 q 361 1149 355 1149 q 348 1183 352 1172 q 342 1198 344 1194 q 339 1203 340 1202 q 338 1209 338 1205 q 339 1217 336 1215 q 347 1216 343 1219 q 393 1177 379 1205 q 423 1119 408 1149 q 451 1078 436 1092 q 490 1047 466 1065 l 490 1045 m 591 1060 q 570 1052 583 1053 q 541 1051 556 1051 q 495 1063 515 1051 q 463 1094 476 1076 q 445 1137 451 1113 q 438 1184 438 1160 q 440 1191 438 1187 q 444 1195 441 1195 q 470 1171 459 1195 q 501 1119 481 1147 q 538 1085 516 1099 q 587 1062 559 1072 l 590 1062 q 591 1060 591 1060 m 320 1194 q 334 1188 331 1194 q 329 1176 336 1183 q 304 1154 319 1165 q 275 1131 290 1144 q 247 1099 261 1117 q 227 1051 234 1080 q 226 1039 226 1044 q 222 1034 226 1034 q 215 1051 219 1034 q 207 1085 208 1066 q 212 1119 206 1103 q 260 1181 231 1169 q 320 1194 288 1194 "},")":{"x_min":1.390625,"x_max":283.359375,"ha":294,"o":"m 70 20 q 43 -15 56 5 q 13 -56 30 -36 q 9 -63 12 -61 l 4 -69 q 4 -55 -1 -63 q 20 -13 9 -31 q 40 22 30 5 q 59 61 50 43 q 81 98 69 79 q 86 106 84 101 q 91 109 88 112 q 93 95 95 108 q 87 68 91 83 q 77 38 83 52 q 70 20 72 25 m 263 300 q 182 86 236 175 q 41 -63 129 -1 q 37 -67 40 -65 q 31 -69 34 -69 q 31 -64 29 -66 q 37 -56 34 -62 q 144 98 97 9 q 216 288 191 187 q 236 456 237 373 q 225 622 236 540 q 199 785 215 704 q 175 945 183 866 l 172 951 q 173 958 168 958 q 180 950 175 958 q 233 800 209 879 q 270 639 256 722 q 283 471 283 556 q 263 300 283 386 m 41 77 q 35 64 38 70 q 29 61 31 58 q 27 70 26 62 q 29 80 29 77 q 50 209 37 148 q 77 344 62 269 q 90 434 86 379 q 100 547 95 488 q 108 661 104 605 q 118 754 112 716 q 118 757 116 755 q 123 761 118 761 q 125 757 125 761 q 125 751 125 754 q 140 616 134 683 q 144 484 147 550 q 114 278 141 379 q 41 77 87 177 m 168 345 q 168 417 168 384 q 168 481 168 450 q 167 545 168 512 q 165 615 166 577 q 159 677 163 641 q 152 752 155 713 q 149 825 150 790 q 154 888 148 861 q 154 896 154 891 q 159 901 155 901 l 159 898 q 161 888 159 894 q 173 836 166 870 q 186 762 180 802 q 198 678 193 722 q 208 596 204 634 q 214 530 212 558 q 215 493 216 502 q 203 415 211 454 q 183 344 195 376 q 177 329 180 341 q 169 318 173 318 q 167 331 166 318 q 168 345 168 344 "},"Å":{"x_min":27.78125,"x_max":869.265625,"ha":861,"o":"m 481 994 q 474 1007 479 998 q 472 1019 469 1016 q 481 1018 475 1022 q 488 1012 487 1013 q 535 962 513 994 q 574 892 556 930 q 605 812 591 854 q 627 733 619 770 q 663 552 648 641 q 677 369 677 463 q 678 352 677 366 q 673 336 679 338 q 664 350 669 338 q 658 365 659 361 q 628 482 641 416 q 604 602 615 548 q 588 682 595 644 q 572 757 581 720 q 552 829 563 793 q 523 907 540 866 q 514 926 520 912 q 501 954 508 940 q 488 979 494 968 q 481 994 483 991 m 815 -34 q 794 -24 800 -26 q 773 -12 788 -22 q 712 38 740 6 q 662 106 684 69 q 622 186 640 144 q 593 270 605 229 q 527 249 565 252 q 456 245 488 245 q 377 248 416 245 q 297 251 337 251 q 224 111 258 179 q 170 -13 190 44 q 169 -20 170 -15 q 165 -25 168 -25 q 161 -15 161 -25 q 161 -2 161 -5 q 188 121 161 52 q 248 256 215 190 l 227 258 q 204 204 219 238 q 177 131 190 169 q 153 59 163 94 q 143 4 143 25 q 138 0 143 0 q 130 9 133 0 q 125 29 127 18 q 122 52 123 40 q 122 68 122 63 q 134 170 122 116 q 168 268 147 223 l 150 270 q 126 210 137 240 q 106 148 115 180 q 105 141 106 145 q 101 138 104 137 q 97 152 98 144 q 97 165 97 159 q 118 277 97 223 q 131 291 125 291 q 190 301 161 300 q 252 302 220 302 q 390 292 322 302 q 526 281 458 281 q 587 287 559 281 l 584 309 q 552 304 569 305 q 519 302 534 302 q 407 313 465 302 q 297 340 350 325 q 286 345 294 343 q 277 351 277 347 q 286 356 277 354 q 297 358 294 358 q 335 360 316 359 q 373 361 354 361 q 437 360 405 361 q 502 359 469 359 q 537 359 519 359 q 572 361 555 359 l 569 376 l 551 376 q 418 388 484 376 q 286 401 352 401 q 185 387 229 401 q 110 355 141 373 q 59 319 79 337 q 31 293 40 301 q 29 291 29 291 q 27 294 27 291 q 29 297 27 295 q 90 378 54 345 q 179 427 126 411 q 288 651 231 540 q 406 870 344 762 q 412 879 408 873 q 420 886 416 886 q 422 883 422 884 l 422 880 q 420 863 422 869 q 343 647 394 751 q 237 441 291 543 l 263 443 q 285 479 268 451 q 322 536 302 506 q 359 591 343 566 q 380 615 376 615 l 381 611 q 373 580 381 604 q 354 529 365 556 q 332 477 343 501 q 318 443 322 452 q 334 442 326 443 q 351 441 343 441 q 404 546 376 491 q 454 658 433 601 q 482 773 475 715 q 473 888 490 832 q 470 861 473 882 q 461 817 466 840 q 450 777 455 794 q 438 759 444 759 q 435 765 434 759 q 436 772 436 770 q 441 843 436 808 q 445 915 445 879 q 430 1009 445 963 q 426 1021 430 1011 q 429 1032 422 1032 q 438 1025 431 1032 q 466 987 452 1011 q 490 936 479 963 q 511 883 501 909 q 526 838 520 857 q 556 718 544 779 q 577 597 568 658 q 595 476 586 537 q 618 355 605 415 q 647 241 630 297 q 690 136 665 186 q 747 43 715 86 q 823 -30 780 1 q 828 -39 830 -37 q 815 -34 826 -41 m 812 83 q 811 75 813 75 q 804 80 808 76 q 797 90 801 84 q 794 97 794 95 q 741 221 761 158 q 711 349 722 284 q 692 479 700 413 q 674 614 684 545 q 647 754 663 683 q 600 898 630 825 q 595 908 598 901 q 595 916 593 915 q 602 912 598 916 l 608 907 q 662 811 638 870 q 704 683 686 751 q 734 548 722 615 q 752 431 745 481 q 776 265 763 352 q 808 100 788 177 l 812 83 m 400 436 q 479 426 440 431 q 559 418 519 420 q 533 563 544 491 q 512 711 522 636 q 463 570 494 638 q 400 436 431 502 m 857 -19 q 808 4 829 -6 q 772 37 787 16 q 735 101 748 69 q 713 161 722 133 q 709 186 711 172 q 709 200 707 200 q 723 181 715 200 q 738 151 732 163 q 791 64 759 108 q 861 -6 823 20 q 868 -19 872 -16 q 857 -19 863 -22 m 36 247 q 33 247 36 247 l 31 247 q 33 255 31 251 q 36 263 34 259 q 57 299 47 287 q 91 325 68 311 q 130 341 105 333 q 170 350 155 350 q 178 349 173 350 q 183 344 183 348 q 168 333 183 340 q 150 323 154 326 q 72 275 97 291 q 36 247 47 258 m 330 1181 q 334 1212 330 1194 q 343 1247 337 1230 q 360 1279 350 1265 q 384 1295 371 1293 l 389 1294 l 389 1291 q 375 1253 383 1270 q 368 1212 368 1236 q 378 1157 368 1183 q 407 1111 389 1131 q 452 1080 426 1091 q 507 1069 477 1069 q 604 1105 564 1069 q 644 1198 644 1141 q 632 1249 644 1234 q 619 1276 621 1263 q 646 1265 636 1276 q 662 1240 655 1255 q 670 1210 668 1226 q 672 1181 672 1194 q 658 1115 672 1144 q 621 1065 644 1086 q 566 1033 597 1044 q 500 1022 534 1022 q 434 1034 465 1022 q 381 1066 404 1045 q 344 1116 358 1087 q 330 1181 330 1145 m 433 1145 q 439 1151 439 1151 q 441 1151 439 1151 q 468 1138 457 1143 q 497 1134 480 1134 q 548 1152 526 1134 q 569 1201 569 1170 q 552 1242 569 1226 q 511 1258 534 1258 q 516 1265 511 1262 q 529 1270 522 1268 q 543 1273 536 1272 q 552 1275 550 1275 q 607 1250 587 1275 q 626 1193 626 1226 q 592 1118 626 1147 q 515 1090 558 1090 q 490 1093 504 1090 q 464 1104 476 1097 q 442 1121 451 1111 q 433 1145 433 1131 m 464 1252 q 472 1218 464 1238 q 497 1198 480 1198 q 512 1211 512 1198 q 500 1222 512 1220 q 480 1225 489 1225 l 480 1227 q 494 1237 480 1234 q 515 1240 508 1240 q 541 1231 529 1240 q 554 1206 554 1222 q 540 1175 554 1187 q 507 1162 526 1162 q 483 1170 494 1162 q 462 1190 472 1179 q 447 1215 452 1202 q 441 1240 441 1229 q 454 1292 441 1268 q 486 1334 466 1316 l 487 1331 q 471 1293 477 1312 q 464 1252 464 1273 m 480 1373 q 475 1356 480 1363 q 466 1341 471 1348 q 436 1279 447 1311 q 415 1213 425 1247 l 409 1211 q 401 1220 402 1211 q 400 1237 400 1230 q 407 1274 400 1251 q 425 1318 414 1297 q 450 1356 436 1340 q 480 1373 465 1373 "},"ø":{"x_min":15.796875,"x_max":508.09375,"ha":510,"o":"m 51 -22 q 50 -29 50 -25 q 48 -30 51 -33 q 47 -25 45 -29 q 40 26 40 0 q 45 80 41 52 l 43 76 q 18 164 25 112 q 19 288 12 216 q 47 411 25 344 q 109 534 69 477 q 204 629 148 591 q 333 668 259 668 q 361 662 344 668 q 388 654 377 657 q 422 720 406 687 q 425 726 422 726 q 427 722 427 726 q 427 718 427 719 q 395 613 422 666 q 330 504 368 559 q 250 394 293 450 q 169 284 206 338 q 125 212 147 251 q 87 134 104 173 q 60 54 70 94 q 51 -22 50 13 m 363 462 q 288 356 327 409 q 205 256 250 304 q 195 250 202 256 q 186 244 188 243 q 188 256 184 247 q 194 268 191 265 q 212 297 201 280 q 236 334 223 315 q 260 370 248 352 q 280 400 272 387 q 297 425 284 405 q 326 470 309 444 q 361 526 343 495 q 395 586 379 556 q 422 640 411 615 q 436 679 433 665 q 438 687 436 684 q 440 690 440 688 q 443 686 443 690 q 443 679 443 682 q 443 654 444 668 q 440 626 443 641 q 473 584 459 611 q 495 527 487 558 q 506 461 504 495 q 505 394 509 426 q 456 220 493 294 q 372 97 420 147 q 270 24 325 48 q 165 0 215 0 q 120 2 137 0 q 87 20 104 5 q 83 -8 84 5 q 80 -37 81 -22 q 78 -42 79 -38 q 75 -43 77 -45 q 70 -37 70 -41 l 70 -34 q 66 -16 68 -25 q 65 1 65 -8 q 67 23 65 11 q 75 54 69 36 q 84 79 77 62 q 100 111 91 95 q 115 136 108 126 q 126 143 123 145 q 126 137 127 143 q 122 124 125 131 q 118 109 120 116 q 113 100 115 102 q 104 75 109 86 q 97 56 100 65 q 129 31 112 37 q 170 25 147 25 q 261 49 213 23 q 351 121 309 75 q 424 235 393 168 q 466 384 455 302 q 467 467 470 422 q 447 548 463 512 q 433 500 443 525 q 439 450 440 475 q 436 402 438 426 q 426 344 433 370 q 406 286 419 318 q 395 263 402 276 q 380 252 388 251 q 378 263 376 254 q 384 288 380 273 q 391 318 387 302 q 397 348 395 334 q 402 388 400 366 q 401 434 404 411 l 376 394 q 375 386 376 390 q 375 379 375 383 q 329 234 362 306 q 304 193 320 218 q 265 147 287 169 q 220 109 244 125 q 175 93 195 93 q 162 95 170 93 q 154 85 158 90 q 144 75 150 80 q 184 65 159 65 q 206 68 195 65 q 219 66 216 70 q 206 52 220 58 q 176 47 191 47 q 130 58 150 47 l 126 54 q 116 55 118 54 q 115 56 113 56 q 118 61 116 56 l 126 76 l 126 77 q 215 222 166 152 q 316 361 265 291 q 381 452 350 405 q 441 558 413 500 l 427 577 q 397 514 416 547 q 363 462 379 481 m 165 400 q 183 452 169 426 q 218 498 197 477 q 263 531 238 519 q 315 544 288 544 l 318 544 l 326 555 q 225 530 268 561 q 154 453 183 500 q 109 355 125 406 q 88 268 93 304 q 85 239 86 255 q 86 205 84 223 q 115 261 100 233 q 150 316 131 288 q 223 418 186 369 q 297 515 261 466 l 294 515 q 259 504 277 515 q 225 477 241 494 q 197 441 209 461 q 179 400 184 420 q 169 376 172 376 q 165 400 165 376 m 51 281 q 46 194 44 233 q 55 126 48 155 q 72 172 61 148 q 70 229 69 201 q 73 277 70 256 q 95 380 79 323 q 143 487 112 437 q 218 571 173 537 q 323 605 262 605 q 338 603 330 605 q 355 598 347 601 q 366 616 363 609 q 345 621 356 619 q 327 623 334 623 q 213 588 262 623 q 130 500 165 552 q 76 389 95 448 q 51 281 56 330 m 269 234 q 223 171 247 202 q 176 112 200 140 q 209 130 190 112 q 245 172 227 148 q 276 220 262 197 q 294 255 290 244 q 309 293 304 275 q 287 260 298 275 q 269 234 276 245 "},"â":{"x_min":16.609375,"x_max":651.359375,"ha":608,"o":"m 559 488 q 522 377 548 433 q 472 273 495 322 q 466 263 470 270 q 458 256 461 256 q 454 266 454 258 q 454 276 454 273 q 459 306 455 288 q 465 342 462 323 q 471 378 468 361 q 479 409 475 395 q 500 491 491 456 q 512 552 508 525 q 517 605 516 580 q 513 659 518 630 q 515 673 512 670 q 522 670 518 675 q 529 662 526 666 q 561 579 552 625 q 559 488 569 534 m 593 581 q 611 512 611 555 q 602 424 611 469 q 581 337 594 379 q 563 270 569 295 q 533 173 552 222 q 500 87 513 125 q 495 78 498 83 q 490 73 493 73 q 487 79 487 73 q 487 88 487 84 q 504 238 483 165 q 548 386 525 311 q 575 479 562 431 q 586 584 587 527 q 587 590 586 590 l 593 581 m 462 605 q 318 506 377 570 q 227 361 259 441 q 206 296 213 325 q 195 234 200 268 q 200 220 194 227 q 211 220 205 213 q 275 298 236 251 q 352 398 313 345 q 422 505 391 451 q 462 605 454 559 m 369 134 q 329 80 348 105 q 286 36 309 55 q 233 6 262 18 q 166 -5 204 -4 q 71 26 104 -8 q 26 111 38 61 q 17 214 13 161 q 31 302 20 268 q 68 395 47 351 q 114 474 90 438 q 164 535 138 509 q 215 575 190 561 q 221 577 216 575 q 226 576 226 580 q 225 572 227 576 q 219 565 222 568 q 104 395 147 490 q 56 201 62 301 q 59 147 55 176 q 72 92 62 118 q 102 49 83 66 q 155 31 122 31 q 204 40 181 31 q 245 64 226 50 q 281 96 265 79 q 309 129 297 113 q 361 201 337 163 q 364 255 361 229 q 375 308 368 281 q 382 339 379 327 q 389 361 386 351 q 396 384 393 372 q 406 415 400 395 q 363 342 384 376 q 317 277 341 308 q 267 215 293 245 q 211 155 241 186 q 172 140 187 131 q 154 179 156 148 q 159 270 151 226 q 186 363 166 315 q 231 450 204 408 q 293 525 258 491 q 372 584 329 559 q 463 616 415 608 q 468 643 466 632 q 472 665 470 654 q 475 680 475 680 q 481 677 477 682 q 487 666 484 673 q 498 575 504 620 q 478 481 493 529 q 444 385 463 434 q 412 286 425 336 q 403 139 395 215 q 462 2 411 63 q 466 -2 466 -2 q 458 0 465 -4 q 397 60 418 25 q 369 134 377 95 m 418 626 q 417 622 420 623 q 402 618 413 620 q 359 597 384 612 q 304 558 333 581 q 248 503 276 534 q 200 436 220 472 q 164 362 179 398 q 140 296 150 326 q 127 245 131 266 q 123 215 123 223 q 123 171 123 194 q 129 130 123 148 q 148 102 134 112 q 190 97 162 93 q 197 99 191 97 q 208 103 202 101 q 218 106 213 105 q 225 108 223 108 q 222 101 226 105 q 213 92 219 97 q 203 83 208 87 q 197 77 198 79 q 138 65 162 56 q 102 96 115 73 q 84 150 88 119 q 80 206 79 181 q 95 303 83 255 q 127 400 108 351 q 173 477 143 437 q 242 550 204 516 q 322 604 280 583 q 402 627 363 626 q 418 626 416 627 m 500 2 q 501 -2 502 -1 q 490 0 497 -2 q 468 16 486 2 q 441 61 450 30 q 436 89 438 72 q 434 122 434 106 q 436 148 434 137 q 443 159 438 159 q 452 143 447 159 q 458 122 456 126 q 466 88 462 102 q 473 61 469 73 q 488 26 479 45 q 500 2 497 6 m 211 849 q 229 883 214 865 q 266 916 244 902 q 312 937 287 930 q 360 937 337 944 q 383 927 371 933 q 403 914 394 920 q 417 902 412 908 q 421 891 422 895 q 413 892 419 888 q 400 897 407 895 q 327 899 362 905 q 261 868 292 894 q 239 845 250 859 q 224 819 228 830 q 218 813 219 811 q 210 831 211 819 q 211 849 210 843 m 637 747 q 581 759 603 747 q 545 791 560 772 q 519 833 530 811 q 495 877 508 856 q 464 914 482 898 q 417 934 446 930 q 387 946 399 937 q 370 965 376 955 q 362 983 364 974 q 364 993 361 991 q 373 989 369 994 q 381 979 376 984 q 397 968 386 973 q 432 962 408 962 q 495 948 471 961 q 535 917 519 936 q 561 875 551 898 q 581 829 571 852 q 605 787 592 806 q 642 756 618 768 q 651 750 649 754 q 637 747 653 747 m 514 716 q 506 711 514 712 q 497 711 499 711 q 437 733 458 711 q 404 779 415 755 q 346 754 379 766 q 297 720 312 743 q 289 706 294 716 q 282 697 285 697 q 278 702 280 697 q 278 722 276 706 q 296 770 280 751 q 329 799 311 788 q 363 815 347 811 q 385 820 379 820 q 372 854 376 843 q 366 869 368 865 q 363 874 364 873 q 362 880 362 876 q 363 888 360 886 q 371 887 367 890 q 417 848 403 876 q 447 790 432 820 q 475 749 460 763 q 514 718 490 736 l 514 716 m 615 731 q 594 723 607 724 q 565 722 580 722 q 519 734 539 722 q 487 765 500 747 q 469 808 475 784 q 462 855 462 831 q 464 862 462 858 q 468 866 465 866 q 494 842 483 866 q 525 790 505 818 q 562 756 540 770 q 611 733 583 743 l 614 733 q 615 731 615 731 m 344 865 q 358 859 355 865 q 353 847 360 854 q 328 825 343 836 q 299 802 314 815 q 271 770 285 788 q 251 722 258 751 q 250 710 250 715 q 246 705 250 705 q 239 722 243 705 q 231 756 232 737 q 236 790 230 774 q 284 852 255 840 q 344 865 312 865 "},"}":{"x_min":-75.28125,"x_max":435.21875,"ha":468,"o":"m 283 955 q 268 959 279 952 q 241 968 256 965 q 215 968 226 970 q 191 958 205 965 q 165 936 177 948 q 143 905 152 923 q 138 902 140 901 q 136 905 136 902 q 136 911 136 908 q 137 915 136 915 q 153 956 144 938 q 186 988 162 973 q 220 995 200 998 q 256 986 240 993 q 282 969 273 979 q 283 955 291 959 m 409 520 q 374 511 393 513 q 339 512 355 508 q 311 529 323 516 q 294 570 298 543 q 293 625 290 597 q 305 683 297 654 q 322 743 313 712 q 338 807 331 775 q 346 850 343 823 q 347 906 350 877 q 331 961 344 934 q 287 1007 318 988 q 231 1024 256 1025 q 185 1011 205 1023 q 150 981 165 1000 q 127 945 136 962 q 124 940 125 940 q 123 941 123 940 q 123 945 123 943 q 123 950 123 948 q 144 997 130 972 q 180 1038 158 1022 q 234 1057 202 1054 q 312 1037 266 1059 q 347 1009 333 1027 q 370 971 361 991 q 383 930 379 951 q 387 894 387 909 q 386 833 388 861 q 376 783 383 805 q 347 664 362 716 q 336 577 331 612 q 358 539 338 555 q 409 520 377 523 m 427 525 q 415 503 425 518 q 393 473 405 488 q 369 444 380 458 q 354 425 358 430 q 332 397 344 413 q 309 366 320 380 q 289 342 298 351 q 276 336 280 333 q 279 358 273 338 q 287 384 284 377 q 316 431 302 412 q 345 463 330 450 q 374 489 359 477 q 406 513 388 501 q 420 521 409 515 q 427 525 430 527 m 9 -43 q 2 -46 2 -51 q 4 -34 1 -41 q 15 -17 9 -25 q 28 0 22 -9 q 42 22 34 8 q 58 56 50 36 q 93 144 75 95 q 122 225 111 193 q 145 277 130 248 q 177 334 159 306 q 218 388 195 362 q 263 431 240 413 q 210 454 231 436 q 175 500 188 473 q 156 559 162 527 q 152 620 151 591 q 168 740 156 688 q 186 819 179 791 q 199 867 193 844 q 209 905 205 890 q 213 923 212 916 q 211 934 215 930 q 204 936 208 937 q 200 940 200 936 q 212 950 200 944 q 244 926 233 955 q 247 855 255 897 q 227 772 238 815 q 204 683 215 729 q 193 605 194 647 q 200 528 191 563 q 233 470 209 493 q 297 451 256 448 q 246 492 266 463 q 220 545 226 520 q 216 622 212 586 q 230 694 220 659 q 253 760 240 729 q 277 819 266 791 q 284 830 279 822 q 294 837 288 838 q 297 827 297 837 q 297 813 297 818 q 292 779 295 798 q 284 738 288 759 q 277 697 280 718 q 270 663 273 677 q 267 644 270 659 q 262 609 263 629 q 263 566 261 588 q 279 525 266 544 q 309 500 290 508 q 345 487 329 493 q 279 418 305 458 q 231 334 252 379 q 192 238 211 288 q 150 139 173 188 q 93 43 126 90 q 9 -43 59 -2 m 430 475 q 376 384 394 422 q 347 313 358 347 q 329 245 337 280 q 304 163 320 209 q 253 45 281 105 q 176 -70 225 -15 q 115 -124 147 -102 q 51 -159 83 -145 q -10 -179 19 -172 q -65 -190 -40 -186 q -75 -188 -72 -190 q -70 -185 -76 -187 q -63 -181 -65 -183 q 40 -127 -15 -158 q 148 -34 97 -95 q 218 72 188 11 q 270 191 248 133 q 296 267 284 230 q 324 338 308 304 q 363 407 340 373 q 425 477 387 441 q 434 484 430 481 q 430 475 437 486 m 227 204 q 220 170 225 191 q 210 128 216 150 q 197 86 204 106 q 183 51 190 65 q 158 12 176 40 q 102 -55 140 -15 q 27 -115 63 -98 q -30 -144 -9 -133 q -46 -147 -48 -154 q -38 -136 -44 -141 q 26 -64 -9 -101 q 80 0 62 -27 q 145 95 111 34 q 212 211 179 155 q 220 222 215 213 q 227 227 225 230 q 231 218 233 227 q 227 204 230 209 "},"Ä":{"x_min":27.78125,"x_max":869.265625,"ha":861,"o":"m 481 994 q 474 1007 479 998 q 472 1019 469 1016 q 481 1018 475 1022 q 488 1012 487 1013 q 535 962 513 994 q 574 892 556 930 q 605 812 591 854 q 627 733 619 770 q 663 552 648 641 q 677 369 677 463 q 678 352 677 366 q 673 336 679 338 q 664 350 669 338 q 658 365 659 361 q 628 482 641 416 q 604 602 615 548 q 588 682 595 644 q 572 757 581 720 q 552 829 563 793 q 523 907 540 866 q 514 926 520 912 q 501 954 508 940 q 488 979 494 968 q 481 994 483 991 m 815 -34 q 794 -24 800 -26 q 773 -12 788 -22 q 712 38 740 6 q 662 106 684 69 q 622 186 640 144 q 593 270 605 229 q 527 249 565 252 q 456 245 488 245 q 377 248 416 245 q 297 251 337 251 q 224 111 258 179 q 170 -13 190 44 q 169 -20 170 -15 q 165 -25 168 -25 q 161 -15 161 -25 q 161 -2 161 -5 q 188 121 161 52 q 248 256 215 190 l 227 258 q 204 204 219 238 q 177 131 190 169 q 153 59 163 94 q 143 4 143 25 q 138 0 143 0 q 130 9 133 0 q 125 29 127 18 q 122 52 123 40 q 122 68 122 63 q 134 170 122 116 q 168 268 147 223 l 150 270 q 126 210 137 240 q 106 148 115 180 q 105 141 106 145 q 101 138 104 137 q 97 152 98 144 q 97 165 97 159 q 118 277 97 223 q 131 291 125 291 q 190 301 161 300 q 252 302 220 302 q 390 292 322 302 q 526 281 458 281 q 587 287 559 281 l 584 309 q 552 304 569 305 q 519 302 534 302 q 407 313 465 302 q 297 340 350 325 q 286 345 294 343 q 277 351 277 347 q 286 356 277 354 q 297 358 294 358 q 335 360 316 359 q 373 361 354 361 q 437 360 405 361 q 502 359 469 359 q 537 359 519 359 q 572 361 555 359 l 569 376 l 551 376 q 418 388 484 376 q 286 401 352 401 q 185 387 229 401 q 110 355 141 373 q 59 319 79 337 q 31 293 40 301 q 29 291 29 291 q 27 294 27 291 q 29 297 27 295 q 90 378 54 345 q 179 427 126 411 q 288 651 231 540 q 406 870 344 762 q 412 879 408 873 q 420 886 416 886 q 422 883 422 884 l 422 880 q 420 863 422 869 q 343 647 394 751 q 237 441 291 543 l 263 443 q 285 479 268 451 q 322 536 302 506 q 359 591 343 566 q 380 615 376 615 l 381 611 q 373 580 381 604 q 354 529 365 556 q 332 477 343 501 q 318 443 322 452 q 334 442 326 443 q 351 441 343 441 q 404 546 376 491 q 454 658 433 601 q 482 773 475 715 q 473 888 490 832 q 470 861 473 882 q 461 817 466 840 q 450 777 455 794 q 438 759 444 759 q 435 765 434 759 q 436 772 436 770 q 441 843 436 808 q 445 915 445 879 q 430 1009 445 963 q 426 1021 430 1011 q 429 1032 422 1032 q 438 1025 431 1032 q 466 987 452 1011 q 490 936 479 963 q 511 883 501 909 q 526 838 520 857 q 556 718 544 779 q 577 597 568 658 q 595 476 586 537 q 618 355 605 415 q 647 241 630 297 q 690 136 665 186 q 747 43 715 86 q 823 -30 780 1 q 828 -39 830 -37 q 815 -34 826 -41 m 812 83 q 811 75 813 75 q 804 80 808 76 q 797 90 801 84 q 794 97 794 95 q 741 221 761 158 q 711 349 722 284 q 692 479 700 413 q 674 614 684 545 q 647 754 663 683 q 600 898 630 825 q 595 908 598 901 q 595 916 593 915 q 602 912 598 916 l 608 907 q 662 811 638 870 q 704 683 686 751 q 734 548 722 615 q 752 431 745 481 q 776 265 763 352 q 808 100 788 177 l 812 83 m 400 436 q 479 426 440 431 q 559 418 519 420 q 533 563 544 491 q 512 711 522 636 q 463 570 494 638 q 400 436 431 502 m 857 -19 q 808 4 829 -6 q 772 37 787 16 q 735 101 748 69 q 713 161 722 133 q 709 186 711 172 q 709 200 707 200 q 723 181 715 200 q 738 151 732 163 q 791 64 759 108 q 861 -6 823 20 q 868 -19 872 -16 q 857 -19 863 -22 m 36 247 q 33 247 36 247 l 31 247 q 33 255 31 251 q 36 263 34 259 q 57 299 47 287 q 91 325 68 311 q 130 341 105 333 q 170 350 155 350 q 178 349 173 350 q 183 344 183 348 q 168 333 183 340 q 150 323 154 326 q 72 275 97 291 q 36 247 47 258 m 349 1031 q 328 1033 342 1031 q 313 1047 313 1036 q 326 1057 313 1051 q 354 1075 338 1063 q 381 1106 369 1087 q 394 1154 394 1124 q 380 1208 394 1190 q 373 1217 377 1212 q 370 1223 369 1222 q 376 1221 373 1223 q 381 1218 380 1219 q 424 1178 409 1202 q 440 1131 440 1154 q 418 1059 440 1087 q 349 1031 397 1031 m 298 1087 q 281 1095 281 1080 q 290 1117 281 1106 q 306 1140 298 1127 q 316 1168 313 1152 q 308 1208 319 1184 q 298 1223 305 1215 q 294 1233 291 1231 q 306 1231 297 1234 q 317 1226 315 1227 q 353 1193 341 1215 q 365 1154 365 1170 q 343 1110 365 1127 q 298 1087 322 1093 m 258 1162 q 263 1178 258 1169 q 276 1187 267 1187 q 287 1178 283 1187 q 291 1162 291 1169 q 287 1147 291 1156 q 276 1138 283 1138 q 263 1147 267 1138 q 258 1162 258 1155 m 636 1031 q 614 1033 629 1031 q 599 1047 599 1036 q 612 1057 599 1051 q 639 1075 624 1063 q 666 1106 654 1087 q 679 1154 679 1124 q 666 1208 679 1188 q 658 1217 663 1212 q 656 1223 654 1222 q 662 1221 658 1223 q 667 1218 666 1219 q 710 1178 695 1202 q 724 1131 724 1154 q 704 1059 724 1087 q 636 1031 683 1031 m 584 1087 q 572 1085 577 1084 q 566 1095 566 1086 q 574 1117 566 1106 q 591 1140 583 1127 q 602 1168 599 1152 q 594 1208 605 1184 q 584 1223 591 1215 q 580 1233 577 1231 q 591 1231 583 1234 q 602 1226 599 1227 q 638 1193 626 1215 q 651 1154 651 1170 q 629 1110 651 1127 q 584 1087 608 1093 m 544 1162 q 548 1178 544 1169 q 561 1187 552 1187 q 572 1178 567 1187 q 576 1162 576 1169 q 572 1147 576 1156 q 561 1138 567 1138 q 548 1147 552 1138 q 544 1162 544 1155 "},"¸":{"x_min":1.390625,"x_max":386.140625,"ha":415,"o":"m 86 -306 l 87 -305 q 175 -295 130 -304 q 257 -265 220 -286 q 317 -210 294 -244 q 340 -123 340 -176 q 304 -33 340 -62 q 209 -4 268 -4 q 192 -15 200 -4 q 168 -27 184 -27 q 152 -15 152 -27 q 159 -2 152 -6 q 173 6 166 1 q 186 22 180 12 q 190 51 191 31 l 188 65 q 202 54 194 63 q 215 36 209 45 q 227 18 222 26 q 234 9 231 9 q 246 11 240 9 q 258 13 252 13 q 311 0 287 13 q 351 -34 334 -12 q 377 -82 368 -55 q 386 -136 386 -109 q 368 -218 386 -181 q 320 -281 350 -255 q 250 -322 290 -308 q 168 -337 211 -337 q 149 -335 162 -337 q 122 -329 136 -333 q 97 -319 108 -325 q 86 -306 86 -313 m 137 -254 q 152 -259 147 -254 q 129 -275 150 -268 q 84 -289 109 -283 q 34 -301 58 -295 q 1 -308 11 -306 q 63 -266 27 -279 q 137 -254 100 -254 m 20 -266 q 52 -246 29 -262 q 102 -211 75 -230 q 156 -171 130 -191 q 197 -138 183 -151 q 204 -126 208 -129 q 190 -126 201 -123 q 178 -136 184 -130 q 163 -143 172 -143 q 179 -106 163 -122 q 219 -90 195 -90 q 248 -122 248 -90 q 222 -178 248 -156 q 168 -211 195 -200 l 16 -275 l 20 -266 m 113 -9 q 126 -48 113 -29 q 154 -80 138 -68 q 187 -46 159 -61 q 245 -31 215 -31 q 299 -52 275 -31 q 323 -122 323 -72 q 316 -161 323 -140 q 295 -200 308 -181 q 263 -229 281 -218 q 226 -241 245 -241 l 216 -238 q 225 -222 216 -233 q 243 -199 233 -212 q 262 -169 254 -186 q 270 -133 270 -152 q 256 -93 270 -109 q 219 -76 243 -76 q 173 -87 184 -76 q 155 -105 162 -98 q 133 -81 147 -95 q 106 -52 119 -68 q 83 -20 93 -36 q 73 6 73 -5 q 86 34 73 26 q 113 49 98 43 q 141 65 129 55 q 154 97 154 75 q 174 75 165 90 q 183 51 183 59 q 172 31 183 37 q 148 22 161 26 q 125 11 136 18 q 113 -9 113 5 "},"a":{"x_min":16.609375,"x_max":611.15625,"ha":608,"o":"m 559 488 q 522 377 548 433 q 472 273 495 322 q 466 263 470 270 q 458 256 461 256 q 454 266 454 258 q 454 276 454 273 q 459 306 455 288 q 465 342 462 323 q 471 378 468 361 q 479 409 475 395 q 500 491 491 456 q 512 552 508 525 q 517 605 516 580 q 513 659 518 630 q 515 673 512 670 q 522 670 518 675 q 529 662 526 666 q 561 579 552 625 q 559 488 569 534 m 593 581 q 611 512 611 555 q 602 424 611 469 q 581 337 594 379 q 563 270 569 295 q 533 173 552 222 q 500 87 513 125 q 495 78 498 83 q 490 73 493 73 q 487 79 487 73 q 487 88 487 84 q 504 238 483 165 q 548 386 525 311 q 575 479 562 431 q 586 584 587 527 q 587 590 586 590 l 593 581 m 462 605 q 318 506 377 570 q 227 361 259 441 q 206 296 213 325 q 195 234 200 268 q 200 220 194 227 q 211 220 205 213 q 275 298 236 251 q 352 398 313 345 q 422 505 391 451 q 462 605 454 559 m 369 134 q 329 80 348 105 q 286 36 309 55 q 233 6 262 18 q 166 -5 204 -4 q 71 26 104 -8 q 26 111 38 61 q 17 214 13 161 q 31 302 20 268 q 68 395 47 351 q 114 474 90 438 q 164 535 138 509 q 215 575 190 561 q 221 577 216 575 q 226 576 226 580 q 225 572 227 576 q 219 565 222 568 q 104 395 147 490 q 56 201 62 301 q 59 147 55 176 q 72 92 62 118 q 102 49 83 66 q 155 31 122 31 q 204 40 181 31 q 245 64 226 50 q 281 96 265 79 q 309 129 297 113 q 361 201 337 163 q 364 255 361 229 q 375 308 368 281 q 382 339 379 327 q 389 361 386 351 q 396 384 393 372 q 406 415 400 395 q 363 342 384 376 q 317 277 341 308 q 267 215 293 245 q 211 155 241 186 q 172 140 187 131 q 154 179 156 148 q 159 270 151 226 q 186 363 166 315 q 231 450 204 408 q 293 525 258 491 q 372 584 329 559 q 463 616 415 608 q 468 643 466 632 q 472 665 470 654 q 475 680 475 680 q 481 677 477 682 q 487 666 484 673 q 498 575 504 620 q 478 481 493 529 q 444 385 463 434 q 412 286 425 336 q 403 139 395 215 q 462 2 411 63 q 466 -2 466 -2 q 458 0 465 -4 q 397 60 418 25 q 369 134 377 95 m 418 626 q 417 622 420 623 q 402 618 413 620 q 359 597 384 612 q 304 558 333 581 q 248 503 276 534 q 200 436 220 472 q 164 362 179 398 q 140 296 150 326 q 127 245 131 266 q 123 215 123 223 q 123 171 123 194 q 129 130 123 148 q 148 102 134 112 q 190 97 162 93 q 197 99 191 97 q 208 103 202 101 q 218 106 213 105 q 225 108 223 108 q 222 101 226 105 q 213 92 219 97 q 203 83 208 87 q 197 77 198 79 q 138 65 162 56 q 102 96 115 73 q 84 150 88 119 q 80 206 79 181 q 95 303 83 255 q 127 400 108 351 q 173 477 143 437 q 242 550 204 516 q 322 604 280 583 q 402 627 363 626 q 418 626 416 627 m 500 2 q 501 -2 502 -1 q 490 0 497 -2 q 468 16 486 2 q 441 61 450 30 q 436 89 438 72 q 434 122 434 106 q 436 148 434 137 q 443 159 438 159 q 452 143 447 159 q 458 122 456 126 q 466 88 462 102 q 473 61 469 73 q 488 26 479 45 q 500 2 497 6 "},"—":{"x_min":13.890625,"x_max":1484.84375,"ha":1502,"o":"m 29 401 q 34 414 29 409 q 44 425 38 419 q 102 461 68 445 q 172 488 136 477 q 247 503 209 498 q 318 508 286 508 l 344 508 l 354 504 q 349 500 351 502 q 344 498 347 498 l 165 451 q 97 425 129 441 q 30 397 65 408 q 29 398 29 397 l 29 401 m 204 437 q 229 446 206 443 q 284 453 251 450 q 355 459 316 456 q 431 461 394 461 q 501 463 469 462 q 551 463 533 463 q 813 457 683 463 q 1075 451 943 451 q 1176 456 1126 451 q 1279 462 1226 462 l 1284 458 q 1256 441 1279 448 q 1202 429 1233 434 q 1134 420 1170 423 q 1063 414 1097 416 q 1004 411 1030 412 q 965 409 977 409 q 896 409 930 409 q 827 409 862 408 l 227 431 l 212 431 l 204 437 m 741 601 q 950 593 845 601 q 1158 584 1054 584 l 1345 584 q 1412 587 1377 584 q 1480 593 1447 590 l 1484 591 q 1418 566 1465 576 q 1315 550 1370 555 q 1208 542 1259 544 q 1132 540 1157 540 q 918 548 1023 540 q 705 556 812 556 l 513 556 q 387 549 452 556 q 258 527 322 541 q 133 490 194 512 q 19 437 72 468 l 13 437 l 19 447 q 129 518 69 488 q 254 566 190 547 q 386 593 319 584 q 519 601 454 601 l 741 601 m 556 513 q 593 520 562 518 q 669 525 625 523 q 765 526 713 526 q 863 525 816 526 q 947 524 911 525 q 998 523 983 523 l 1091 523 q 1219 527 1155 523 q 1345 536 1283 531 q 1392 545 1369 538 q 1436 551 1415 551 q 1441 550 1439 551 q 1445 550 1443 550 q 1379 511 1427 526 q 1273 485 1330 495 q 1162 470 1216 475 q 1079 466 1108 466 q 820 478 954 466 q 563 508 686 490 l 556 513 "},"=":{"x_min":58.34375,"x_max":708.953125,"ha":735,"o":"m 523 505 q 416 516 470 508 q 313 534 362 523 q 303 538 309 534 q 297 544 297 541 q 303 549 297 547 q 312 551 309 551 q 372 559 336 555 q 433 556 409 562 q 475 558 441 556 q 547 563 508 559 q 623 576 587 568 q 673 597 659 584 q 679 600 679 600 l 680 600 q 681 593 683 597 q 679 586 679 590 q 648 551 668 566 q 606 525 629 536 q 562 510 584 515 q 523 505 540 505 m 329 445 q 239 452 286 445 q 155 461 193 458 q 147 463 151 463 q 144 466 143 463 q 147 472 143 470 q 155 473 151 473 q 289 495 222 495 q 427 490 356 494 q 518 486 472 487 q 615 500 565 484 q 618 500 616 502 q 615 493 618 495 q 556 459 594 469 q 477 445 519 448 q 394 444 434 443 q 329 445 354 445 m 66 473 q 61 469 65 472 q 58 469 58 466 q 59 475 58 473 q 61 477 59 476 q 111 556 81 525 q 174 605 140 587 q 245 631 208 623 q 319 638 281 638 q 420 634 369 638 q 518 625 470 629 q 610 625 566 622 q 693 643 654 627 q 696 644 694 643 q 698 641 698 645 l 693 636 q 611 589 657 600 q 516 579 566 579 q 413 587 466 580 q 308 593 359 594 q 244 586 277 593 q 178 565 211 579 q 117 529 145 551 q 66 473 88 506 m 125 481 q 73 431 98 463 q 69 429 72 430 q 66 430 66 427 l 66 441 q 68 445 66 444 q 86 481 79 466 q 118 512 94 497 q 143 525 127 519 q 172 535 158 531 q 195 539 186 538 q 205 534 205 540 q 193 522 206 530 q 176 512 179 513 q 150 496 162 502 q 125 481 138 490 m 525 237 q 420 252 473 241 q 318 279 366 263 q 307 283 315 281 q 300 288 300 284 q 307 295 300 293 q 318 297 315 297 q 345 300 329 298 q 377 301 361 301 q 410 300 394 301 q 438 297 426 300 q 481 294 447 295 q 554 294 515 293 q 631 301 594 295 q 684 318 669 306 q 690 322 687 322 q 693 322 693 323 q 690 316 693 319 q 687 309 687 312 q 654 276 675 290 q 610 253 633 262 q 565 240 587 244 q 525 237 543 236 m 329 190 q 237 202 284 193 q 155 216 190 211 q 147 220 151 219 q 143 225 143 222 q 147 228 143 226 q 155 230 151 230 q 290 241 222 247 q 431 226 359 236 q 520 217 475 219 q 616 226 565 215 q 622 226 618 230 q 619 222 622 225 q 616 219 616 220 q 556 188 595 197 q 475 180 518 180 q 392 184 431 180 q 329 190 352 188 m 66 234 q 62 231 63 231 q 58 230 61 230 l 58 231 q 59 234 58 233 q 61 237 59 236 q 115 312 84 283 q 181 356 145 341 q 254 377 216 372 q 329 380 291 381 q 431 370 380 377 q 529 356 481 362 q 621 351 577 351 q 702 365 665 351 q 708 361 708 365 q 707 359 709 361 q 702 358 705 358 q 616 316 662 325 q 521 312 570 308 q 420 326 472 316 q 318 338 368 336 q 252 335 286 340 q 186 318 219 330 q 122 285 152 305 q 66 234 91 265 m 125 240 q 97 218 111 229 q 72 191 84 206 q 65 190 65 188 l 65 201 q 66 205 65 204 q 86 240 77 225 q 122 268 95 255 q 145 279 130 273 q 175 288 161 284 q 199 291 188 291 q 209 287 209 291 q 196 274 209 280 q 179 266 183 268 q 125 240 150 250 "},"N":{"x_min":18.21875,"x_max":773.90625,"ha":756,"o":"m 373 698 q 388 537 386 625 q 394 376 391 450 q 393 361 394 372 q 387 348 393 350 q 380 360 384 348 q 375 376 376 372 q 364 415 369 393 q 355 460 359 437 q 348 506 351 483 q 344 548 345 529 q 342 572 344 552 q 336 617 340 591 q 326 672 331 643 q 313 730 320 702 q 311 616 313 672 q 313 502 309 559 q 322 432 316 466 q 334 363 327 398 q 363 266 344 315 q 410 175 383 218 q 472 96 437 131 q 550 40 508 61 q 556 34 556 37 q 550 31 555 30 q 450 78 493 44 q 374 159 406 112 q 320 262 341 206 q 288 373 300 318 q 280 420 284 397 q 273 468 276 444 q 228 337 252 401 q 181 215 204 273 q 143 102 159 156 q 118 0 126 48 q 116 -2 116 -1 q 113 -5 113 -5 q 109 0 109 -5 q 114 131 100 63 q 154 269 129 198 q 209 414 180 340 q 258 565 238 488 q 276 666 270 612 q 279 771 281 719 q 261 872 276 823 q 220 961 247 920 q 216 972 213 969 q 225 972 219 975 q 234 965 230 969 q 284 911 262 937 q 322 855 305 886 q 351 787 338 825 q 373 698 363 750 m 541 375 q 556 445 550 415 q 572 504 563 476 q 593 560 581 531 q 623 623 605 588 q 632 638 626 627 q 643 647 638 648 q 644 634 645 647 q 641 618 643 622 q 631 576 637 600 q 618 527 625 552 q 604 476 611 501 q 593 433 597 451 q 581 375 587 409 q 568 300 575 341 q 559 211 562 258 q 556 113 555 163 q 531 131 544 120 q 505 161 518 141 q 460 249 476 202 q 434 345 444 295 q 420 447 425 395 q 411 550 416 500 q 398 682 404 615 q 369 819 393 748 q 366 827 366 826 q 368 829 365 827 q 376 822 372 829 q 407 770 394 804 q 431 694 420 736 q 449 606 441 652 q 462 516 456 559 q 472 435 468 472 q 481 375 477 398 q 502 518 491 455 q 526 620 513 581 q 552 693 537 655 q 586 767 568 730 q 622 837 604 804 q 658 895 641 870 q 666 908 662 902 q 673 911 670 913 q 674 902 676 908 q 669 888 672 895 q 635 791 651 834 q 603 707 619 748 q 573 620 587 665 q 545 519 559 575 q 526 443 537 483 q 509 360 515 402 q 504 274 502 318 q 525 188 506 230 q 525 242 523 212 q 529 299 526 272 q 536 347 533 326 q 541 375 540 368 m 513 119 q 545 89 529 102 q 581 65 562 76 q 577 195 570 127 q 601 331 584 262 q 640 470 618 401 q 683 607 662 540 q 732 809 713 704 q 754 1018 751 913 q 755 1029 754 1029 q 759 1022 759 1029 q 773 906 772 962 q 768 795 775 850 q 748 686 761 740 q 719 576 736 632 q 676 425 698 501 q 636 277 654 350 q 611 134 619 204 q 608 1 602 63 q 605 -4 608 -4 q 602 -2 602 -4 q 600 1 601 0 q 593 16 594 15 q 588 31 593 18 q 580 47 586 43 q 572 52 575 51 q 531 68 548 61 q 487 102 515 75 q 463 133 476 113 q 441 171 451 152 q 427 204 431 190 q 427 220 423 219 q 434 215 429 220 q 445 204 440 211 q 456 191 451 198 q 462 183 461 184 q 513 119 487 145 m 106 581 q 146 712 123 645 q 184 832 169 779 q 189 844 187 838 q 194 848 191 850 q 197 841 197 848 q 197 827 197 834 q 170 625 198 726 q 108 425 143 523 q 63 297 86 362 q 30 158 41 233 q 29 150 29 151 q 26 150 29 150 q 22 159 25 150 q 22 254 13 197 q 47 372 31 311 q 80 491 62 434 q 106 581 98 547 m 80 286 q 136 434 105 356 q 200 580 168 511 q 206 593 201 583 q 215 602 212 602 q 218 590 218 601 q 216 575 219 579 q 209 534 213 558 q 197 484 204 509 q 183 434 190 458 q 170 394 176 411 q 152 333 166 381 q 122 225 137 284 q 95 111 106 166 q 86 29 83 55 q 81 16 86 16 q 78 21 80 16 q 73 29 76 26 q 59 86 62 52 q 57 155 55 119 q 65 225 59 191 q 80 286 72 259 m 700 929 q 708 982 705 957 q 713 1037 711 1008 q 715 1043 713 1040 q 719 1047 716 1047 q 725 1040 720 1047 q 726 1034 726 1037 q 732 1009 730 1020 q 735 986 734 998 q 735 957 736 973 q 730 920 734 941 q 721 880 727 904 q 708 835 715 857 q 695 799 701 813 q 684 786 688 784 q 682 793 682 786 q 683 810 682 801 q 686 829 684 819 q 687 844 687 838 l 700 929 l 700 929 m 212 870 q 199 916 206 894 q 179 958 191 938 q 176 968 173 966 q 184 965 179 968 l 190 962 q 221 929 208 945 q 243 873 234 912 q 248 835 247 858 q 249 790 250 812 q 245 752 248 768 q 237 738 243 737 q 233 745 234 738 q 230 761 231 752 q 227 779 229 770 q 226 790 226 787 q 220 832 223 812 q 212 870 218 851 "},"˚":{"x_min":34.71875,"x_max":376.421875,"ha":375,"o":"m 34 863 q 38 894 34 876 q 47 929 41 912 q 64 961 54 947 q 88 977 75 975 l 93 976 l 93 973 q 79 935 87 952 q 72 894 72 918 q 82 839 72 865 q 111 793 93 813 q 156 762 130 773 q 211 751 181 751 q 308 787 268 751 q 348 880 348 823 q 336 931 348 916 q 323 958 325 945 q 350 947 340 958 q 366 922 359 937 q 374 892 372 908 q 376 863 376 876 q 362 797 376 826 q 325 747 348 768 q 270 715 301 726 q 204 704 238 704 q 138 716 169 704 q 85 748 108 727 q 48 798 62 769 q 34 863 34 827 m 137 827 q 143 833 143 833 q 145 833 143 833 q 172 820 161 825 q 201 816 184 816 q 252 834 230 816 q 273 883 273 852 q 256 924 273 908 q 215 940 238 940 q 220 947 215 944 q 233 952 226 950 q 247 955 240 954 q 256 957 254 957 q 311 932 291 957 q 330 875 330 908 q 296 800 330 829 q 219 772 262 772 q 194 775 208 772 q 168 786 180 779 q 146 803 155 793 q 137 827 137 813 m 168 934 q 176 900 168 920 q 201 880 184 880 q 216 893 216 880 q 204 904 216 902 q 184 907 193 907 l 184 909 q 198 919 184 916 q 219 922 212 922 q 245 913 233 922 q 258 888 258 904 q 244 857 258 869 q 211 844 230 844 q 187 852 198 844 q 166 872 176 861 q 151 897 156 884 q 145 922 145 911 q 158 974 145 950 q 190 1016 170 998 l 191 1013 q 175 975 181 994 q 168 934 168 955 m 184 1055 q 179 1038 184 1045 q 170 1023 175 1030 q 140 961 151 993 q 119 895 129 929 l 113 893 q 105 902 106 893 q 104 919 104 912 q 111 956 104 933 q 129 1000 118 979 q 154 1038 140 1022 q 184 1055 169 1055 "},"ú":{"x_min":13.890625,"x_max":541.796875,"ha":557,"o":"m 487 438 q 447 340 470 387 q 400 245 425 293 q 391 232 397 243 q 381 225 386 222 q 379 233 379 225 q 380 245 380 241 q 386 277 381 256 q 397 321 391 298 q 410 366 404 344 q 420 400 416 387 q 451 533 444 475 q 443 632 458 591 q 443 638 440 638 q 448 636 445 638 q 452 632 451 633 q 477 589 468 615 q 491 536 487 563 q 494 483 495 509 q 487 438 493 456 m 525 538 q 541 469 543 511 q 531 383 540 427 q 509 298 522 338 q 488 234 495 258 q 455 140 475 188 q 420 58 436 93 q 412 47 415 45 q 407 53 408 48 q 406 61 406 58 q 428 205 406 136 q 475 345 450 275 q 502 436 490 391 q 515 536 515 481 q 518 545 515 545 q 520 543 519 545 q 525 538 522 541 m 247 102 q 237 90 250 98 q 220 80 225 81 q 125 79 159 58 q 77 141 91 100 q 62 234 62 183 q 68 325 62 284 q 84 402 72 359 q 112 485 95 444 q 150 561 129 526 q 197 616 172 597 q 203 620 200 618 q 209 623 206 623 q 205 608 213 622 q 185 569 197 594 q 161 511 173 544 q 136 443 148 479 q 118 370 125 406 q 108 301 111 334 q 105 241 105 268 q 106 197 105 215 q 109 173 108 179 q 146 110 119 130 q 219 98 173 90 q 233 101 220 98 q 247 102 245 104 m 426 -4 q 431 -12 431 -9 q 425 -13 431 -15 q 416 -11 419 -12 q 388 4 405 -5 q 363 41 372 15 q 358 68 359 52 q 356 98 356 84 q 359 121 356 112 q 366 129 362 130 q 372 116 369 127 q 379 93 376 105 q 386 64 381 77 q 395 37 390 51 q 409 13 402 22 q 426 -4 416 4 m 298 72 q 252 24 283 48 q 168 0 220 0 q 96 22 126 0 q 47 77 66 44 q 21 150 29 111 q 13 226 13 190 q 21 315 15 270 q 38 398 27 359 q 61 468 48 437 q 88 518 75 498 q 95 524 91 519 q 101 526 98 529 q 100 520 102 525 q 97 512 98 515 q 72 424 84 470 q 54 330 61 377 q 47 237 47 283 q 55 152 47 191 q 75 104 61 126 q 107 66 90 81 q 145 44 125 51 q 184 40 165 37 q 245 63 225 45 q 275 104 266 80 q 286 157 284 129 q 293 215 288 186 q 266 177 286 195 q 222 147 245 158 q 178 138 200 137 q 145 163 156 140 q 130 230 131 194 q 131 309 129 266 q 144 398 134 352 q 170 486 154 444 q 210 566 187 529 q 262 633 233 604 l 268 638 q 276 643 272 643 q 270 629 276 643 q 202 474 230 554 q 169 312 175 394 q 178 194 162 222 q 218 178 194 166 q 268 229 241 190 q 312 315 295 269 q 345 401 327 356 q 377 491 362 445 q 399 579 391 536 q 402 659 406 622 q 405 666 402 666 q 406 665 406 666 q 408 662 406 662 q 409 659 409 661 q 429 563 431 612 q 413 465 427 515 q 378 363 398 415 q 344 258 358 311 q 331 188 336 225 q 330 115 327 151 q 345 46 333 79 q 381 -8 358 13 q 384 -12 384 -11 q 381 -14 384 -15 q 375 -12 377 -13 q 329 19 348 -2 q 298 72 309 41 m 289 772 q 296 769 297 775 q 291 757 294 764 q 280 737 284 744 q 273 723 276 729 q 268 709 271 717 q 261 687 265 701 q 256 679 258 681 q 253 676 254 678 q 246 681 248 674 q 244 699 244 687 q 246 718 244 707 q 254 740 248 729 q 268 760 259 751 q 289 772 276 769 m 237 718 q 232 706 233 706 q 227 714 229 706 q 225 729 225 722 q 237 812 225 782 q 268 858 248 842 q 314 883 289 875 q 364 901 339 892 q 412 927 389 911 q 450 976 434 943 q 457 975 453 983 q 464 954 461 967 q 450 910 468 929 q 408 876 433 890 q 355 851 383 861 q 309 832 328 840 q 257 784 272 814 q 237 718 243 754 m 284 706 q 316 736 284 719 q 389 773 348 753 q 469 818 430 793 q 522 874 508 843 l 525 874 q 531 865 530 874 q 532 854 532 857 q 505 796 532 824 q 439 746 478 768 q 359 712 400 725 q 290 700 318 700 q 284 706 284 700 m 336 800 q 362 822 339 810 q 412 851 384 835 q 460 892 439 868 q 482 950 482 917 q 482 954 482 954 q 490 951 483 954 q 500 926 498 944 q 503 896 503 907 q 487 851 503 871 q 448 819 472 832 q 397 800 425 807 q 346 793 369 793 q 339 794 343 793 q 336 800 334 794 "},"2":{"x_min":0.453125,"x_max":534.140625,"ha":536,"o":"m 461 577 q 415 481 445 520 q 351 411 384 441 q 336 400 347 408 q 323 394 326 391 q 327 407 319 397 q 338 422 334 418 q 365 463 351 438 q 391 516 379 488 q 409 570 402 544 q 416 618 416 597 q 409 656 416 636 q 387 695 402 677 q 345 724 372 713 q 279 732 318 734 q 211 713 241 729 q 161 675 181 697 q 127 632 140 654 q 113 597 115 611 q 112 588 112 588 q 109 586 112 587 q 106 590 108 586 q 104 597 104 594 q 111 665 98 626 q 163 738 125 704 q 252 780 200 770 q 350 776 305 790 q 403 746 379 768 q 443 697 427 725 q 463 638 458 670 q 461 577 469 607 m 456 118 q 433 91 445 105 q 401 68 420 77 q 381 60 393 63 q 361 55 370 56 q 344 54 351 54 q 338 61 337 55 q 347 68 338 63 q 359 73 356 72 q 382 85 372 80 q 402 97 393 90 q 456 133 429 113 q 463 131 466 140 q 456 118 461 123 m 394 113 q 381 108 393 111 q 284 109 331 101 q 187 130 236 118 q 118 141 154 140 q 47 123 83 143 q 41 125 41 120 q 43 131 41 127 q 45 137 44 134 q 154 319 88 226 q 287 493 220 412 q 345 599 337 554 q 309 662 352 644 q 256 667 283 673 q 204 643 229 661 q 163 601 180 626 q 138 548 145 576 q 133 541 137 541 q 129 545 129 541 l 129 550 q 143 618 126 584 q 188 677 159 652 q 254 710 216 701 q 330 702 291 719 q 380 655 369 686 q 382 588 391 625 q 350 513 373 551 q 297 445 326 476 q 240 381 269 416 q 186 308 212 345 q 138 235 161 270 q 102 170 116 200 q 123 174 108 173 q 144 175 138 175 q 165 207 154 191 q 186 236 176 223 q 204 255 197 248 q 216 261 212 262 q 215 252 218 259 q 207 234 212 244 q 197 215 202 225 q 191 204 193 206 l 176 175 q 190 173 183 173 q 205 170 198 173 q 274 262 237 219 q 350 350 311 305 q 392 398 369 372 q 434 454 415 425 q 468 520 454 484 q 487 601 483 556 q 481 656 488 627 q 457 711 473 684 q 418 758 441 737 q 366 790 395 779 q 249 800 308 812 q 145 754 190 788 q 136 746 138 747 q 133 747 134 745 q 134 752 131 748 q 138 761 136 757 q 190 805 154 784 q 276 833 226 826 q 329 834 300 837 q 389 819 359 830 q 446 788 419 808 q 494 738 473 769 q 524 674 515 707 q 534 609 533 641 q 528 549 534 577 q 513 500 522 520 q 474 424 495 455 q 436 373 452 393 q 332 263 387 315 q 230 168 277 211 q 245 166 238 168 q 258 163 252 165 q 325 145 291 156 q 386 122 359 134 q 394 113 395 116 m 454 80 q 400 24 426 44 q 347 -5 373 4 q 297 -15 322 -15 q 247 -13 272 -16 q 179 -2 213 -9 q 112 7 144 4 q 52 9 80 11 q 5 -5 25 6 q 0 -6 1 -9 q 1 0 0 -2 q 49 38 19 30 q 114 43 79 47 q 187 30 150 40 q 258 15 225 20 q 351 23 301 8 q 451 91 401 38 q 456 90 456 97 q 454 80 456 84 m 273 62 q 268 57 273 58 q 261 56 262 56 q 210 56 241 54 q 161 62 179 59 q 126 63 148 63 q 81 61 104 63 q 38 51 58 58 q 11 30 18 44 q 3 25 4 18 q 4 37 2 33 q 22 73 8 58 q 54 98 36 88 q 90 112 72 108 q 122 116 108 116 q 192 104 159 113 q 258 76 225 95 q 267 70 261 75 q 273 62 273 66 "},"ü":{"x_min":13.890625,"x_max":560.921875,"ha":557,"o":"m 487 438 q 447 340 470 387 q 400 245 425 293 q 391 232 397 243 q 381 225 386 222 q 379 233 379 225 q 380 245 380 241 q 386 277 381 256 q 397 321 391 298 q 410 366 404 344 q 420 400 416 387 q 451 533 444 475 q 443 632 458 591 q 443 638 440 638 q 448 636 445 638 q 452 632 451 633 q 477 589 468 615 q 491 536 487 563 q 494 483 495 509 q 487 438 493 456 m 525 538 q 541 469 543 511 q 531 383 540 427 q 509 298 522 338 q 488 234 495 258 q 455 140 475 188 q 420 58 436 93 q 412 47 415 45 q 407 53 408 48 q 406 61 406 58 q 428 205 406 136 q 475 345 450 275 q 502 436 490 391 q 515 536 515 481 q 518 545 515 545 q 520 543 519 545 q 525 538 522 541 m 247 102 q 237 90 250 98 q 220 80 225 81 q 125 79 159 58 q 77 141 91 100 q 62 234 62 183 q 68 325 62 284 q 84 402 72 359 q 112 485 95 444 q 150 561 129 526 q 197 616 172 597 q 203 620 200 618 q 209 623 206 623 q 205 608 213 622 q 185 569 197 594 q 161 511 173 544 q 136 443 148 479 q 118 370 125 406 q 108 301 111 334 q 105 241 105 268 q 106 197 105 215 q 109 173 108 179 q 146 110 119 130 q 219 98 173 90 q 233 101 220 98 q 247 102 245 104 m 426 -4 q 431 -12 431 -9 q 425 -13 431 -15 q 416 -11 419 -12 q 388 4 405 -5 q 363 41 372 15 q 358 68 359 52 q 356 98 356 84 q 359 121 356 112 q 366 129 362 130 q 372 116 369 127 q 379 93 376 105 q 386 64 381 77 q 395 37 390 51 q 409 13 402 22 q 426 -4 416 4 m 298 72 q 252 24 283 48 q 168 0 220 0 q 96 22 126 0 q 47 77 66 44 q 21 150 29 111 q 13 226 13 190 q 21 315 15 270 q 38 398 27 359 q 61 468 48 437 q 88 518 75 498 q 95 524 91 519 q 101 526 98 529 q 100 520 102 525 q 97 512 98 515 q 72 424 84 470 q 54 330 61 377 q 47 237 47 283 q 55 152 47 191 q 75 104 61 126 q 107 66 90 81 q 145 44 125 51 q 184 40 165 37 q 245 63 225 45 q 275 104 266 80 q 286 157 284 129 q 293 215 288 186 q 266 177 286 195 q 222 147 245 158 q 178 138 200 137 q 145 163 156 140 q 130 230 131 194 q 131 309 129 266 q 144 398 134 352 q 170 486 154 444 q 210 566 187 529 q 262 633 233 604 l 268 638 q 276 643 272 643 q 270 629 276 643 q 202 474 230 554 q 169 312 175 394 q 178 194 162 222 q 218 178 194 166 q 268 229 241 190 q 312 315 295 269 q 345 401 327 356 q 377 491 362 445 q 399 579 391 536 q 402 659 406 622 q 405 666 402 666 q 406 665 406 666 q 408 662 406 662 q 409 659 409 661 q 429 563 431 612 q 413 465 427 515 q 378 363 398 415 q 344 258 358 311 q 331 188 336 225 q 330 115 327 151 q 345 46 333 79 q 381 -8 358 13 q 384 -12 384 -11 q 381 -14 384 -15 q 375 -12 377 -13 q 329 19 348 -2 q 298 72 309 41 m 185 692 q 164 694 178 692 q 149 708 149 697 q 162 718 149 712 q 190 736 174 724 q 217 767 205 748 q 230 815 230 785 q 216 869 230 851 q 209 878 213 873 q 206 884 205 883 q 212 882 209 884 q 217 879 216 880 q 260 839 245 863 q 276 792 276 815 q 254 720 276 748 q 185 692 233 692 m 134 748 q 117 756 117 741 q 126 778 117 767 q 142 801 134 788 q 152 829 149 813 q 144 869 155 845 q 134 884 141 876 q 130 894 127 892 q 142 892 133 895 q 153 887 151 888 q 189 854 177 876 q 201 815 201 831 q 179 771 201 788 q 134 748 158 754 m 94 823 q 99 839 94 830 q 112 848 103 848 q 123 839 119 848 q 127 823 127 830 q 123 808 127 817 q 112 799 119 799 q 99 808 103 799 q 94 823 94 816 m 472 692 q 450 694 465 692 q 435 708 435 697 q 448 718 435 712 q 475 736 460 724 q 502 767 490 748 q 515 815 515 785 q 502 869 515 849 q 494 878 499 873 q 492 884 490 883 q 498 882 494 884 q 503 879 502 880 q 546 839 531 863 q 560 792 560 815 q 540 720 560 748 q 472 692 519 692 m 420 748 q 408 746 413 745 q 402 756 402 747 q 410 778 402 767 q 427 801 419 788 q 438 829 435 813 q 430 869 441 845 q 420 884 427 876 q 416 894 413 892 q 427 892 419 895 q 438 887 435 888 q 474 854 462 876 q 487 815 487 831 q 465 771 487 788 q 420 748 444 754 m 380 823 q 384 839 380 830 q 397 848 388 848 q 408 839 403 848 q 412 823 412 830 q 408 808 412 817 q 397 799 403 799 q 384 808 388 799 q 380 823 380 816 "},"Z":{"x_min":-26.078125,"x_max":684.65625,"ha":663,"o":"m 675 961 q 684 964 682 968 q 680 952 686 961 q 655 904 666 932 q 627 843 644 877 q 584 766 611 809 q 513 666 558 722 q 392 531 456 595 q 261 409 327 468 q 247 397 256 406 q 234 391 237 388 q 238 405 231 394 q 247 420 244 416 q 275 460 258 437 q 312 506 293 483 q 350 551 331 530 q 384 587 369 572 q 418 626 393 595 q 477 697 444 657 q 543 784 509 738 q 602 868 577 830 q 558 829 588 859 q 488 756 527 798 q 405 665 448 713 q 324 572 362 616 q 256 493 286 527 q 215 445 226 459 q 101 286 152 372 q 26 112 50 200 l 4 86 q 20 190 5 137 q 57 295 34 243 q 111 395 80 347 q 180 487 143 444 q 346 659 258 576 q 504 823 434 741 q 452 816 477 818 q 401 816 427 815 q 302 827 351 819 q 205 840 252 834 q 114 845 158 845 q 31 832 70 844 q 26 833 26 829 q 31 841 26 838 q 118 880 72 873 q 215 883 165 887 q 316 869 265 879 q 418 858 368 859 q 552 878 483 855 q 675 961 622 901 m 343 373 q 247 268 298 320 q 152 175 195 216 q 211 179 180 179 q 270 179 241 180 q 325 177 300 179 q 366 176 350 176 q 466 164 415 173 q 556 148 518 155 q 569 140 570 145 q 563 136 568 137 q 555 134 559 136 q 405 123 480 118 q 252 134 330 129 q 155 138 205 137 q 50 122 105 140 q 44 122 44 119 q 68 170 54 144 q 95 219 81 197 q 120 255 109 241 q 134 266 130 269 q 134 257 136 265 q 129 239 133 250 q 122 220 126 229 q 116 206 118 211 q 106 183 111 195 q 94 159 101 170 q 108 164 101 162 q 125 169 115 166 q 263 356 186 268 q 426 534 341 444 q 532 652 479 593 q 632 787 586 712 q 635 795 634 794 q 637 794 636 795 q 638 782 641 790 q 596 683 633 740 q 513 568 559 626 q 418 457 466 509 q 343 373 370 405 m 657 122 q 665 125 662 126 q 662 116 668 123 q 591 50 627 73 q 515 15 554 26 q 436 2 476 4 q 358 0 397 0 q 250 4 304 0 q 147 10 195 8 q 56 10 98 12 q -15 -1 15 8 q -23 -3 -18 -2 q -22 1 -29 -4 q 53 42 8 33 q 152 49 98 51 q 261 38 205 47 q 370 29 318 30 q 516 45 441 26 q 657 122 590 65 m 416 1007 q 506 995 461 1004 q 587 980 551 986 q 601 973 601 977 q 596 969 601 970 q 587 966 591 968 q 451 956 519 951 q 313 970 383 961 q 223 980 269 977 q 129 970 177 983 q 120 972 116 968 q 127 979 125 976 q 187 1004 148 997 q 268 1013 226 1012 q 351 1011 311 1013 q 416 1007 391 1008 m 150 118 q 263 108 204 116 q 376 87 323 100 q 386 83 379 86 q 394 76 394 80 q 386 70 394 73 q 375 68 377 68 q 341 65 362 66 q 295 65 319 65 q 250 65 272 65 q 216 65 229 65 q 150 63 184 66 q 84 56 115 61 q 28 43 52 51 q -5 25 4 34 q -12 22 -11 19 q -12 27 -13 23 q -9 33 -11 30 q 16 68 -1 52 q 57 95 34 84 q 105 112 80 106 q 150 118 130 118 m 216 961 q 321 943 266 955 q 422 916 376 932 q 431 913 425 915 q 437 907 438 912 q 430 902 437 904 q 420 900 423 900 q 393 897 409 898 q 360 897 377 897 q 327 897 343 897 q 298 900 311 898 q 239 902 275 901 q 168 902 204 904 q 100 895 131 901 q 52 877 69 890 q 48 875 50 875 l 45 875 q 45 881 44 877 q 48 886 47 884 q 84 921 62 907 q 129 945 105 936 q 175 959 152 955 q 216 961 198 962 m 587 123 q 620 140 605 130 q 654 163 636 151 q 661 168 657 166 q 666 168 665 169 q 663 158 668 165 q 659 152 661 155 q 631 120 644 133 q 590 94 618 106 q 561 84 579 88 q 528 77 544 79 q 501 75 512 75 q 490 81 490 76 q 506 92 490 86 q 529 101 523 98 q 559 111 544 106 q 587 123 573 116 m 615 958 q 645 978 632 968 q 675 1001 659 988 q 678 1004 676 1002 q 680 1002 680 1005 q 677 991 680 997 l 676 988 q 654 957 665 969 q 618 929 643 944 q 592 918 607 923 q 563 909 577 912 q 540 907 550 907 q 530 911 530 907 q 543 922 530 915 q 561 932 556 929 q 615 958 588 943 "},"u":{"x_min":13.890625,"x_max":541.796875,"ha":557,"o":"m 487 438 q 447 340 470 387 q 400 245 425 293 q 391 232 397 243 q 381 225 386 222 q 379 233 379 225 q 380 245 380 241 q 386 277 381 256 q 397 321 391 298 q 410 366 404 344 q 420 400 416 387 q 451 533 444 475 q 443 632 458 591 q 443 638 440 638 q 448 636 445 638 q 452 632 451 633 q 477 589 468 615 q 491 536 487 563 q 494 483 495 509 q 487 438 493 456 m 525 538 q 541 469 543 511 q 531 383 540 427 q 509 298 522 338 q 488 234 495 258 q 455 140 475 188 q 420 58 436 93 q 412 47 415 45 q 407 53 408 48 q 406 61 406 58 q 428 205 406 136 q 475 345 450 275 q 502 436 490 391 q 515 536 515 481 q 518 545 515 545 q 520 543 519 545 q 525 538 522 541 m 247 102 q 237 90 250 98 q 220 80 225 81 q 125 79 159 58 q 77 141 91 100 q 62 234 62 183 q 68 325 62 284 q 84 402 72 359 q 112 485 95 444 q 150 561 129 526 q 197 616 172 597 q 203 620 200 618 q 209 623 206 623 q 205 608 213 622 q 185 569 197 594 q 161 511 173 544 q 136 443 148 479 q 118 370 125 406 q 108 301 111 334 q 105 241 105 268 q 106 197 105 215 q 109 173 108 179 q 146 110 119 130 q 219 98 173 90 q 233 101 220 98 q 247 102 245 104 m 426 -4 q 431 -12 431 -9 q 425 -13 431 -15 q 416 -11 419 -12 q 388 4 405 -5 q 363 41 372 15 q 358 68 359 52 q 356 98 356 84 q 359 121 356 112 q 366 129 362 130 q 372 116 369 127 q 379 93 376 105 q 386 64 381 77 q 395 37 390 51 q 409 13 402 22 q 426 -4 416 4 m 298 72 q 252 24 283 48 q 168 0 220 0 q 96 22 126 0 q 47 77 66 44 q 21 150 29 111 q 13 226 13 190 q 21 315 15 270 q 38 398 27 359 q 61 468 48 437 q 88 518 75 498 q 95 524 91 519 q 101 526 98 529 q 100 520 102 525 q 97 512 98 515 q 72 424 84 470 q 54 330 61 377 q 47 237 47 283 q 55 152 47 191 q 75 104 61 126 q 107 66 90 81 q 145 44 125 51 q 184 40 165 37 q 245 63 225 45 q 275 104 266 80 q 286 157 284 129 q 293 215 288 186 q 266 177 286 195 q 222 147 245 158 q 178 138 200 137 q 145 163 156 140 q 130 230 131 194 q 131 309 129 266 q 144 398 134 352 q 170 486 154 444 q 210 566 187 529 q 262 633 233 604 l 268 638 q 276 643 272 643 q 270 629 276 643 q 202 474 230 554 q 169 312 175 394 q 178 194 162 222 q 218 178 194 166 q 268 229 241 190 q 312 315 295 269 q 345 401 327 356 q 377 491 362 445 q 399 579 391 536 q 402 659 406 622 q 405 666 402 666 q 406 665 406 666 q 408 662 406 662 q 409 659 409 661 q 429 563 431 612 q 413 465 427 515 q 378 363 398 415 q 344 258 358 311 q 331 188 336 225 q 330 115 327 151 q 345 46 333 79 q 381 -8 358 13 q 384 -12 384 -11 q 381 -14 384 -15 q 375 -12 377 -13 q 329 19 348 -2 q 298 72 309 41 "},"˜":{"x_min":30.5625,"x_max":452.8125,"ha":454,"o":"m 127 843 q 138 852 125 847 q 165 859 152 858 q 200 850 180 861 q 241 827 219 840 q 288 802 263 813 q 336 791 312 791 q 378 797 361 791 q 406 811 395 804 q 425 826 418 819 q 437 833 433 833 q 438 829 437 832 q 438 826 438 827 q 427 795 438 809 q 397 769 415 780 q 361 752 380 758 q 327 745 341 745 q 251 764 288 745 q 186 808 213 783 q 162 825 172 820 q 145 832 152 830 q 133 834 137 833 q 127 843 129 836 m 30 833 q 41 892 30 863 q 72 942 52 920 q 118 976 91 963 q 176 988 144 988 q 250 976 218 988 q 304 949 281 963 q 343 922 327 934 q 366 909 358 909 q 390 911 380 909 q 415 922 400 913 q 423 925 419 925 q 425 919 427 925 q 393 884 406 893 q 355 875 379 875 q 326 886 345 875 q 282 911 306 897 q 229 936 258 925 q 173 947 201 947 q 116 931 138 947 q 79 894 94 915 q 53 854 63 873 q 31 826 43 834 q 30 833 30 827 m 384 838 q 392 857 384 844 q 410 881 400 869 q 430 902 420 893 q 447 913 440 912 q 452 907 452 913 q 447 884 452 897 q 431 859 441 870 q 411 840 422 848 q 390 832 400 832 q 384 838 384 832 m 173 929 q 206 922 188 929 q 239 907 223 916 q 268 883 255 897 q 287 855 280 869 q 277 850 286 850 q 248 854 262 850 q 221 865 234 859 q 195 875 208 870 q 168 880 181 880 q 138 872 151 880 q 114 857 126 865 q 90 841 102 848 q 62 833 77 833 l 62 841 q 105 902 81 875 q 173 929 129 929 "},"Ó":{"x_min":36.109375,"x_max":772.28125,"ha":806,"o":"m 772 623 q 760 488 772 559 q 724 347 748 416 q 663 215 700 277 q 578 104 627 152 q 466 28 529 56 q 329 0 404 0 q 209 40 259 0 q 127 148 158 81 q 84 301 95 215 q 80 476 72 387 q 115 651 88 565 q 190 804 143 737 q 304 911 237 870 q 456 952 370 952 q 570 922 525 952 q 645 844 616 891 q 686 739 673 797 q 698 627 698 682 q 687 500 698 562 q 648 380 676 438 q 639 367 640 361 q 641 386 638 373 q 659 485 651 436 q 666 586 666 534 q 657 691 666 634 q 623 797 647 748 q 558 878 600 845 q 452 911 516 911 q 351 890 398 911 q 265 834 304 869 q 198 753 227 800 q 148 657 169 707 q 120 552 131 615 q 108 419 109 488 q 116 279 106 350 q 152 152 126 208 q 222 61 179 97 q 330 26 265 26 q 459 64 398 26 q 570 160 520 102 q 654 284 619 218 q 704 406 688 350 q 725 518 718 456 q 729 643 733 580 q 710 766 726 707 q 662 872 694 826 q 581 947 630 919 q 461 976 531 976 q 279 923 355 976 q 153 790 202 870 q 80 612 104 709 q 56 426 56 515 q 62 342 56 384 q 70 272 68 300 q 68 260 72 261 q 61 270 65 259 q 51 313 55 288 q 43 364 47 337 q 38 418 40 391 q 36 469 36 445 q 61 664 36 566 q 140 840 87 762 q 274 967 193 918 q 466 1016 355 1016 q 608 979 550 1016 q 703 884 666 941 q 756 757 740 826 q 772 623 772 687 m 641 611 q 627 485 641 551 q 586 356 613 419 q 520 238 559 293 q 431 144 481 183 q 381 113 408 126 q 322 101 354 101 q 275 113 294 101 q 243 145 256 125 q 236 161 231 161 q 251 150 240 161 q 276 130 263 138 q 309 122 288 122 q 384 149 348 122 q 443 204 419 176 q 506 291 479 243 q 553 391 534 338 q 581 496 572 443 q 591 602 591 550 q 585 679 591 637 q 561 757 579 720 q 514 819 544 794 q 437 844 484 844 q 345 822 386 844 q 273 766 305 800 q 215 689 241 732 q 168 607 190 647 q 161 597 163 598 q 159 598 159 595 q 159 607 158 601 q 201 708 175 658 q 264 797 227 758 q 347 860 301 836 q 447 884 393 884 q 536 857 498 884 q 596 788 573 829 q 630 699 619 747 q 641 611 641 651 m 390 68 q 322 51 358 51 q 236 79 272 51 q 175 147 200 106 q 140 234 151 187 q 129 322 129 281 q 130 347 129 330 q 134 379 131 363 q 139 408 136 395 q 148 420 143 420 q 153 399 154 420 q 155 338 152 377 q 168 262 156 308 q 200 174 179 216 q 251 101 220 131 q 322 70 281 70 q 384 76 356 70 q 405 79 398 79 q 390 68 412 79 m 440 1126 q 447 1123 448 1129 q 442 1111 445 1118 q 431 1091 435 1098 q 424 1077 427 1083 q 419 1063 422 1071 q 412 1041 416 1055 q 407 1033 409 1035 q 404 1030 405 1032 q 397 1035 399 1028 q 395 1053 395 1041 q 397 1072 395 1061 q 405 1094 399 1083 q 419 1114 410 1105 q 440 1126 427 1123 m 388 1072 q 383 1060 384 1060 q 378 1068 380 1060 q 376 1083 376 1076 q 388 1166 376 1136 q 419 1212 399 1196 q 465 1237 440 1229 q 515 1255 490 1246 q 563 1281 540 1265 q 601 1330 585 1297 q 608 1329 604 1337 q 615 1308 612 1321 q 601 1264 619 1283 q 559 1230 584 1244 q 506 1205 534 1215 q 460 1186 479 1194 q 408 1138 423 1168 q 388 1072 394 1108 m 435 1060 q 467 1090 435 1073 q 540 1127 499 1107 q 620 1172 581 1147 q 673 1228 659 1197 l 676 1228 q 682 1219 681 1228 q 683 1208 683 1211 q 656 1150 683 1178 q 590 1100 629 1122 q 510 1066 551 1079 q 441 1054 469 1054 q 435 1060 435 1054 m 487 1154 q 513 1176 490 1164 q 563 1205 535 1189 q 611 1246 590 1222 q 633 1304 633 1271 q 633 1308 633 1308 q 641 1305 634 1308 q 651 1280 649 1298 q 654 1250 654 1261 q 638 1205 654 1225 q 599 1173 623 1186 q 548 1154 576 1161 q 497 1147 520 1147 q 490 1148 494 1147 q 487 1154 485 1148 "},"k":{"x_min":37.171875,"x_max":618.5625,"ha":576,"o":"m 543 648 q 545 604 548 626 q 534 562 541 581 q 514 528 526 543 q 491 505 502 513 q 416 461 458 481 q 334 426 375 441 q 325 422 331 425 q 315 425 318 420 q 317 431 313 426 q 322 438 320 437 q 359 475 336 455 q 401 505 383 494 q 428 526 406 509 q 472 566 450 543 q 515 612 495 588 q 536 652 534 636 q 536 656 536 655 q 537 658 537 657 q 538 659 537 659 q 542 654 541 658 q 543 648 543 651 m 281 761 q 230 589 262 676 q 162 427 198 502 q 154 409 159 420 q 145 397 150 397 q 143 411 143 400 q 145 427 144 423 q 156 480 150 448 q 172 548 163 512 q 190 619 181 584 q 208 680 200 654 q 244 864 236 773 q 237 1038 252 955 q 236 1047 236 1044 q 237 1051 237 1050 q 250 1043 244 1054 q 276 985 266 1020 q 289 910 286 950 q 290 831 293 870 q 281 761 288 791 m 201 1073 q 226 928 229 1005 q 204 769 223 851 q 156 603 184 687 q 104 437 127 519 q 79 328 88 386 q 70 213 70 270 q 81 101 70 155 q 119 1 93 47 q 118 -4 123 -5 q 111 0 113 -2 q 59 99 76 43 q 38 218 41 155 q 43 345 34 280 q 68 469 51 411 q 118 632 93 551 q 163 788 144 712 q 192 936 183 865 q 191 1073 201 1008 q 190 1079 191 1076 q 193 1083 190 1083 q 197 1079 195 1083 q 201 1073 200 1076 m 569 34 q 577 27 580 31 q 570 22 575 23 q 487 18 527 11 q 420 44 447 25 q 360 109 386 69 q 311 186 334 150 q 306 193 309 188 q 305 201 304 198 q 313 203 308 205 q 319 200 318 201 q 363 173 337 191 q 401 140 388 155 q 431 110 412 127 q 474 77 451 93 q 522 50 497 62 q 569 34 547 37 m 613 65 q 617 61 620 63 q 608 58 613 58 q 529 67 563 50 q 464 113 494 84 q 406 175 434 141 q 345 234 377 208 q 246 280 305 266 q 119 268 187 294 q 113 269 112 265 q 118 276 115 273 q 144 292 130 284 q 170 304 158 300 q 211 450 187 377 q 258 600 234 523 q 298 748 280 670 q 313 913 316 826 q 316 922 313 922 q 320 918 319 922 q 323 911 320 913 q 337 833 337 882 q 329 728 337 784 q 306 613 320 672 q 279 508 293 555 q 341 557 306 537 q 409 596 375 577 q 472 638 443 615 q 519 698 501 662 q 520 701 519 700 q 522 700 520 702 q 522 695 522 698 q 523 690 523 693 q 497 616 520 645 q 440 562 473 586 q 368 518 406 538 q 295 472 329 497 q 241 398 255 441 q 218 313 227 355 q 232 335 225 323 q 247 357 240 347 q 259 373 254 368 q 268 376 265 379 q 267 367 269 375 q 262 350 265 359 q 256 330 259 340 q 252 315 254 320 q 264 313 259 313 q 273 312 269 313 q 348 389 305 358 q 438 448 391 420 q 500 490 470 468 q 554 548 530 512 q 558 550 555 552 q 559 546 559 548 q 559 540 558 544 q 543 484 561 511 q 498 436 525 458 q 444 395 472 413 q 401 365 416 377 q 352 334 379 348 q 302 306 326 319 q 380 262 344 293 q 440 206 412 237 q 495 145 468 175 q 552 94 523 116 q 613 65 580 72 m 177 197 q 170 173 175 188 q 162 144 165 158 q 159 130 159 137 q 155 125 158 123 q 149 136 151 126 q 147 152 147 145 q 147 175 147 162 q 149 197 147 187 q 157 215 151 208 q 176 222 163 222 q 215 209 194 220 q 259 178 237 197 q 304 136 281 159 q 348 90 326 113 q 400 36 372 63 q 469 -1 429 9 q 475 -6 475 -4 q 468 -8 475 -8 q 411 3 440 -8 q 356 32 383 15 q 306 69 329 50 q 266 104 283 88 q 220 151 243 126 q 177 197 197 176 m 161 1 q 160 -4 163 -2 q 150 0 156 -5 q 119 36 133 15 q 98 102 105 58 q 90 159 93 129 q 95 212 88 188 q 122 252 102 236 q 179 268 141 268 q 201 265 188 268 q 224 259 213 262 q 240 250 234 255 q 243 241 247 245 q 228 238 241 237 q 212 240 215 240 q 179 243 195 243 q 151 240 163 244 q 131 224 138 236 q 123 190 123 212 q 131 101 123 143 q 143 49 137 73 q 161 1 150 25 "},"Ù":{"x_min":6.28125,"x_max":763.453125,"ha":771,"o":"m 291 212 q 386 312 344 262 q 466 424 429 362 q 534 566 502 486 q 595 754 565 645 q 624 875 612 816 q 633 988 636 933 q 634 1000 633 1000 q 638 995 637 1000 q 641 988 640 991 q 655 852 662 923 q 629 706 648 780 q 584 555 609 632 q 540 402 558 479 q 523 302 529 355 q 520 197 518 250 q 533 95 522 145 q 568 2 544 45 q 569 -1 569 1 l 569 -4 q 563 -2 565 -4 l 561 0 q 487 143 506 58 q 447 97 468 119 q 391 51 427 75 q 261 -2 333 12 q 119 16 190 -16 q 55 71 77 37 q 22 145 33 105 q 10 225 12 184 q 6 300 8 266 q 13 426 4 365 q 37 541 22 487 q 72 637 52 594 q 109 709 91 680 q 114 716 111 712 q 119 719 118 719 q 120 711 122 718 q 116 702 118 705 q 79 575 95 640 q 54 443 62 509 q 47 309 45 376 q 66 173 50 241 q 87 115 73 145 q 133 62 101 86 q 170 43 151 48 q 208 36 190 37 q 242 38 226 36 q 272 45 258 41 q 379 101 334 61 q 456 183 425 141 q 477 215 469 197 q 479 276 476 241 q 486 341 481 311 q 493 393 490 372 q 494 412 495 413 q 418 288 462 341 q 343 201 375 234 q 296 162 322 179 q 245 138 270 145 q 200 138 220 131 q 169 170 179 145 q 141 296 150 227 q 140 436 133 365 q 207 715 155 577 q 354 966 259 852 q 364 976 359 973 q 361 965 369 979 q 302 857 330 918 q 250 728 273 795 q 210 590 227 661 q 186 452 193 519 q 180 321 179 386 q 201 206 181 256 q 220 184 208 188 q 244 182 231 179 q 269 195 256 186 q 291 212 281 204 m 313 101 q 281 84 298 93 q 247 71 265 76 q 211 66 230 66 q 170 73 191 66 q 113 120 130 87 q 86 183 95 152 q 65 315 63 250 q 76 456 68 381 q 99 572 81 509 q 143 698 116 636 q 202 815 169 761 q 270 904 234 869 q 281 914 273 907 q 291 919 288 922 q 279 895 293 918 q 245 836 265 873 q 206 750 226 798 q 168 647 187 702 q 137 534 150 593 q 120 423 125 477 q 117 324 116 369 q 121 247 118 279 q 127 205 125 216 q 147 147 134 177 q 184 106 161 118 q 243 100 208 95 q 306 119 279 104 q 315 125 308 120 q 329 134 322 129 q 343 142 337 138 q 351 144 350 145 q 350 136 352 141 q 341 123 347 130 q 327 110 334 116 q 313 101 319 104 m 690 390 q 650 254 673 323 q 611 133 627 184 q 605 119 608 126 q 600 113 602 112 q 595 122 595 115 q 595 137 595 130 q 627 344 601 241 q 684 551 652 447 q 721 684 704 616 q 741 829 738 751 q 744 838 741 838 q 751 829 748 838 q 762 732 766 791 q 745 609 758 673 q 715 486 732 545 q 690 390 698 426 m 705 694 q 663 540 686 619 q 601 390 641 461 q 592 375 598 386 q 581 366 586 365 q 579 377 579 366 q 580 395 579 388 q 586 436 581 412 q 596 486 590 461 q 609 536 602 512 q 620 577 615 561 q 629 610 623 586 q 643 668 636 634 q 656 741 650 701 q 668 819 663 780 q 675 893 673 858 q 672 952 676 927 q 673 965 669 965 q 679 962 676 965 q 683 957 682 959 q 707 900 700 933 q 717 830 715 866 q 716 758 719 794 q 705 694 712 722 m 580 94 q 589 44 584 66 q 607 1 594 22 q 609 -3 608 0 q 607 -6 609 -6 q 593 0 600 -6 q 568 34 577 18 q 550 93 558 51 q 545 133 547 109 q 545 179 544 156 q 550 215 547 201 q 559 230 554 230 q 563 222 561 230 q 567 206 565 215 q 570 188 569 197 q 570 176 570 179 q 580 94 575 133 m 573 1098 q 594 1086 585 1095 q 608 1066 602 1077 q 615 1044 613 1055 q 617 1025 617 1033 q 615 1007 617 1013 q 609 1002 613 1000 q 605 1005 608 1004 q 599 1013 602 1007 q 594 1035 597 1027 q 588 1049 591 1043 q 580 1063 584 1055 q 570 1083 576 1070 q 566 1095 567 1090 q 573 1098 565 1101 m 624 1044 q 604 1110 619 1080 q 552 1158 590 1140 q 506 1177 534 1166 q 453 1202 478 1187 q 411 1236 428 1216 q 398 1280 394 1255 q 405 1301 401 1293 q 412 1302 409 1309 q 450 1253 427 1269 q 498 1227 473 1237 q 548 1209 523 1218 q 592 1184 573 1201 q 624 1138 612 1168 q 635 1055 635 1108 q 634 1040 635 1048 q 630 1032 633 1032 q 624 1044 628 1032 m 577 1032 q 572 1026 577 1026 q 502 1038 544 1026 q 422 1072 460 1051 q 357 1122 384 1094 q 330 1180 330 1150 q 331 1191 330 1183 q 337 1200 331 1200 l 340 1200 q 392 1144 353 1169 q 472 1099 431 1119 q 545 1062 513 1079 q 577 1032 577 1045 m 526 1126 q 523 1120 527 1120 q 516 1119 519 1119 q 465 1126 492 1119 q 413 1145 437 1133 q 374 1177 390 1158 q 358 1222 358 1197 q 360 1252 358 1233 q 372 1277 363 1270 q 379 1280 378 1280 q 380 1276 380 1280 q 401 1218 380 1243 q 450 1177 423 1194 q 500 1148 477 1161 q 526 1126 523 1136 "},"€":{"x_min":36.109375,"x_max":693.109375,"ha":688,"o":"m 138 263 q 148 258 143 263 l 148 255 q 118 232 137 245 q 93 212 100 219 q 68 189 77 202 q 47 163 58 176 l 41 161 q 50 197 41 179 q 72 231 58 216 q 103 254 86 245 q 138 263 120 263 m 116 323 q 116 336 115 327 q 120 354 118 344 q 125 374 122 365 q 129 387 127 383 l 129 390 q 125 396 129 394 q 119 401 122 398 l 125 409 q 193 421 159 418 q 262 425 227 425 q 354 420 308 425 q 447 416 401 416 q 510 424 483 416 q 570 437 537 431 q 566 427 570 431 q 556 418 562 423 q 509 388 538 398 q 447 375 480 379 q 381 372 415 372 q 323 373 348 373 l 319 355 l 323 350 q 363 346 343 350 q 405 343 383 343 q 497 365 454 343 l 498 365 l 500 363 q 481 335 497 348 q 446 313 466 322 q 404 301 426 305 q 369 298 383 297 q 297 308 333 302 q 226 313 262 313 q 118 283 163 313 q 40 204 72 252 l 36 204 q 45 231 36 213 q 68 266 55 248 q 94 300 80 284 q 116 323 108 315 m 212 266 q 227 275 212 272 q 259 278 241 277 q 293 278 277 279 q 313 277 309 277 q 384 281 348 277 q 452 298 420 284 q 475 310 461 301 q 497 322 490 319 q 485 283 497 301 q 455 252 473 265 q 416 232 437 240 q 376 225 394 225 q 341 228 365 225 q 290 236 316 231 q 243 248 265 241 q 212 263 220 255 l 212 266 m 175 386 l 168 350 l 201 358 q 204 367 204 362 q 204 376 204 372 l 204 380 q 196 385 204 384 q 186 386 188 386 l 175 386 m 241 358 l 266 358 l 270 370 l 270 375 q 261 375 265 375 q 251 376 256 376 q 243 369 244 376 q 241 358 241 362 m 170 468 q 180 463 177 468 l 180 462 l 175 454 q 107 416 137 436 q 50 366 77 395 l 45 366 q 58 406 45 387 q 89 438 70 425 q 129 459 108 451 q 170 468 151 468 m 536 818 q 609 796 579 818 q 658 741 640 775 q 684 668 676 708 q 693 591 693 627 l 690 590 l 684 595 q 666 657 676 625 q 640 718 657 690 q 599 764 623 745 q 538 783 575 783 q 454 761 497 783 q 374 707 412 740 q 304 636 336 675 q 252 565 273 598 l 279 565 l 286 570 q 332 634 308 600 q 386 697 356 668 q 450 747 415 727 q 529 766 484 766 q 575 757 555 766 q 608 730 594 747 q 632 692 622 713 q 651 648 643 670 l 651 641 q 647 636 651 636 q 623 661 633 645 q 603 691 613 676 q 579 715 593 705 q 544 725 566 725 q 492 706 520 725 q 435 661 463 687 q 382 609 406 636 q 344 565 358 581 q 359 563 348 563 q 383 584 365 563 q 426 630 401 605 q 478 676 451 655 q 529 698 505 697 q 525 688 529 691 q 519 683 522 686 q 481 645 500 663 q 447 607 462 626 q 431 582 438 595 q 412 561 423 569 l 412 559 l 412 556 q 455 555 434 556 q 498 554 476 554 q 562 559 530 554 q 623 580 594 565 l 626 580 q 628 579 627 580 q 632 577 629 577 q 602 545 622 558 q 557 524 581 531 q 508 513 533 516 q 463 509 483 509 q 352 514 408 509 q 241 519 297 519 q 189 510 218 519 q 134 486 161 501 q 84 451 106 470 q 50 411 62 431 l 41 406 l 41 415 q 72 462 59 443 q 101 497 86 481 q 136 525 116 512 q 188 551 156 537 l 191 555 q 256 647 222 601 q 331 732 290 694 q 423 794 373 770 q 536 818 473 818 m 263 472 q 276 479 268 476 q 294 484 284 481 q 313 486 304 486 q 329 487 323 487 q 391 488 359 488 q 456 488 423 487 q 520 495 488 490 q 580 513 551 501 q 602 526 588 516 q 622 536 615 536 q 608 502 622 520 q 575 470 594 484 q 534 445 555 455 q 498 436 513 436 l 422 436 q 389 438 413 436 q 338 447 365 441 q 288 459 311 452 q 263 472 266 465 m 116 190 q 112 197 112 191 q 128 209 112 205 q 164 215 144 213 q 202 216 184 216 q 226 216 220 216 q 302 213 265 216 q 379 211 340 211 q 400 213 386 211 q 429 218 413 215 q 466 225 445 220 q 445 192 465 204 q 401 174 426 180 q 350 166 376 168 q 309 165 323 165 l 309 161 q 316 138 309 147 q 334 126 323 130 q 356 120 344 122 q 379 119 368 119 q 421 124 400 119 q 463 129 443 129 q 448 114 463 122 q 413 100 433 106 q 376 90 394 94 q 351 87 358 87 q 289 109 315 87 q 256 168 263 131 q 161 180 206 170 l 161 175 q 175 109 161 140 q 214 54 190 77 q 270 18 238 31 q 336 4 302 4 q 408 15 372 4 q 475 48 444 27 q 533 96 506 69 q 577 154 559 123 q 584 169 580 159 q 593 188 588 179 q 601 206 597 198 q 608 216 605 213 q 611 209 611 215 q 595 143 611 176 q 554 79 579 109 q 499 25 529 48 q 441 -9 469 2 q 392 -27 418 -20 q 338 -34 366 -34 q 247 -17 287 -34 q 180 30 208 0 q 136 102 152 61 q 116 190 120 143 m 343 40 l 350 47 q 462 101 415 69 q 548 194 509 133 q 559 218 555 204 q 575 240 563 233 q 580 222 580 236 q 559 150 580 184 q 505 90 537 116 q 434 50 473 65 q 361 34 395 34 q 352 35 356 34 q 345 36 348 36 l 343 40 "},"ß":{"x_min":37.5,"x_max":669.890625,"ha":689,"o":"m 602 220 q 587 272 602 250 q 552 313 572 295 q 517 346 533 331 q 500 375 501 361 q 518 367 506 373 q 541 352 529 361 q 563 336 552 344 q 580 323 573 327 q 636 211 638 283 q 624 152 636 183 q 593 94 612 122 q 551 43 575 66 q 502 6 527 19 q 459 -6 487 1 q 406 -18 430 -15 q 394 -13 398 -18 q 409 -8 394 -11 q 486 20 451 -1 q 546 72 520 41 q 586 142 572 104 q 602 220 601 180 m 168 -25 q 209 57 193 19 q 238 134 226 95 q 259 213 250 173 q 277 302 268 254 q 285 338 281 322 q 291 375 288 355 q 284 373 288 373 q 276 372 280 373 q 266 370 270 370 l 236 200 q 228 171 233 188 q 217 135 223 154 q 204 98 211 116 q 191 70 197 80 q 184 57 188 65 q 177 46 180 50 q 172 45 173 43 q 175 65 172 48 q 206 218 190 144 q 225 375 222 291 l 204 380 l 186 277 q 175 273 183 269 q 172 293 172 279 q 174 326 173 308 q 176 361 175 344 q 176 386 177 377 q 127 399 156 391 q 86 422 98 406 q 109 436 91 433 q 134 438 127 438 q 172 434 155 438 q 207 422 190 429 q 242 411 225 416 q 279 406 259 406 q 314 415 301 406 q 340 433 327 423 q 316 309 329 368 q 286 195 304 251 q 241 84 268 138 q 176 -25 215 30 q 172 -30 175 -27 q 167 -33 169 -33 q 165 -31 165 -33 q 168 -25 165 -30 m 390 19 q 442 50 415 29 q 492 96 469 70 q 529 151 515 122 q 544 206 544 180 q 531 250 544 231 q 499 283 519 268 q 455 314 479 298 q 411 352 431 330 q 378 406 391 375 q 366 483 365 437 q 381 548 366 519 q 414 606 397 577 q 447 666 431 634 q 462 740 462 698 q 462 758 462 745 q 461 782 462 770 q 456 802 459 793 q 448 811 454 811 q 429 794 438 811 q 410 752 419 777 q 393 694 401 726 q 378 633 384 662 q 368 581 372 604 q 363 548 365 558 q 350 506 361 519 q 302 494 338 494 q 269 499 286 494 q 236 509 252 504 q 204 520 220 515 q 169 525 187 525 q 125 516 144 525 q 92 495 106 508 q 66 470 77 483 q 45 447 55 456 q 39 445 43 444 q 40 456 36 445 q 63 498 48 477 q 97 534 77 519 q 140 559 116 550 q 191 566 163 568 q 196 642 191 597 q 212 736 201 687 q 241 834 223 786 q 288 922 259 883 q 358 985 318 961 q 452 1009 398 1009 q 546 986 508 1009 q 608 925 584 962 q 641 843 632 888 q 651 755 651 798 q 632 650 651 694 q 592 572 613 605 q 552 515 570 540 q 534 468 534 490 q 557 423 534 443 q 607 378 580 404 q 654 316 634 352 q 668 225 675 280 q 661 197 665 209 q 657 188 658 186 q 655 196 654 190 q 657 222 657 202 q 631 299 657 268 q 575 357 605 330 q 518 409 544 384 q 493 468 493 434 q 510 515 493 488 q 547 575 527 541 q 584 650 568 608 q 602 741 601 691 q 596 813 604 775 q 570 886 588 852 q 523 942 552 919 q 451 965 494 965 q 377 943 409 965 q 319 885 344 920 q 277 804 294 850 q 250 715 261 759 q 233 630 238 670 q 227 563 227 590 l 251 555 q 259 622 254 583 q 273 706 263 662 q 298 792 283 750 q 335 868 313 834 q 386 924 356 902 q 454 945 415 945 q 513 924 490 945 q 549 871 536 902 q 566 805 562 840 q 570 744 570 770 q 568 722 570 737 q 560 690 565 707 q 549 660 555 673 q 536 644 543 647 q 541 685 536 665 q 545 725 545 705 q 541 772 545 743 q 525 831 536 802 q 496 880 513 859 q 454 901 479 901 q 403 879 426 901 q 363 825 380 858 q 332 750 345 791 q 311 668 319 708 q 297 595 302 629 q 293 541 293 561 q 302 536 293 538 q 313 534 311 534 q 322 561 318 540 q 330 605 326 581 q 338 651 334 629 q 344 684 341 673 q 357 729 347 698 q 382 791 368 759 q 415 845 397 822 q 452 869 433 869 q 479 853 469 869 q 495 815 490 837 q 503 771 501 793 q 505 738 505 750 q 491 663 505 697 q 459 599 476 629 q 427 540 441 569 q 412 479 412 511 q 423 414 411 441 q 454 366 436 387 q 495 328 473 345 q 537 293 518 311 q 569 255 556 276 q 581 206 581 234 q 566 150 581 181 q 525 88 551 118 q 464 37 500 59 q 387 9 429 15 q 375 8 380 6 q 373 11 370 9 q 390 19 373 12 m 122 487 q 130 487 129 488 q 131 483 131 486 q 87 445 116 466 q 37 405 58 425 q 45 431 37 416 q 67 458 54 445 q 95 479 80 470 q 122 487 109 487 m 168 484 q 191 489 176 490 q 224 485 206 488 q 258 478 241 481 q 286 475 275 475 q 304 477 294 475 q 324 484 315 480 q 340 488 333 487 q 348 487 347 490 q 347 469 351 480 q 334 448 343 458 q 313 431 325 438 q 287 425 301 425 q 259 431 279 425 q 220 446 240 437 q 184 466 200 455 q 168 484 168 476 "},"é":{"x_min":15.203125,"x_max":502.609375,"ha":478,"o":"m 425 566 q 442 531 436 552 q 447 486 448 511 q 436 436 445 462 q 405 384 426 409 q 317 311 365 337 q 230 286 269 286 q 230 294 206 286 q 260 307 243 298 q 297 329 277 316 q 336 361 316 343 q 373 402 356 379 q 406 478 401 441 q 391 534 411 515 q 352 553 375 551 q 286 529 330 555 q 213 470 245 505 q 154 397 181 436 q 134 377 138 377 q 137 402 129 377 q 184 493 154 451 q 255 563 213 534 q 311 593 286 584 q 359 600 337 601 q 397 589 380 598 q 425 566 413 580 m 500 469 q 482 413 494 436 q 456 374 470 390 q 427 348 441 358 q 401 330 412 338 q 393 329 395 326 q 397 338 390 331 q 447 395 422 359 q 475 473 473 430 q 438 586 475 547 q 348 620 402 625 q 236 577 294 615 q 170 522 198 554 q 120 456 141 491 q 86 383 100 420 q 68 308 73 345 q 57 230 62 272 q 57 148 52 188 q 83 71 62 108 q 148 8 104 34 q 163 2 155 4 q 170 0 170 1 q 163 -3 170 -2 q 148 -1 156 -4 q 89 27 113 5 q 50 76 65 48 q 26 134 34 104 q 16 190 18 165 q 47 406 8 300 q 68 456 55 429 q 101 513 81 484 q 147 568 120 541 q 206 616 173 595 q 273 645 238 636 q 343 654 308 655 q 408 642 377 654 q 462 607 438 630 q 495 550 483 584 q 500 469 506 515 m 373 519 q 377 459 390 500 q 319 376 365 418 q 270 338 294 352 q 211 312 247 323 q 191 208 195 259 q 194 125 187 156 q 203 100 195 112 q 225 82 211 88 q 263 77 240 76 q 322 93 287 79 q 334 95 331 97 q 325 86 336 93 q 272 59 300 66 q 220 54 244 51 q 178 70 195 56 q 155 108 161 84 q 145 209 144 156 q 161 313 147 262 q 203 410 176 365 q 270 487 230 455 q 373 519 345 547 m 359 76 q 335 49 350 62 q 302 25 320 36 q 263 8 283 15 q 222 1 243 1 q 154 17 186 1 q 106 81 123 33 q 104 92 104 87 q 106 97 104 97 q 118 93 112 100 q 129 80 123 87 q 168 48 144 62 q 215 34 193 34 q 287 47 256 34 q 345 80 318 59 q 361 88 352 84 q 359 76 370 93 m 340 481 q 300 463 334 493 q 249 406 268 438 q 216 334 230 373 q 265 363 243 347 q 306 394 287 379 q 337 441 327 412 q 340 481 347 470 m 257 770 q 264 767 265 773 q 259 755 262 762 q 248 735 252 742 q 241 721 244 727 q 236 707 239 715 q 229 685 233 699 q 224 677 226 679 q 221 674 222 676 q 214 679 216 672 q 212 697 212 685 q 214 716 212 705 q 222 738 216 727 q 236 758 227 749 q 257 770 244 767 m 205 716 q 200 704 201 704 q 195 712 197 704 q 193 727 193 720 q 205 810 193 780 q 236 856 216 840 q 282 881 257 873 q 332 899 307 890 q 380 925 357 909 q 418 974 402 941 q 425 973 421 981 q 432 952 429 965 q 418 908 436 927 q 376 874 401 888 q 323 849 351 859 q 277 830 296 838 q 225 782 240 812 q 205 716 211 752 m 252 704 q 284 734 252 717 q 357 771 316 751 q 437 816 398 791 q 490 872 476 841 l 493 872 q 499 863 498 872 q 500 852 500 855 q 473 794 500 822 q 407 744 446 766 q 327 710 368 723 q 258 698 286 698 q 252 704 252 698 m 304 798 q 330 820 307 808 q 380 849 352 833 q 428 890 407 866 q 450 948 450 915 q 450 952 450 952 q 458 949 451 952 q 468 924 466 942 q 471 894 471 905 q 455 849 471 869 q 416 817 440 830 q 365 798 393 805 q 314 791 337 791 q 307 792 311 791 q 304 798 302 792 "},"s":{"x_min":-30.5625,"x_max":401.703125,"ha":376,"o":"m 170 512 q 179 542 172 525 q 197 575 186 559 q 226 604 209 591 q 263 622 243 618 q 337 616 308 630 q 381 584 366 602 q 386 575 387 576 q 376 576 383 572 q 349 586 368 581 q 309 588 330 590 q 267 575 287 586 q 234 538 247 563 q 219 490 223 515 q 214 443 215 465 q 215 406 213 422 q 216 386 216 391 q 221 347 219 370 q 223 301 223 325 q 222 254 223 277 q 216 215 220 231 q 213 201 215 211 q 208 191 211 191 q 201 201 201 191 q 201 215 201 211 q 191 285 198 250 q 178 358 184 320 q 169 434 172 395 q 170 512 166 472 m 122 237 q 117 316 123 265 q 112 433 111 366 q 119 504 113 468 q 145 577 125 541 q 202 635 168 616 q 261 652 236 654 q 269 652 265 652 q 273 651 273 652 q 272 649 273 648 q 262 647 270 650 q 218 624 237 640 q 184 587 198 608 q 162 544 170 566 q 152 504 154 522 q 154 370 144 427 q 165 275 161 325 q 161 185 169 226 q 132 117 154 144 q 66 87 111 90 q 56 88 62 87 q 50 91 50 88 q 62 101 50 94 q 109 150 98 118 q 122 237 120 181 m -25 73 q 36 28 -5 43 q 137 30 79 13 q 188 59 166 38 q 225 106 211 80 q 247 159 240 131 q 256 211 255 187 q 254 287 258 250 q 246 360 251 325 q 238 429 241 395 q 237 494 234 462 q 256 547 240 529 q 297 570 273 565 q 348 566 322 575 q 397 540 375 558 q 401 533 402 537 q 398 531 401 530 q 393 534 395 533 q 313 544 341 551 q 281 494 284 537 q 289 377 279 444 q 297 227 300 309 q 291 163 298 200 q 265 93 283 127 q 220 33 248 59 q 152 0 191 6 q 35 8 79 -11 q -27 68 -8 27 q -30 77 -30 76 l -29 77 q -25 73 -29 77 m 36 73 q 100 68 62 66 q 130 75 112 69 q 150 77 148 80 q 141 63 154 72 q 109 49 129 55 q 69 40 90 43 q 34 44 48 38 q -3 68 8 55 q -25 101 -15 81 l -27 106 q -29 113 -30 112 q -25 113 -27 115 q -23 111 -23 112 q 4 88 -6 95 q 36 73 16 80 "},"B":{"x_min":41.671875,"x_max":680.75,"ha":703,"o":"m 88 -22 q 76 -30 79 -31 q 76 -24 73 -29 q 80 -16 79 -19 q 97 2 91 -4 q 112 15 104 8 q 63 110 79 59 q 45 215 48 161 q 50 325 43 269 q 70 433 58 380 q 128 636 95 537 q 183 827 161 736 q 103 805 138 819 q 56 775 68 791 q 49 769 52 768 q 51 782 45 770 q 91 824 62 805 q 158 855 120 843 q 239 875 195 868 q 323 880 283 882 q 474 845 413 877 q 536 751 534 813 q 509 673 536 712 q 443 600 481 634 q 362 539 405 566 q 288 497 319 512 l 283 477 q 338 506 304 495 q 411 518 373 518 q 486 504 450 518 q 551 462 523 491 q 599 367 588 420 q 593 262 609 313 q 541 178 577 211 q 468 129 505 145 q 452 122 463 126 q 438 123 441 119 q 445 134 437 126 q 458 144 454 141 q 522 212 495 169 q 554 302 548 255 q 544 391 561 348 q 479 458 527 434 q 427 472 459 468 q 363 475 395 477 q 304 461 331 473 q 266 422 277 448 q 323 445 291 437 q 388 453 355 454 q 450 441 420 452 q 498 405 479 429 q 525 344 522 376 q 518 281 529 312 q 485 225 508 251 q 433 180 462 198 q 347 134 394 156 q 252 86 300 111 q 162 35 205 62 q 88 -22 119 8 m 255 375 q 214 249 230 312 q 179 133 198 186 q 169 116 172 115 q 165 124 165 118 q 165 137 165 130 q 195 346 169 243 q 252 555 222 450 q 289 689 272 620 q 309 837 306 758 l 286 837 q 284 763 287 800 q 273 700 280 726 q 226 544 254 625 q 168 391 198 463 q 161 378 166 388 q 152 369 156 368 q 149 381 150 370 q 150 397 148 393 q 156 438 151 413 q 165 490 161 463 q 177 541 170 516 q 188 584 183 566 q 196 616 190 591 q 209 677 202 641 q 224 753 216 712 q 237 833 231 794 q 220 832 226 833 q 200 727 213 780 q 170 620 187 675 q 137 513 154 566 q 108 405 120 459 q 91 309 97 359 q 86 210 86 259 q 94 113 86 161 q 120 23 102 66 l 133 36 q 125 59 129 45 q 118 93 120 73 q 114 131 115 108 q 115 177 113 155 q 119 215 116 200 q 127 230 122 230 q 131 223 129 230 q 134 206 133 216 q 137 188 136 197 q 138 176 138 180 q 141 148 140 163 q 145 116 143 133 q 149 84 147 100 q 155 56 151 68 q 223 109 187 86 q 295 151 259 131 q 363 188 330 170 q 422 225 397 206 q 477 299 465 254 q 462 380 490 344 q 413 413 444 404 q 349 421 381 423 q 290 406 316 419 q 255 375 263 394 m 476 587 q 470 572 479 586 q 458 554 461 559 q 542 587 505 561 q 601 650 579 613 q 629 731 623 687 q 620 819 634 775 q 575 894 607 863 q 501 944 543 925 q 411 972 459 963 q 313 979 362 980 q 220 970 265 979 q 143 947 176 962 q 135 944 136 944 q 133 945 134 944 q 140 955 131 950 q 228 1001 175 986 q 341 1016 281 1016 q 459 1000 400 1016 q 567 952 519 984 q 646 868 615 919 q 680 750 677 818 q 669 674 682 708 q 636 613 657 640 q 588 568 615 587 q 531 537 561 550 q 611 472 577 516 q 658 386 644 429 q 666 277 675 329 q 635 184 657 226 q 586 113 613 143 q 540 70 559 83 q 458 29 500 44 q 376 7 416 15 q 299 -2 336 0 q 233 -6 262 -5 q 211 -5 211 -9 q 218 0 209 -2 q 234 2 227 1 q 341 29 288 12 q 448 73 394 45 q 503 106 475 87 q 556 150 531 125 q 597 208 580 176 q 620 279 615 240 q 618 375 627 327 q 572 468 609 423 q 496 526 536 511 q 411 538 456 541 q 400 540 400 538 q 415 550 400 543 q 434 559 430 556 q 461 579 447 568 q 476 587 475 590 m 493 745 q 445 810 493 790 q 315 837 398 830 q 327 758 325 794 q 327 686 330 722 q 314 613 323 651 q 294 529 305 575 q 358 571 323 543 q 422 631 393 600 q 472 693 452 662 q 493 745 493 725 m 301 958 q 409 947 348 961 q 518 905 469 934 q 559 868 543 890 q 585 821 576 845 q 595 772 594 797 q 590 726 597 747 q 587 718 588 723 q 583 709 586 713 q 577 700 580 704 q 572 698 575 697 q 568 708 568 698 q 572 729 569 718 q 566 797 579 768 q 526 846 552 826 q 465 879 500 866 q 393 898 430 891 q 322 906 356 905 q 262 904 287 907 q 193 891 227 900 q 130 870 159 882 q 80 847 101 859 q 51 823 59 834 q 41 816 43 812 q 44 829 41 820 q 80 879 54 857 q 141 919 106 902 q 218 945 176 936 q 301 958 259 955 m 233 22 q 160 -9 187 4 q 106 -45 133 -23 q 101 -51 104 -47 q 95 -54 98 -55 q 95 -46 93 -52 q 101 -37 98 -40 q 137 0 115 -18 q 200 36 159 19 q 231 47 213 41 q 264 58 248 54 q 290 63 280 62 q 304 61 301 65 q 295 52 305 58 q 273 40 286 47 q 249 29 261 34 q 233 22 237 23 "}}}
